G04 Layer: TopSilkLayer*
G04 EasyEDA v5.9.34, Sun, 20 Jan 2019 06:30:26 GMT*
G04 4d0cf0336fcf4326954002bdc8c8e70b*
G04 Gerber Generator version 0.2*
G04 Scale: 100 percent, Rotated: No, Reflected: No *
G04 Dimensions in millimeters *
G04 leading zeros omitted , absolute positions ,3 integer and 3 decimal *
%FSLAX33Y33*%
%MOMM*%
G90*
G71D02*

%ADD10C,0.254000*%
%ADD11C,0.159995*%
%ADD12C,0.160000*%
%ADD17C,0.250012*%
%ADD46C,0.162000*%
%ADD47C,0.152400*%
%ADD48C,0.101600*%
%ADD49C,0.199898*%
%ADD50C,0.248920*%
%ADD51C,0.249936*%
%ADD52C,0.599948*%

%LPD*%
G54D12*
G01X20066Y18542D02*
G01X20066Y17983D01*
G01X20066Y17780D01*
G01X20066Y16256D02*
G01X20066Y15697D01*
G01X20066Y15494D01*
G01X20066Y13716D02*
G01X20066Y13157D01*
G01X20066Y12954D01*
G01X20066Y11176D02*
G01X20066Y10617D01*
G01X20066Y10414D01*
G01X20066Y8636D02*
G01X20066Y8077D01*
G01X20066Y7874D01*
G01X20066Y6096D02*
G01X20066Y5537D01*
G01X20066Y5334D01*
G01X20066Y3556D02*
G01X20066Y2997D01*
G01X20066Y2794D01*
G01X20066Y889D02*
G01X20066Y127D01*
G01X20066Y20193D02*
G01X20066Y19685D01*
G01X18034Y571D02*
G01X18034Y444D01*
G01X18034Y1079D02*
G01X18034Y952D01*
G01X18034Y1587D02*
G01X18034Y1460D01*
G54D46*
G01X32037Y4224D02*
G01X32037Y4475D01*
G01X33235Y4224D02*
G01X33235Y4475D01*
G01X37117Y4224D02*
G01X37117Y4475D01*
G01X38315Y4224D02*
G01X38315Y4475D01*
G01X28989Y8288D02*
G01X28989Y8539D01*
G01X30187Y8288D02*
G01X30187Y8539D01*
G01X32037Y8288D02*
G01X32037Y8539D01*
G01X33235Y8288D02*
G01X33235Y8539D01*
G01X14025Y11449D02*
G01X13774Y11449D01*
G01X14025Y12647D02*
G01X13774Y12647D01*
G01X30513Y8288D02*
G01X30513Y8539D01*
G01X31711Y8288D02*
G01X31711Y8539D01*
G01X12650Y14130D02*
G01X12650Y14381D01*
G01X13849Y14130D02*
G01X13849Y14381D01*
G54D47*
G01X32202Y1615D02*
G01X32453Y1615D01*
G01X32202Y416D02*
G01X32453Y416D01*
G54D46*
G01X14025Y15781D02*
G01X13774Y15781D01*
G01X14025Y16979D02*
G01X13774Y16979D01*
G01X14444Y6443D02*
G01X14444Y6192D01*
G01X13246Y6443D02*
G01X13246Y6192D01*
G01X15968Y6443D02*
G01X15968Y6192D01*
G01X14770Y6443D02*
G01X14770Y6192D01*
G01X17492Y6443D02*
G01X17492Y6192D01*
G01X16294Y6443D02*
G01X16294Y6192D01*
G01X23909Y17432D02*
G01X23909Y17683D01*
G01X25107Y17432D02*
G01X25107Y17683D01*
G01X25433Y17432D02*
G01X25433Y17683D01*
G01X26631Y17432D02*
G01X26631Y17683D01*
G01X22385Y17432D02*
G01X22385Y17683D01*
G01X23583Y17432D02*
G01X23583Y17683D01*
G01X1744Y6697D02*
G01X1744Y6446D01*
G01X546Y6697D02*
G01X546Y6446D01*
G01X1744Y9491D02*
G01X1744Y9240D01*
G01X546Y9491D02*
G01X546Y9240D01*
G01X14444Y9237D02*
G01X14444Y8986D01*
G01X13246Y9237D02*
G01X13246Y8986D01*
G54D48*
G01X37647Y7520D02*
G01X37548Y7520D01*
G01X34597Y9271D02*
G01X34696Y9271D01*
G01X34698Y7569D02*
G01X34599Y7569D01*
G01X37548Y9271D02*
G01X37647Y9271D01*
G54D46*
G01X33425Y16797D02*
G01X33173Y16797D01*
G01X33425Y17995D02*
G01X33173Y17995D01*
G01X33181Y13936D02*
G01X33432Y13936D01*
G01X33181Y12738D02*
G01X33432Y12738D01*
G01X33181Y11904D02*
G01X33432Y11904D01*
G01X33181Y10706D02*
G01X33432Y10706D01*
G54D10*
G01X28218Y6284D02*
G01X28218Y5684D01*
G01X20418Y6184D02*
G01X20418Y5684D01*
G01X24618Y9884D02*
G01X24018Y9884D01*
G01X24818Y2084D02*
G01X24218Y2084D01*
G54D46*
G01X25432Y11844D02*
G01X25431Y12095D01*
G01X26632Y11844D02*
G01X26631Y12095D01*
G01X22384Y11844D02*
G01X22383Y12095D01*
G01X23584Y11844D02*
G01X23583Y12095D01*
G01X23908Y11844D02*
G01X23907Y12095D01*
G01X25108Y11844D02*
G01X25107Y12095D01*
G54D49*
G01X16391Y18037D02*
G01X17791Y18037D01*
G54D46*
G01X29303Y398D02*
G01X29052Y397D01*
G01X29303Y1598D02*
G01X29052Y1597D01*
G54D47*
G01X13953Y1983D02*
G01X13953Y1732D01*
G01X12754Y1983D02*
G01X12754Y1732D01*
G54D46*
G01X17493Y3395D02*
G01X17494Y3144D01*
G01X16293Y3395D02*
G01X16294Y3144D01*
G01X17493Y9237D02*
G01X17494Y8986D01*
G01X16293Y9237D02*
G01X16294Y8986D01*
G54D49*
G01X4422Y10307D02*
G01X10322Y10307D01*
G01X10322Y4406D01*
G01X4422Y4406D01*
G01X4422Y10307D01*
G54D46*
G01X15715Y3395D02*
G01X15716Y3144D01*
G01X14515Y3395D02*
G01X14516Y3144D01*
G54D49*
G01X3599Y3698D02*
G01X3698Y3698D01*
G01X3698Y2397D01*
G01X3599Y2397D01*
G01X599Y3698D02*
G01X500Y3698D01*
G01X500Y2397D01*
G01X599Y2397D01*
G54D10*
G01X29974Y20320D02*
G01X29974Y19812D01*
G01X38102Y10160D02*
G01X38864Y10160D01*
G01X38864Y10922D01*
G01X29974Y10668D02*
G01X29974Y10160D01*
G01X30736Y10160D01*
G01X38102Y20320D02*
G01X38864Y20320D01*
G01X38864Y19812D01*
G01X29974Y20320D02*
G01X29974Y20320D01*
G01X30990Y20320D01*
G54D46*
G01X15969Y9237D02*
G01X15970Y8986D01*
G01X14769Y9237D02*
G01X14770Y8986D01*
G01X33180Y16223D02*
G01X33431Y16224D01*
G01X33180Y15023D02*
G01X33431Y15024D01*
G01X33180Y20033D02*
G01X33431Y20034D01*
G01X33180Y18833D02*
G01X33431Y18834D01*
G54D10*
G01X28323Y18508D02*
G01X27462Y18508D01*
G01X28323Y18795D02*
G01X28323Y18224D01*
G01X28486Y17218D02*
G01X27178Y17952D01*
G01X28323Y16946D02*
G01X27462Y16946D01*
G01X28323Y16375D02*
G01X27462Y16375D01*
G01X27914Y16946D02*
G01X27914Y16375D01*
G01X31338Y5079D02*
G01X30726Y5079D01*
G01X30601Y5039D01*
G01X30520Y4958D01*
G01X30479Y4833D01*
G01X30479Y4752D01*
G01X30520Y4630D01*
G01X30601Y4549D01*
G01X30726Y4508D01*
G01X31338Y4508D01*
G01X31338Y4236D02*
G01X30479Y3909D01*
G01X31338Y3583D02*
G01X30479Y3909D01*
G01X944Y2232D02*
G01X944Y1468D01*
G01X944Y1869D02*
G01X871Y1940D01*
G01X800Y1978D01*
G01X690Y1978D01*
G01X617Y1940D01*
G01X543Y1869D01*
G01X508Y1760D01*
G01X508Y1686D01*
G01X543Y1577D01*
G01X617Y1503D01*
G01X690Y1468D01*
G01X800Y1468D01*
G01X871Y1503D01*
G01X944Y1577D01*
G01X1546Y2232D02*
G01X1183Y1722D01*
G01X1729Y1722D01*
G01X1546Y2232D02*
G01X1546Y1468D01*
G01X1777Y15494D02*
G01X1777Y14444D01*
G01X1777Y15494D02*
G01X2179Y14444D01*
G01X2578Y15494D02*
G01X2179Y14444D01*
G01X2578Y15494D02*
G01X2578Y14444D01*
G01X2959Y15143D02*
G01X3258Y14444D01*
G01X3558Y15143D02*
G01X3258Y14444D01*
G01X3159Y14244D01*
G01X3058Y14145D01*
G01X2959Y14094D01*
G01X2908Y14094D01*
G01X4589Y15344D02*
G01X4488Y15445D01*
G01X4338Y15494D01*
G01X4140Y15494D01*
G01X3987Y15445D01*
G01X3888Y15344D01*
G01X3888Y15245D01*
G01X3939Y15143D01*
G01X3987Y15095D01*
G01X4089Y15044D01*
G01X4389Y14945D01*
G01X4488Y14894D01*
G01X4538Y14843D01*
G01X4589Y14744D01*
G01X4589Y14594D01*
G01X4488Y14495D01*
G01X4338Y14444D01*
G01X4140Y14444D01*
G01X3987Y14495D01*
G01X3888Y14594D01*
G01X4919Y14843D02*
G01X5519Y14843D01*
G01X5519Y14945D01*
G01X5468Y15044D01*
G01X5417Y15095D01*
G01X5318Y15143D01*
G01X5168Y15143D01*
G01X5069Y15095D01*
G01X4968Y14993D01*
G01X4919Y14843D01*
G01X4919Y14744D01*
G01X4968Y14594D01*
G01X5069Y14495D01*
G01X5168Y14444D01*
G01X5318Y14444D01*
G01X5417Y14495D01*
G01X5519Y14594D01*
G01X5849Y15143D02*
G01X5849Y14444D01*
G01X5849Y14945D02*
G01X5999Y15095D01*
G01X6098Y15143D01*
G01X6248Y15143D01*
G01X6349Y15095D01*
G01X6398Y14945D01*
G01X6398Y14444D01*
G01X7279Y14993D02*
G01X7228Y15095D01*
G01X7078Y15143D01*
G01X6929Y15143D01*
G01X6779Y15095D01*
G01X6728Y14993D01*
G01X6779Y14894D01*
G01X6878Y14843D01*
G01X7129Y14795D01*
G01X7228Y14744D01*
G01X7279Y14645D01*
G01X7279Y14594D01*
G01X7228Y14495D01*
G01X7078Y14444D01*
G01X6929Y14444D01*
G01X6779Y14495D01*
G01X6728Y14594D01*
G01X7858Y15143D02*
G01X7759Y15095D01*
G01X7658Y14993D01*
G01X7609Y14843D01*
G01X7609Y14744D01*
G01X7658Y14594D01*
G01X7759Y14495D01*
G01X7858Y14444D01*
G01X8008Y14444D01*
G01X8110Y14495D01*
G01X8209Y14594D01*
G01X8260Y14744D01*
G01X8260Y14843D01*
G01X8209Y14993D01*
G01X8110Y15095D01*
G01X8008Y15143D01*
G01X7858Y15143D01*
G01X8587Y15143D02*
G01X8587Y14444D01*
G01X8587Y14843D02*
G01X8638Y14993D01*
G01X8740Y15095D01*
G01X8839Y15143D01*
G01X8989Y15143D01*
G01X9867Y14993D02*
G01X9819Y15095D01*
G01X9669Y15143D01*
G01X9519Y15143D01*
G01X9370Y15095D01*
G01X9319Y14993D01*
G01X9370Y14894D01*
G01X9469Y14843D01*
G01X9718Y14795D01*
G01X9819Y14744D01*
G01X9867Y14645D01*
G01X9867Y14594D01*
G01X9819Y14495D01*
G01X9669Y14444D01*
G01X9519Y14444D01*
G01X9370Y14495D01*
G01X9319Y14594D01*
G01X10414Y13779D02*
G01X10576Y13395D01*
G01X10741Y13779D02*
G01X10576Y13395D01*
G01X10922Y13860D02*
G01X10975Y13888D01*
G01X11056Y13970D01*
G01X11056Y13395D01*
G01X11264Y13533D02*
G01X11236Y13505D01*
G01X11264Y13479D01*
G01X11292Y13505D01*
G01X11264Y13533D01*
G01X11607Y13970D02*
G01X11526Y13942D01*
G01X11498Y13888D01*
G01X11498Y13832D01*
G01X11526Y13779D01*
G01X11582Y13751D01*
G01X11691Y13723D01*
G01X11772Y13695D01*
G01X11826Y13642D01*
G01X11854Y13589D01*
G01X11854Y13505D01*
G01X11826Y13451D01*
G01X11798Y13423D01*
G01X11717Y13395D01*
G01X11607Y13395D01*
G01X11526Y13423D01*
G01X11498Y13451D01*
G01X11473Y13505D01*
G01X11473Y13589D01*
G01X11498Y13642D01*
G01X11554Y13695D01*
G01X11635Y13723D01*
G01X11744Y13751D01*
G01X11798Y13779D01*
G01X11826Y13832D01*
G01X11826Y13888D01*
G01X11798Y13942D01*
G01X11717Y13970D01*
G01X11607Y13970D01*
G01X3230Y2232D02*
G01X3230Y1468D01*
G01X3230Y1869D02*
G01X3157Y1940D01*
G01X3086Y1978D01*
G01X2976Y1978D01*
G01X2903Y1940D01*
G01X2829Y1869D01*
G01X2794Y1760D01*
G01X2794Y1686D01*
G01X2829Y1577D01*
G01X2903Y1503D01*
G01X2976Y1468D01*
G01X3086Y1468D01*
G01X3157Y1503D01*
G01X3230Y1577D01*
G01X3906Y2232D02*
G01X3543Y2232D01*
G01X3507Y1905D01*
G01X3543Y1940D01*
G01X3652Y1978D01*
G01X3761Y1978D01*
G01X3870Y1940D01*
G01X3942Y1869D01*
G01X3980Y1760D01*
G01X3980Y1686D01*
G01X3942Y1577D01*
G01X3870Y1503D01*
G01X3761Y1468D01*
G01X3652Y1468D01*
G01X3543Y1503D01*
G01X3507Y1541D01*
G01X3469Y1612D01*
G01X5770Y2214D02*
G01X5770Y1450D01*
G01X5770Y1851D02*
G01X5697Y1922D01*
G01X5626Y1960D01*
G01X5516Y1960D01*
G01X5443Y1922D01*
G01X5369Y1851D01*
G01X5334Y1742D01*
G01X5334Y1668D01*
G01X5369Y1559D01*
G01X5443Y1485D01*
G01X5516Y1450D01*
G01X5626Y1450D01*
G01X5697Y1485D01*
G01X5770Y1559D01*
G01X6446Y2105D02*
G01X6410Y2176D01*
G01X6301Y2214D01*
G01X6228Y2214D01*
G01X6118Y2176D01*
G01X6047Y2070D01*
G01X6009Y1887D01*
G01X6009Y1704D01*
G01X6047Y1559D01*
G01X6118Y1485D01*
G01X6228Y1450D01*
G01X6263Y1450D01*
G01X6372Y1485D01*
G01X6446Y1559D01*
G01X6482Y1668D01*
G01X6482Y1704D01*
G01X6446Y1813D01*
G01X6372Y1887D01*
G01X6263Y1922D01*
G01X6228Y1922D01*
G01X6118Y1887D01*
G01X6047Y1813D01*
G01X6009Y1704D01*
G01X8310Y2214D02*
G01X8310Y1450D01*
G01X8310Y1851D02*
G01X8237Y1922D01*
G01X8166Y1960D01*
G01X8056Y1960D01*
G01X7983Y1922D01*
G01X7909Y1851D01*
G01X7874Y1742D01*
G01X7874Y1668D01*
G01X7909Y1559D01*
G01X7983Y1485D01*
G01X8056Y1450D01*
G01X8166Y1450D01*
G01X8237Y1485D01*
G01X8310Y1559D01*
G01X9060Y2214D02*
G01X8696Y1450D01*
G01X8549Y2214D02*
G01X9060Y2214D01*
G01X11104Y2286D02*
G01X11104Y1521D01*
G01X11104Y1922D02*
G01X11031Y1993D01*
G01X10960Y2032D01*
G01X10850Y2032D01*
G01X10777Y1993D01*
G01X10703Y1922D01*
G01X10668Y1813D01*
G01X10668Y1739D01*
G01X10703Y1630D01*
G01X10777Y1557D01*
G01X10850Y1521D01*
G01X10960Y1521D01*
G01X11031Y1557D01*
G01X11104Y1630D01*
G01X11526Y2286D02*
G01X11417Y2247D01*
G01X11381Y2176D01*
G01X11381Y2103D01*
G01X11417Y2032D01*
G01X11490Y1993D01*
G01X11635Y1958D01*
G01X11744Y1922D01*
G01X11816Y1849D01*
G01X11854Y1775D01*
G01X11854Y1666D01*
G01X11816Y1595D01*
G01X11780Y1557D01*
G01X11671Y1521D01*
G01X11526Y1521D01*
G01X11417Y1557D01*
G01X11381Y1595D01*
G01X11343Y1666D01*
G01X11343Y1775D01*
G01X11381Y1849D01*
G01X11452Y1922D01*
G01X11562Y1958D01*
G01X11706Y1993D01*
G01X11780Y2032D01*
G01X11816Y2103D01*
G01X11816Y2176D01*
G01X11780Y2247D01*
G01X11671Y2286D01*
G01X11526Y2286D01*
G01X19255Y762D02*
G01X18681Y515D01*
G01X19255Y271D02*
G01X18681Y515D01*
G01X19403Y2811D02*
G01X18747Y2811D01*
G01X18625Y2852D01*
G01X18582Y2893D01*
G01X18541Y2974D01*
G01X18541Y3096D01*
G01X18582Y3180D01*
G01X19278Y2811D02*
G01X19359Y2893D01*
G01X19403Y2974D01*
G01X19403Y3096D01*
G01X19359Y3180D01*
G01X19278Y3261D01*
G01X19156Y3302D01*
G01X19075Y3302D01*
G01X18950Y3261D01*
G01X18869Y3180D01*
G01X18828Y3096D01*
G01X18828Y2974D01*
G01X18869Y2893D01*
G01X18950Y2811D01*
G01X19400Y5588D02*
G01X18541Y5588D01*
G01X19370Y7891D02*
G01X18795Y7891D01*
G01X19245Y7891D02*
G01X19326Y7973D01*
G01X19370Y8054D01*
G01X19370Y8176D01*
G01X19326Y8260D01*
G01X19245Y8341D01*
G01X19123Y8382D01*
G01X19042Y8382D01*
G01X18917Y8341D01*
G01X18836Y8260D01*
G01X18795Y8176D01*
G01X18795Y8054D01*
G01X18836Y7973D01*
G01X18917Y7891D01*
G01X19400Y10840D02*
G01X19400Y10391D01*
G01X19072Y10634D01*
G01X19072Y10513D01*
G01X19032Y10431D01*
G01X18991Y10391D01*
G01X18869Y10350D01*
G01X18788Y10350D01*
G01X18663Y10391D01*
G01X18582Y10472D01*
G01X18542Y10594D01*
G01X18542Y10716D01*
G01X18582Y10840D01*
G01X18623Y10881D01*
G01X18704Y10922D01*
G01X19451Y13421D02*
G01X19491Y13421D01*
G01X19573Y13380D01*
G01X19613Y13340D01*
G01X19654Y13256D01*
G01X19654Y13093D01*
G01X19613Y13012D01*
G01X19573Y12971D01*
G01X19491Y12931D01*
G01X19410Y12931D01*
G01X19326Y12971D01*
G01X19204Y13053D01*
G01X18795Y13462D01*
G01X18795Y12890D01*
G01X19418Y15633D02*
G01X18681Y15633D01*
G01X19050Y16002D02*
G01X19050Y15265D01*
G01X19050Y18796D02*
G01X19050Y18059D01*
G01X26652Y1524D02*
G01X26652Y665D01*
G01X26652Y1115D02*
G01X26570Y1196D01*
G01X26489Y1239D01*
G01X26367Y1239D01*
G01X26283Y1196D01*
G01X26202Y1115D01*
G01X26162Y993D01*
G01X26162Y911D01*
G01X26202Y787D01*
G01X26283Y706D01*
G01X26367Y665D01*
G01X26489Y665D01*
G01X26570Y706D01*
G01X26652Y787D01*
G01X27005Y1524D02*
G01X27454Y1524D01*
G01X27208Y1196D01*
G01X27332Y1196D01*
G01X27414Y1155D01*
G01X27454Y1115D01*
G01X27495Y993D01*
G01X27495Y911D01*
G01X27454Y787D01*
G01X27373Y706D01*
G01X27249Y665D01*
G01X27127Y665D01*
G01X27005Y706D01*
G01X26964Y746D01*
G01X26924Y828D01*
G01X28290Y13716D02*
G01X27432Y13716D01*
G01X28290Y13716D02*
G01X28290Y13347D01*
G01X28249Y13225D01*
G01X28209Y13185D01*
G01X28128Y13144D01*
G01X28046Y13144D01*
G01X27962Y13185D01*
G01X27922Y13225D01*
G01X27881Y13347D01*
G01X27881Y13716D02*
G01X27881Y13347D01*
G01X27840Y13225D01*
G01X27800Y13185D01*
G01X27719Y13144D01*
G01X27594Y13144D01*
G01X27513Y13185D01*
G01X27472Y13225D01*
G01X27432Y13347D01*
G01X27432Y13716D01*
G01X28290Y12872D02*
G01X27432Y12872D01*
G01X28290Y12872D02*
G01X27432Y12545D01*
G01X28290Y12219D02*
G01X27432Y12545D01*
G01X28290Y12219D02*
G01X27432Y12219D01*
G01X28290Y11948D02*
G01X27432Y11948D01*
G01X28290Y11948D02*
G01X28290Y11417D01*
G01X27881Y11948D02*
G01X27881Y11620D01*
G01X27432Y11948D02*
G01X27432Y11417D01*
G01X28290Y9398D02*
G01X27432Y9398D01*
G01X27432Y9398D02*
G01X27432Y8907D01*
G01X28290Y8636D02*
G01X27678Y8636D01*
G01X27553Y8595D01*
G01X27472Y8514D01*
G01X27432Y8392D01*
G01X27432Y8310D01*
G01X27472Y8186D01*
G01X27553Y8105D01*
G01X27678Y8064D01*
G01X28290Y8064D01*
G01X28290Y7795D02*
G01X27432Y7221D01*
G01X28290Y7221D02*
G01X27432Y7795D01*
G01X23622Y6350D02*
G01X23622Y5491D01*
G01X23622Y6350D02*
G01X23990Y6350D01*
G01X24112Y6309D01*
G01X24152Y6268D01*
G01X24193Y6187D01*
G01X24193Y6065D01*
G01X24152Y5981D01*
G01X24112Y5941D01*
G01X23990Y5900D01*
G01X23622Y5900D01*
G01X24465Y6350D02*
G01X24465Y5491D01*
G01X24734Y6350D02*
G01X24734Y5491D01*
G01X24734Y6350D02*
G01X25102Y6350D01*
G01X25224Y6309D01*
G01X25265Y6268D01*
G01X25308Y6187D01*
G01X25308Y6106D01*
G01X25265Y6022D01*
G01X25224Y5981D01*
G01X25102Y5941D01*
G01X24734Y5941D01*
G01X25021Y5941D02*
G01X25308Y5491D01*
G01X21081Y16692D02*
G01X21940Y16692D01*
G01X21490Y16692D02*
G01X21409Y16774D01*
G01X21366Y16855D01*
G01X21366Y16979D01*
G01X21409Y17061D01*
G01X21490Y17142D01*
G01X21612Y17183D01*
G01X21694Y17183D01*
G01X21818Y17142D01*
G01X21899Y17061D01*
G01X21940Y16979D01*
G01X21940Y16855D01*
G01X21899Y16774D01*
G01X21818Y16692D01*
G01X21366Y17945D02*
G01X21940Y17945D01*
G01X21490Y17945D02*
G01X21409Y17863D01*
G01X21366Y17780D01*
G01X21366Y17658D01*
G01X21409Y17576D01*
G01X21490Y17495D01*
G01X21612Y17454D01*
G01X21694Y17454D01*
G01X21818Y17495D01*
G01X21899Y17576D01*
G01X21940Y17658D01*
G01X21940Y17780D01*
G01X21899Y17863D01*
G01X21818Y17945D01*
G01X21081Y18336D02*
G01X21777Y18336D01*
G01X21899Y18379D01*
G01X21940Y18460D01*
G01X21940Y18542D01*
G01X21366Y18214D02*
G01X21366Y18501D01*
G54D50*
G75*
G01X33782Y5588D02*
G03X33782Y5588I0J0D01*
G01*
G54D51*
G75*
G01X16117Y16537D02*
G03X16086Y16455I-125J0D01*
G01*
G54D52*
G75*
G01X5122Y9307D02*
G03X5141Y9412I300J0D01*
G01*
G54D51*
G75*
G01X3372Y11132D02*
G03X3403Y11214I125J0D01*
G01*
G75*
G01X3556Y4064D02*
G03X3474Y4094I0J125D01*
G01*
G54D17*
G75*
G01X38125Y7287D02*
G03X38125Y7287I-150J0D01*
G01*
G54D10*
G75*
G01X17466Y13086D02*
G03X17466Y13086I-127J0D01*
G01*
G54D11*
G75*
G01X35720Y14330D02*
G03X35720Y14330I-160J0D01*
G01*
G54D10*
G75*
G01X35559Y15748D02*
G03X35559Y15748I-254J0D01*
G01*
G36*
G01X6166Y20372D02*
G01X6175Y20372D01*
G01X6175Y20363D01*
G01X6166Y20363D01*
G01X6166Y20372D01*
G37*
G36*
G01X6148Y20372D02*
G01X6157Y20372D01*
G01X6157Y20363D01*
G01X6148Y20363D01*
G01X6148Y20372D01*
G37*
G36*
G01X6131Y20372D02*
G01X6139Y20372D01*
G01X6139Y20363D01*
G01X6131Y20363D01*
G01X6131Y20372D01*
G37*
G36*
G01X6113Y20372D02*
G01X6122Y20372D01*
G01X6122Y20363D01*
G01X6113Y20363D01*
G01X6113Y20372D01*
G37*
G36*
G01X6095Y20372D02*
G01X6104Y20372D01*
G01X6104Y20363D01*
G01X6095Y20363D01*
G01X6095Y20372D01*
G37*
G36*
G01X6077Y20372D02*
G01X6086Y20372D01*
G01X6086Y20363D01*
G01X6077Y20363D01*
G01X6077Y20372D01*
G37*
G36*
G01X6059Y20372D02*
G01X6068Y20372D01*
G01X6068Y20363D01*
G01X6059Y20363D01*
G01X6059Y20372D01*
G37*
G36*
G01X6042Y20372D02*
G01X6051Y20372D01*
G01X6051Y20363D01*
G01X6042Y20363D01*
G01X6042Y20372D01*
G37*
G36*
G01X6024Y20372D02*
G01X6033Y20372D01*
G01X6033Y20363D01*
G01X6024Y20363D01*
G01X6024Y20372D01*
G37*
G36*
G01X6006Y20372D02*
G01X6015Y20372D01*
G01X6015Y20363D01*
G01X6006Y20363D01*
G01X6006Y20372D01*
G37*
G36*
G01X5988Y20372D02*
G01X5997Y20372D01*
G01X5997Y20363D01*
G01X5988Y20363D01*
G01X5988Y20372D01*
G37*
G36*
G01X5971Y20372D02*
G01X5979Y20372D01*
G01X5979Y20363D01*
G01X5971Y20363D01*
G01X5971Y20372D01*
G37*
G36*
G01X5953Y20372D02*
G01X5962Y20372D01*
G01X5962Y20363D01*
G01X5953Y20363D01*
G01X5953Y20372D01*
G37*
G36*
G01X5935Y20372D02*
G01X5944Y20372D01*
G01X5944Y20363D01*
G01X5935Y20363D01*
G01X5935Y20372D01*
G37*
G36*
G01X5917Y20372D02*
G01X5926Y20372D01*
G01X5926Y20363D01*
G01X5917Y20363D01*
G01X5917Y20372D01*
G37*
G36*
G01X5899Y20372D02*
G01X5908Y20372D01*
G01X5908Y20363D01*
G01X5899Y20363D01*
G01X5899Y20372D01*
G37*
G36*
G01X5882Y20372D02*
G01X5891Y20372D01*
G01X5891Y20363D01*
G01X5882Y20363D01*
G01X5882Y20372D01*
G37*
G36*
G01X5864Y20372D02*
G01X5873Y20372D01*
G01X5873Y20363D01*
G01X5864Y20363D01*
G01X5864Y20372D01*
G37*
G36*
G01X5846Y20372D02*
G01X5855Y20372D01*
G01X5855Y20363D01*
G01X5846Y20363D01*
G01X5846Y20372D01*
G37*
G36*
G01X5828Y20372D02*
G01X5837Y20372D01*
G01X5837Y20363D01*
G01X5828Y20363D01*
G01X5828Y20372D01*
G37*
G36*
G01X5811Y20372D02*
G01X5819Y20372D01*
G01X5819Y20363D01*
G01X5811Y20363D01*
G01X5811Y20372D01*
G37*
G36*
G01X5793Y20372D02*
G01X5802Y20372D01*
G01X5802Y20363D01*
G01X5793Y20363D01*
G01X5793Y20372D01*
G37*
G36*
G01X5775Y20372D02*
G01X5784Y20372D01*
G01X5784Y20363D01*
G01X5775Y20363D01*
G01X5775Y20372D01*
G37*
G36*
G01X5757Y20372D02*
G01X5766Y20372D01*
G01X5766Y20363D01*
G01X5757Y20363D01*
G01X5757Y20372D01*
G37*
G36*
G01X5739Y20372D02*
G01X5748Y20372D01*
G01X5748Y20363D01*
G01X5739Y20363D01*
G01X5739Y20372D01*
G37*
G36*
G01X5722Y20372D02*
G01X5731Y20372D01*
G01X5731Y20363D01*
G01X5722Y20363D01*
G01X5722Y20372D01*
G37*
G36*
G01X5704Y20372D02*
G01X5713Y20372D01*
G01X5713Y20363D01*
G01X5704Y20363D01*
G01X5704Y20372D01*
G37*
G36*
G01X5686Y20372D02*
G01X5695Y20372D01*
G01X5695Y20363D01*
G01X5686Y20363D01*
G01X5686Y20372D01*
G37*
G36*
G01X5668Y20372D02*
G01X5677Y20372D01*
G01X5677Y20363D01*
G01X5668Y20363D01*
G01X5668Y20372D01*
G37*
G36*
G01X5650Y20372D02*
G01X5659Y20372D01*
G01X5659Y20363D01*
G01X5650Y20363D01*
G01X5650Y20372D01*
G37*
G36*
G01X5633Y20372D02*
G01X5642Y20372D01*
G01X5642Y20363D01*
G01X5633Y20363D01*
G01X5633Y20372D01*
G37*
G36*
G01X5615Y20372D02*
G01X5624Y20372D01*
G01X5624Y20363D01*
G01X5615Y20363D01*
G01X5615Y20372D01*
G37*
G36*
G01X5597Y20372D02*
G01X5606Y20372D01*
G01X5606Y20363D01*
G01X5597Y20363D01*
G01X5597Y20372D01*
G37*
G36*
G01X5579Y20372D02*
G01X5588Y20372D01*
G01X5588Y20363D01*
G01X5579Y20363D01*
G01X5579Y20372D01*
G37*
G36*
G01X5562Y20372D02*
G01X5570Y20372D01*
G01X5570Y20363D01*
G01X5562Y20363D01*
G01X5562Y20372D01*
G37*
G36*
G01X5544Y20372D02*
G01X5553Y20372D01*
G01X5553Y20363D01*
G01X5544Y20363D01*
G01X5544Y20372D01*
G37*
G36*
G01X5526Y20372D02*
G01X5535Y20372D01*
G01X5535Y20363D01*
G01X5526Y20363D01*
G01X5526Y20372D01*
G37*
G36*
G01X5508Y20372D02*
G01X5517Y20372D01*
G01X5517Y20363D01*
G01X5508Y20363D01*
G01X5508Y20372D01*
G37*
G36*
G01X5490Y20363D02*
G01X6184Y20363D01*
G01X6184Y20354D01*
G01X5490Y20354D01*
G01X5490Y20363D01*
G37*
G36*
G01X5473Y20354D02*
G01X6202Y20354D01*
G01X6202Y20345D01*
G01X5473Y20345D01*
G01X5473Y20354D01*
G37*
G36*
G01X5473Y20345D02*
G01X6202Y20345D01*
G01X6202Y20336D01*
G01X5473Y20336D01*
G01X5473Y20345D01*
G37*
G36*
G01X5473Y20336D02*
G01X6211Y20336D01*
G01X6211Y20327D01*
G01X5473Y20327D01*
G01X5473Y20336D01*
G37*
G36*
G01X5473Y20327D02*
G01X6202Y20327D01*
G01X6202Y20318D01*
G01X5473Y20318D01*
G01X5473Y20327D01*
G37*
G36*
G01X5473Y20318D02*
G01X6211Y20318D01*
G01X6211Y20309D01*
G01X5473Y20309D01*
G01X5473Y20318D01*
G37*
G36*
G01X5464Y20309D02*
G01X6211Y20309D01*
G01X6211Y20300D01*
G01X5464Y20300D01*
G01X5464Y20309D01*
G37*
G36*
G01X5464Y20300D02*
G01X6211Y20300D01*
G01X6211Y20292D01*
G01X5464Y20292D01*
G01X5464Y20300D01*
G37*
G36*
G01X5464Y20292D02*
G01X6219Y20292D01*
G01X6219Y20283D01*
G01X5464Y20283D01*
G01X5464Y20292D01*
G37*
G36*
G01X5455Y20283D02*
G01X6219Y20283D01*
G01X6219Y20274D01*
G01X5455Y20274D01*
G01X5455Y20283D01*
G37*
G36*
G01X5464Y20274D02*
G01X6219Y20274D01*
G01X6219Y20265D01*
G01X5464Y20265D01*
G01X5464Y20274D01*
G37*
G36*
G01X5455Y20265D02*
G01X6228Y20265D01*
G01X6228Y20256D01*
G01X5455Y20256D01*
G01X5455Y20265D01*
G37*
G36*
G01X5464Y20256D02*
G01X6219Y20256D01*
G01X6219Y20247D01*
G01X5464Y20247D01*
G01X5464Y20256D01*
G37*
G36*
G01X5455Y20247D02*
G01X6228Y20247D01*
G01X6228Y20238D01*
G01X5455Y20238D01*
G01X5455Y20247D01*
G37*
G36*
G01X5455Y20238D02*
G01X6219Y20238D01*
G01X6219Y20229D01*
G01X5455Y20229D01*
G01X5455Y20238D01*
G37*
G36*
G01X5455Y20229D02*
G01X6228Y20229D01*
G01X6228Y20220D01*
G01X5455Y20220D01*
G01X5455Y20229D01*
G37*
G36*
G01X5446Y20220D02*
G01X6228Y20220D01*
G01X6228Y20212D01*
G01X5446Y20212D01*
G01X5446Y20220D01*
G37*
G36*
G01X5446Y20212D02*
G01X6228Y20212D01*
G01X6228Y20203D01*
G01X5446Y20203D01*
G01X5446Y20212D01*
G37*
G36*
G01X5446Y20203D02*
G01X6237Y20203D01*
G01X6237Y20194D01*
G01X5446Y20194D01*
G01X5446Y20203D01*
G37*
G36*
G01X5437Y20194D02*
G01X6237Y20194D01*
G01X6237Y20185D01*
G01X5437Y20185D01*
G01X5437Y20194D01*
G37*
G36*
G01X5446Y20185D02*
G01X6237Y20185D01*
G01X6237Y20176D01*
G01X5446Y20176D01*
G01X5446Y20185D01*
G37*
G36*
G01X5437Y20176D02*
G01X6237Y20176D01*
G01X6237Y20167D01*
G01X5437Y20167D01*
G01X5437Y20176D01*
G37*
G36*
G01X5446Y20167D02*
G01X6237Y20167D01*
G01X6237Y20158D01*
G01X5446Y20158D01*
G01X5446Y20167D01*
G37*
G36*
G01X5437Y20158D02*
G01X6246Y20158D01*
G01X6246Y20149D01*
G01X5437Y20149D01*
G01X5437Y20158D01*
G37*
G36*
G01X5437Y20149D02*
G01X6237Y20149D01*
G01X6237Y20140D01*
G01X5437Y20140D01*
G01X5437Y20149D01*
G37*
G36*
G01X5437Y20140D02*
G01X6246Y20140D01*
G01X6246Y20132D01*
G01X5437Y20132D01*
G01X5437Y20140D01*
G37*
G36*
G01X5428Y20132D02*
G01X6246Y20132D01*
G01X6246Y20123D01*
G01X5428Y20123D01*
G01X5428Y20132D01*
G37*
G36*
G01X5428Y20123D02*
G01X6246Y20123D01*
G01X6246Y20114D01*
G01X5428Y20114D01*
G01X5428Y20123D01*
G37*
G36*
G01X5428Y20114D02*
G01X6246Y20114D01*
G01X6246Y20105D01*
G01X5428Y20105D01*
G01X5428Y20114D01*
G37*
G36*
G01X5428Y20105D02*
G01X6246Y20105D01*
G01X6246Y20096D01*
G01X5428Y20096D01*
G01X5428Y20105D01*
G37*
G36*
G01X5428Y20096D02*
G01X6255Y20096D01*
G01X6255Y20087D01*
G01X5428Y20087D01*
G01X5428Y20096D01*
G37*
G36*
G01X5419Y20087D02*
G01X6255Y20087D01*
G01X6255Y20078D01*
G01X5419Y20078D01*
G01X5419Y20087D01*
G37*
G36*
G01X5428Y20078D02*
G01X6255Y20078D01*
G01X6255Y20069D01*
G01X5428Y20069D01*
G01X5428Y20078D01*
G37*
G36*
G01X5419Y20069D02*
G01X6264Y20069D01*
G01X6264Y20060D01*
G01X5419Y20060D01*
G01X5419Y20069D01*
G37*
G36*
G01X5419Y20060D02*
G01X6255Y20060D01*
G01X6255Y20052D01*
G01X5419Y20052D01*
G01X5419Y20060D01*
G37*
G36*
G01X5419Y20052D02*
G01X6264Y20052D01*
G01X6264Y20043D01*
G01X5419Y20043D01*
G01X5419Y20052D01*
G37*
G36*
G01X5410Y20043D02*
G01X6255Y20043D01*
G01X6255Y20034D01*
G01X5410Y20034D01*
G01X5410Y20043D01*
G37*
G36*
G01X5419Y20034D02*
G01X6264Y20034D01*
G01X6264Y20025D01*
G01X5419Y20025D01*
G01X5419Y20034D01*
G37*
G36*
G01X5410Y20025D02*
G01X6264Y20025D01*
G01X6264Y20016D01*
G01X5410Y20016D01*
G01X5410Y20025D01*
G37*
G36*
G01X5410Y20016D02*
G01X6264Y20016D01*
G01X6264Y20007D01*
G01X5410Y20007D01*
G01X5410Y20016D01*
G37*
G36*
G01X5410Y20007D02*
G01X6273Y20007D01*
G01X6273Y19998D01*
G01X5410Y19998D01*
G01X5410Y20007D01*
G37*
G36*
G01X5402Y19998D02*
G01X6264Y19998D01*
G01X6264Y19989D01*
G01X5402Y19989D01*
G01X5402Y19998D01*
G37*
G36*
G01X5410Y19989D02*
G01X6273Y19989D01*
G01X6273Y19980D01*
G01X5410Y19980D01*
G01X5410Y19989D01*
G37*
G36*
G01X5402Y19980D02*
G01X6273Y19980D01*
G01X6273Y19972D01*
G01X5402Y19972D01*
G01X5402Y19980D01*
G37*
G36*
G01X5402Y19972D02*
G01X6273Y19972D01*
G01X6273Y19963D01*
G01X5402Y19963D01*
G01X5402Y19972D01*
G37*
G36*
G01X5402Y19963D02*
G01X6282Y19963D01*
G01X6282Y19954D01*
G01X5402Y19954D01*
G01X5402Y19963D01*
G37*
G36*
G01X5402Y19954D02*
G01X6273Y19954D01*
G01X6273Y19945D01*
G01X5402Y19945D01*
G01X5402Y19954D01*
G37*
G36*
G01X5402Y19945D02*
G01X6282Y19945D01*
G01X6282Y19936D01*
G01X5402Y19936D01*
G01X5402Y19945D01*
G37*
G36*
G01X5393Y19936D02*
G01X6282Y19936D01*
G01X6282Y19927D01*
G01X5393Y19927D01*
G01X5393Y19936D01*
G37*
G36*
G01X5393Y19927D02*
G01X6282Y19927D01*
G01X6282Y19918D01*
G01X5393Y19918D01*
G01X5393Y19927D01*
G37*
G36*
G01X5393Y19918D02*
G01X6282Y19918D01*
G01X6282Y19909D01*
G01X5393Y19909D01*
G01X5393Y19918D01*
G37*
G36*
G01X5384Y19909D02*
G01X6282Y19909D01*
G01X6282Y19900D01*
G01X5384Y19900D01*
G01X5384Y19909D01*
G37*
G36*
G01X5393Y19900D02*
G01X6291Y19900D01*
G01X6291Y19892D01*
G01X5393Y19892D01*
G01X5393Y19900D01*
G37*
G36*
G01X5384Y19892D02*
G01X6291Y19892D01*
G01X6291Y19883D01*
G01X5384Y19883D01*
G01X5384Y19892D01*
G37*
G36*
G01X5393Y19883D02*
G01X6291Y19883D01*
G01X6291Y19874D01*
G01X5393Y19874D01*
G01X5393Y19883D01*
G37*
G36*
G01X5384Y19874D02*
G01X6299Y19874D01*
G01X6299Y19865D01*
G01X5384Y19865D01*
G01X5384Y19874D01*
G37*
G36*
G01X5384Y19865D02*
G01X6291Y19865D01*
G01X6291Y19856D01*
G01X5384Y19856D01*
G01X5384Y19865D01*
G37*
G36*
G01X5384Y19856D02*
G01X6299Y19856D01*
G01X6299Y19847D01*
G01X5384Y19847D01*
G01X5384Y19856D01*
G37*
G36*
G01X5375Y19847D02*
G01X6291Y19847D01*
G01X6291Y19838D01*
G01X5375Y19838D01*
G01X5375Y19847D01*
G37*
G36*
G01X7411Y19838D02*
G01X7455Y19838D01*
G01X7455Y19829D01*
G01X7411Y19829D01*
G01X7411Y19838D01*
G37*
G36*
G01X5375Y19838D02*
G01X6299Y19838D01*
G01X6299Y19829D01*
G01X5375Y19829D01*
G01X5375Y19838D01*
G37*
G36*
G01X4210Y19838D02*
G01X4273Y19838D01*
G01X4273Y19829D01*
G01X4210Y19829D01*
G01X4210Y19838D01*
G37*
G36*
G01X7402Y19829D02*
G01X7464Y19829D01*
G01X7464Y19820D01*
G01X7402Y19820D01*
G01X7402Y19829D01*
G37*
G36*
G01X5375Y19829D02*
G01X6299Y19829D01*
G01X6299Y19820D01*
G01X5375Y19820D01*
G01X5375Y19829D01*
G37*
G36*
G01X4219Y19829D02*
G01X4281Y19829D01*
G01X4281Y19820D01*
G01X4219Y19820D01*
G01X4219Y19829D01*
G37*
G36*
G01X7393Y19820D02*
G01X7473Y19820D01*
G01X7473Y19812D01*
G01X7393Y19812D01*
G01X7393Y19820D01*
G37*
G36*
G01X5375Y19820D02*
G01X6299Y19820D01*
G01X6299Y19812D01*
G01X5375Y19812D01*
G01X5375Y19820D01*
G37*
G36*
G01X4201Y19820D02*
G01X4290Y19820D01*
G01X4290Y19812D01*
G01X4201Y19812D01*
G01X4201Y19820D01*
G37*
G36*
G01X7375Y19812D02*
G01X7482Y19812D01*
G01X7482Y19803D01*
G01X7375Y19803D01*
G01X7375Y19812D01*
G37*
G36*
G01X5375Y19812D02*
G01X6308Y19812D01*
G01X6308Y19803D01*
G01X5375Y19803D01*
G01X5375Y19812D01*
G37*
G36*
G01X4201Y19812D02*
G01X4299Y19812D01*
G01X4299Y19803D01*
G01X4201Y19803D01*
G01X4201Y19812D01*
G37*
G36*
G01X7357Y19803D02*
G01X7491Y19803D01*
G01X7491Y19794D01*
G01X7357Y19794D01*
G01X7357Y19803D01*
G37*
G36*
G01X5366Y19803D02*
G01X6308Y19803D01*
G01X6308Y19794D01*
G01X5366Y19794D01*
G01X5366Y19803D01*
G37*
G36*
G01X4184Y19803D02*
G01X4326Y19803D01*
G01X4326Y19794D01*
G01X4184Y19794D01*
G01X4184Y19803D01*
G37*
G36*
G01X7348Y19794D02*
G01X7500Y19794D01*
G01X7500Y19785D01*
G01X7348Y19785D01*
G01X7348Y19794D01*
G37*
G36*
G01X5375Y19794D02*
G01X6308Y19794D01*
G01X6308Y19785D01*
G01X5375Y19785D01*
G01X5375Y19794D01*
G37*
G36*
G01X4184Y19794D02*
G01X4335Y19794D01*
G01X4335Y19785D01*
G01X4184Y19785D01*
G01X4184Y19794D01*
G37*
G36*
G01X7340Y19785D02*
G01X7509Y19785D01*
G01X7509Y19776D01*
G01X7340Y19776D01*
G01X7340Y19785D01*
G37*
G36*
G01X5366Y19785D02*
G01X6308Y19785D01*
G01X6308Y19776D01*
G01X5366Y19776D01*
G01X5366Y19785D01*
G37*
G36*
G01X4166Y19785D02*
G01X4344Y19785D01*
G01X4344Y19776D01*
G01X4166Y19776D01*
G01X4166Y19785D01*
G37*
G36*
G01X7322Y19776D02*
G01X7517Y19776D01*
G01X7517Y19767D01*
G01X7322Y19767D01*
G01X7322Y19776D01*
G37*
G36*
G01X5366Y19776D02*
G01X6308Y19776D01*
G01X6308Y19767D01*
G01X5366Y19767D01*
G01X5366Y19776D01*
G37*
G36*
G01X4157Y19776D02*
G01X4353Y19776D01*
G01X4353Y19767D01*
G01X4157Y19767D01*
G01X4157Y19776D01*
G37*
G36*
G01X7304Y19767D02*
G01X7526Y19767D01*
G01X7526Y19758D01*
G01X7304Y19758D01*
G01X7304Y19767D01*
G37*
G36*
G01X5366Y19767D02*
G01X6317Y19767D01*
G01X6317Y19758D01*
G01X5366Y19758D01*
G01X5366Y19767D01*
G37*
G36*
G01X4139Y19767D02*
G01X4370Y19767D01*
G01X4370Y19758D01*
G01X4139Y19758D01*
G01X4139Y19767D01*
G37*
G36*
G01X7295Y19758D02*
G01X7535Y19758D01*
G01X7535Y19749D01*
G01X7295Y19749D01*
G01X7295Y19758D01*
G37*
G36*
G01X5366Y19758D02*
G01X6308Y19758D01*
G01X6308Y19749D01*
G01X5366Y19749D01*
G01X5366Y19758D01*
G37*
G36*
G01X4148Y19758D02*
G01X4379Y19758D01*
G01X4379Y19749D01*
G01X4148Y19749D01*
G01X4148Y19758D01*
G37*
G36*
G01X7286Y19749D02*
G01X7544Y19749D01*
G01X7544Y19740D01*
G01X7286Y19740D01*
G01X7286Y19749D01*
G37*
G36*
G01X5366Y19749D02*
G01X6317Y19749D01*
G01X6317Y19740D01*
G01X5366Y19740D01*
G01X5366Y19749D01*
G37*
G36*
G01X4130Y19749D02*
G01X4397Y19749D01*
G01X4397Y19740D01*
G01X4130Y19740D01*
G01X4130Y19749D01*
G37*
G36*
G01X7277Y19740D02*
G01X7553Y19740D01*
G01X7553Y19731D01*
G01X7277Y19731D01*
G01X7277Y19740D01*
G37*
G36*
G01X5357Y19740D02*
G01X6317Y19740D01*
G01X6317Y19731D01*
G01X5357Y19731D01*
G01X5357Y19740D01*
G37*
G36*
G01X4130Y19740D02*
G01X4406Y19740D01*
G01X4406Y19731D01*
G01X4130Y19731D01*
G01X4130Y19740D01*
G37*
G36*
G01X7251Y19731D02*
G01X7562Y19731D01*
G01X7562Y19723D01*
G01X7251Y19723D01*
G01X7251Y19731D01*
G37*
G36*
G01X5357Y19731D02*
G01X6317Y19731D01*
G01X6317Y19723D01*
G01X5357Y19723D01*
G01X5357Y19731D01*
G37*
G36*
G01X4113Y19731D02*
G01X4415Y19731D01*
G01X4415Y19723D01*
G01X4113Y19723D01*
G01X4113Y19731D01*
G37*
G36*
G01X7242Y19723D02*
G01X7571Y19723D01*
G01X7571Y19714D01*
G01X7242Y19714D01*
G01X7242Y19723D01*
G37*
G36*
G01X5357Y19723D02*
G01X6317Y19723D01*
G01X6317Y19714D01*
G01X5357Y19714D01*
G01X5357Y19723D01*
G37*
G36*
G01X4113Y19723D02*
G01X4433Y19723D01*
G01X4433Y19714D01*
G01X4113Y19714D01*
G01X4113Y19723D01*
G37*
G36*
G01X7233Y19714D02*
G01X7580Y19714D01*
G01X7580Y19705D01*
G01X7233Y19705D01*
G01X7233Y19714D01*
G37*
G36*
G01X5348Y19714D02*
G01X6317Y19714D01*
G01X6317Y19705D01*
G01X5348Y19705D01*
G01X5348Y19714D01*
G37*
G36*
G01X4095Y19714D02*
G01X4450Y19714D01*
G01X4450Y19705D01*
G01X4095Y19705D01*
G01X4095Y19714D01*
G37*
G36*
G01X7224Y19705D02*
G01X7589Y19705D01*
G01X7589Y19696D01*
G01X7224Y19696D01*
G01X7224Y19705D01*
G37*
G36*
G01X5357Y19705D02*
G01X6326Y19705D01*
G01X6326Y19696D01*
G01X5357Y19696D01*
G01X5357Y19705D01*
G37*
G36*
G01X4086Y19705D02*
G01X4459Y19705D01*
G01X4459Y19696D01*
G01X4086Y19696D01*
G01X4086Y19705D01*
G37*
G36*
G01X7197Y19696D02*
G01X7597Y19696D01*
G01X7597Y19687D01*
G01X7197Y19687D01*
G01X7197Y19696D01*
G37*
G36*
G01X5348Y19696D02*
G01X6326Y19696D01*
G01X6326Y19687D01*
G01X5348Y19687D01*
G01X5348Y19696D01*
G37*
G36*
G01X4068Y19696D02*
G01X4468Y19696D01*
G01X4468Y19687D01*
G01X4068Y19687D01*
G01X4068Y19696D01*
G37*
G36*
G01X7188Y19687D02*
G01X7606Y19687D01*
G01X7606Y19678D01*
G01X7188Y19678D01*
G01X7188Y19687D01*
G37*
G36*
G01X5357Y19687D02*
G01X6326Y19687D01*
G01X6326Y19678D01*
G01X5357Y19678D01*
G01X5357Y19687D01*
G37*
G36*
G01X4077Y19687D02*
G01X4477Y19687D01*
G01X4477Y19678D01*
G01X4077Y19678D01*
G01X4077Y19687D01*
G37*
G36*
G01X7180Y19678D02*
G01X7615Y19678D01*
G01X7615Y19669D01*
G01X7180Y19669D01*
G01X7180Y19678D01*
G37*
G36*
G01X5348Y19678D02*
G01X6335Y19678D01*
G01X6335Y19669D01*
G01X5348Y19669D01*
G01X5348Y19678D01*
G37*
G36*
G01X4059Y19678D02*
G01X4504Y19678D01*
G01X4504Y19669D01*
G01X4059Y19669D01*
G01X4059Y19678D01*
G37*
G36*
G01X7171Y19669D02*
G01X7624Y19669D01*
G01X7624Y19660D01*
G01X7171Y19660D01*
G01X7171Y19669D01*
G37*
G36*
G01X5348Y19669D02*
G01X6326Y19669D01*
G01X6326Y19660D01*
G01X5348Y19660D01*
G01X5348Y19669D01*
G37*
G36*
G01X4059Y19669D02*
G01X4513Y19669D01*
G01X4513Y19660D01*
G01X4059Y19660D01*
G01X4059Y19669D01*
G37*
G36*
G01X7144Y19660D02*
G01X7633Y19660D01*
G01X7633Y19651D01*
G01X7144Y19651D01*
G01X7144Y19660D01*
G37*
G36*
G01X5348Y19660D02*
G01X6335Y19660D01*
G01X6335Y19651D01*
G01X5348Y19651D01*
G01X5348Y19660D01*
G37*
G36*
G01X4041Y19660D02*
G01X4521Y19660D01*
G01X4521Y19651D01*
G01X4041Y19651D01*
G01X4041Y19660D01*
G37*
G36*
G01X7153Y19651D02*
G01X7642Y19651D01*
G01X7642Y19643D01*
G01X7153Y19643D01*
G01X7153Y19651D01*
G37*
G36*
G01X5339Y19651D02*
G01X6344Y19651D01*
G01X6344Y19643D01*
G01X5339Y19643D01*
G01X5339Y19651D01*
G37*
G36*
G01X4041Y19651D02*
G01X4530Y19651D01*
G01X4530Y19643D01*
G01X4041Y19643D01*
G01X4041Y19651D01*
G37*
G36*
G01X7126Y19643D02*
G01X7651Y19643D01*
G01X7651Y19634D01*
G01X7126Y19634D01*
G01X7126Y19643D01*
G37*
G36*
G01X5330Y19643D02*
G01X6353Y19643D01*
G01X6353Y19634D01*
G01X5330Y19634D01*
G01X5330Y19643D01*
G37*
G36*
G01X4024Y19643D02*
G01X4557Y19643D01*
G01X4557Y19634D01*
G01X4024Y19634D01*
G01X4024Y19643D01*
G37*
G36*
G01X7117Y19634D02*
G01X7660Y19634D01*
G01X7660Y19625D01*
G01X7117Y19625D01*
G01X7117Y19634D01*
G37*
G36*
G01X5322Y19634D02*
G01X6362Y19634D01*
G01X6362Y19625D01*
G01X5322Y19625D01*
G01X5322Y19634D01*
G37*
G36*
G01X5304Y19634D02*
G01X5313Y19634D01*
G01X5313Y19625D01*
G01X5304Y19625D01*
G01X5304Y19634D01*
G37*
G36*
G01X4015Y19634D02*
G01X4566Y19634D01*
G01X4566Y19625D01*
G01X4015Y19625D01*
G01X4015Y19634D01*
G37*
G36*
G01X7108Y19625D02*
G01X7669Y19625D01*
G01X7669Y19616D01*
G01X7108Y19616D01*
G01X7108Y19625D01*
G37*
G36*
G01X7091Y19625D02*
G01X7100Y19625D01*
G01X7100Y19616D01*
G01X7091Y19616D01*
G01X7091Y19625D01*
G37*
G36*
G01X5295Y19625D02*
G01X6388Y19625D01*
G01X6388Y19616D01*
G01X5295Y19616D01*
G01X5295Y19625D01*
G37*
G36*
G01X5277Y19625D02*
G01X5286Y19625D01*
G01X5286Y19616D01*
G01X5277Y19616D01*
G01X5277Y19625D01*
G37*
G36*
G01X3997Y19625D02*
G01X4575Y19625D01*
G01X4575Y19616D01*
G01X3997Y19616D01*
G01X3997Y19625D01*
G37*
G36*
G01X7100Y19616D02*
G01X7677Y19616D01*
G01X7677Y19607D01*
G01X7100Y19607D01*
G01X7100Y19616D01*
G37*
G36*
G01X5268Y19616D02*
G01X6415Y19616D01*
G01X6415Y19607D01*
G01X5268Y19607D01*
G01X5268Y19616D01*
G37*
G36*
G01X4006Y19616D02*
G01X4584Y19616D01*
G01X4584Y19607D01*
G01X4006Y19607D01*
G01X4006Y19616D01*
G37*
G36*
G01X7073Y19607D02*
G01X7686Y19607D01*
G01X7686Y19598D01*
G01X7073Y19598D01*
G01X7073Y19607D01*
G37*
G36*
G01X5242Y19607D02*
G01X6442Y19607D01*
G01X6442Y19598D01*
G01X5242Y19598D01*
G01X5242Y19607D01*
G37*
G36*
G01X3988Y19607D02*
G01X4610Y19607D01*
G01X4610Y19598D01*
G01X3988Y19598D01*
G01X3988Y19607D01*
G37*
G36*
G01X7064Y19598D02*
G01X7695Y19598D01*
G01X7695Y19589D01*
G01X7064Y19589D01*
G01X7064Y19598D01*
G37*
G36*
G01X5233Y19598D02*
G01X6451Y19598D01*
G01X6451Y19589D01*
G01X5233Y19589D01*
G01X5233Y19598D01*
G37*
G36*
G01X5215Y19598D02*
G01X5224Y19598D01*
G01X5224Y19589D01*
G01X5215Y19589D01*
G01X5215Y19598D01*
G37*
G36*
G01X3988Y19598D02*
G01X4619Y19598D01*
G01X4619Y19589D01*
G01X3988Y19589D01*
G01X3988Y19598D01*
G37*
G36*
G01X7055Y19589D02*
G01X7704Y19589D01*
G01X7704Y19580D01*
G01X7055Y19580D01*
G01X7055Y19589D01*
G37*
G36*
G01X5206Y19589D02*
G01X6477Y19589D01*
G01X6477Y19580D01*
G01X5206Y19580D01*
G01X5206Y19589D01*
G37*
G36*
G01X5188Y19589D02*
G01X5197Y19589D01*
G01X5197Y19580D01*
G01X5188Y19580D01*
G01X5188Y19589D01*
G37*
G36*
G01X3970Y19589D02*
G01X4628Y19589D01*
G01X4628Y19580D01*
G01X3970Y19580D01*
G01X3970Y19589D01*
G37*
G36*
G01X7046Y19580D02*
G01X7713Y19580D01*
G01X7713Y19571D01*
G01X7046Y19571D01*
G01X7046Y19580D01*
G37*
G36*
G01X5179Y19580D02*
G01X6504Y19580D01*
G01X6504Y19571D01*
G01X5179Y19571D01*
G01X5179Y19580D01*
G37*
G36*
G01X3970Y19580D02*
G01X4637Y19580D01*
G01X4637Y19571D01*
G01X3970Y19571D01*
G01X3970Y19580D01*
G37*
G36*
G01X7020Y19571D02*
G01X7722Y19571D01*
G01X7722Y19563D01*
G01X7020Y19563D01*
G01X7020Y19571D01*
G37*
G36*
G01X6522Y19571D02*
G01X6531Y19571D01*
G01X6531Y19563D01*
G01X6522Y19563D01*
G01X6522Y19571D01*
G37*
G36*
G01X5153Y19571D02*
G01X6513Y19571D01*
G01X6513Y19563D01*
G01X5153Y19563D01*
G01X5153Y19571D01*
G37*
G36*
G01X3953Y19571D02*
G01X4655Y19571D01*
G01X4655Y19563D01*
G01X3953Y19563D01*
G01X3953Y19571D01*
G37*
G36*
G01X7011Y19563D02*
G01X7731Y19563D01*
G01X7731Y19554D01*
G01X7011Y19554D01*
G01X7011Y19563D01*
G37*
G36*
G01X5144Y19563D02*
G01X6539Y19563D01*
G01X6539Y19554D01*
G01X5144Y19554D01*
G01X5144Y19563D01*
G37*
G36*
G01X5126Y19563D02*
G01X5135Y19563D01*
G01X5135Y19554D01*
G01X5126Y19554D01*
G01X5126Y19563D01*
G37*
G36*
G01X3944Y19563D02*
G01X4673Y19563D01*
G01X4673Y19554D01*
G01X3944Y19554D01*
G01X3944Y19563D01*
G37*
G36*
G01X7002Y19554D02*
G01X7740Y19554D01*
G01X7740Y19545D01*
G01X7002Y19545D01*
G01X7002Y19554D01*
G37*
G36*
G01X5117Y19554D02*
G01X6566Y19554D01*
G01X6566Y19545D01*
G01X5117Y19545D01*
G01X5117Y19554D01*
G37*
G36*
G01X5099Y19554D02*
G01X5108Y19554D01*
G01X5108Y19545D01*
G01X5099Y19545D01*
G01X5099Y19554D01*
G37*
G36*
G01X3926Y19554D02*
G01X4681Y19554D01*
G01X4681Y19545D01*
G01X3926Y19545D01*
G01X3926Y19554D01*
G37*
G36*
G01X6993Y19545D02*
G01X7749Y19545D01*
G01X7749Y19536D01*
G01X6993Y19536D01*
G01X6993Y19545D01*
G37*
G36*
G01X5090Y19545D02*
G01X6593Y19545D01*
G01X6593Y19536D01*
G01X5090Y19536D01*
G01X5090Y19545D01*
G37*
G36*
G01X3935Y19545D02*
G01X4690Y19545D01*
G01X4690Y19536D01*
G01X3935Y19536D01*
G01X3935Y19545D01*
G37*
G36*
G01X6966Y19536D02*
G01X7757Y19536D01*
G01X7757Y19527D01*
G01X6966Y19527D01*
G01X6966Y19536D01*
G37*
G36*
G01X6611Y19536D02*
G01X6620Y19536D01*
G01X6620Y19527D01*
G01X6611Y19527D01*
G01X6611Y19536D01*
G37*
G36*
G01X5064Y19536D02*
G01X6602Y19536D01*
G01X6602Y19527D01*
G01X5064Y19527D01*
G01X5064Y19536D01*
G37*
G36*
G01X3917Y19536D02*
G01X4699Y19536D01*
G01X4699Y19527D01*
G01X3917Y19527D01*
G01X3917Y19536D01*
G37*
G36*
G01X6957Y19527D02*
G01X7766Y19527D01*
G01X7766Y19518D01*
G01X6957Y19518D01*
G01X6957Y19527D01*
G37*
G36*
G01X5055Y19527D02*
G01X6628Y19527D01*
G01X6628Y19518D01*
G01X5055Y19518D01*
G01X5055Y19527D01*
G37*
G36*
G01X3917Y19527D02*
G01X4717Y19527D01*
G01X4717Y19518D01*
G01X3917Y19518D01*
G01X3917Y19527D01*
G37*
G36*
G01X6948Y19518D02*
G01X7775Y19518D01*
G01X7775Y19509D01*
G01X6948Y19509D01*
G01X6948Y19518D01*
G37*
G36*
G01X5028Y19518D02*
G01X6655Y19518D01*
G01X6655Y19509D01*
G01X5028Y19509D01*
G01X5028Y19518D01*
G37*
G36*
G01X5010Y19518D02*
G01X5019Y19518D01*
G01X5019Y19509D01*
G01X5010Y19509D01*
G01X5010Y19518D01*
G37*
G36*
G01X3899Y19518D02*
G01X4735Y19518D01*
G01X4735Y19509D01*
G01X3899Y19509D01*
G01X3899Y19518D01*
G37*
G36*
G01X6940Y19509D02*
G01X7784Y19509D01*
G01X7784Y19500D01*
G01X6940Y19500D01*
G01X6940Y19509D01*
G37*
G36*
G01X6673Y19509D02*
G01X6682Y19509D01*
G01X6682Y19500D01*
G01X6673Y19500D01*
G01X6673Y19509D01*
G37*
G36*
G01X5002Y19509D02*
G01X6664Y19509D01*
G01X6664Y19500D01*
G01X5002Y19500D01*
G01X5002Y19509D01*
G37*
G36*
G01X3899Y19509D02*
G01X4744Y19509D01*
G01X4744Y19500D01*
G01X3899Y19500D01*
G01X3899Y19509D01*
G37*
G36*
G01X6922Y19500D02*
G01X7793Y19500D01*
G01X7793Y19491D01*
G01X6922Y19491D01*
G01X6922Y19500D01*
G37*
G36*
G01X4975Y19500D02*
G01X6691Y19500D01*
G01X6691Y19491D01*
G01X4975Y19491D01*
G01X4975Y19500D01*
G37*
G36*
G01X3881Y19500D02*
G01X4753Y19500D01*
G01X4753Y19491D01*
G01X3881Y19491D01*
G01X3881Y19500D01*
G37*
G36*
G01X6904Y19491D02*
G01X7802Y19491D01*
G01X7802Y19483D01*
G01X6904Y19483D01*
G01X6904Y19491D01*
G37*
G36*
G01X4966Y19491D02*
G01X6717Y19491D01*
G01X6717Y19483D01*
G01X4966Y19483D01*
G01X4966Y19491D01*
G37*
G36*
G01X3872Y19491D02*
G01X4761Y19491D01*
G01X4761Y19483D01*
G01X3872Y19483D01*
G01X3872Y19491D01*
G37*
G36*
G01X6895Y19483D02*
G01X7811Y19483D01*
G01X7811Y19474D01*
G01X6895Y19474D01*
G01X6895Y19483D01*
G37*
G36*
G01X4939Y19483D02*
G01X6744Y19483D01*
G01X6744Y19474D01*
G01X4939Y19474D01*
G01X4939Y19483D01*
G37*
G36*
G01X4922Y19483D02*
G01X4930Y19483D01*
G01X4930Y19474D01*
G01X4922Y19474D01*
G01X4922Y19483D01*
G37*
G36*
G01X3855Y19483D02*
G01X4788Y19483D01*
G01X4788Y19474D01*
G01X3855Y19474D01*
G01X3855Y19483D01*
G37*
G36*
G01X6886Y19474D02*
G01X7820Y19474D01*
G01X7820Y19465D01*
G01X6886Y19465D01*
G01X6886Y19474D01*
G37*
G36*
G01X4930Y19474D02*
G01X6753Y19474D01*
G01X6753Y19465D01*
G01X4930Y19465D01*
G01X4930Y19474D01*
G37*
G36*
G01X4913Y19474D02*
G01X4922Y19474D01*
G01X4922Y19465D01*
G01X4913Y19465D01*
G01X4913Y19474D01*
G37*
G36*
G01X3864Y19474D02*
G01X4797Y19474D01*
G01X4797Y19465D01*
G01X3864Y19465D01*
G01X3864Y19474D01*
G37*
G36*
G01X6868Y19465D02*
G01X7829Y19465D01*
G01X7829Y19456D01*
G01X6868Y19456D01*
G01X6868Y19465D01*
G37*
G36*
G01X4886Y19465D02*
G01X6780Y19465D01*
G01X6780Y19456D01*
G01X4886Y19456D01*
G01X4886Y19465D01*
G37*
G36*
G01X3846Y19465D02*
G01X4806Y19465D01*
G01X4806Y19456D01*
G01X3846Y19456D01*
G01X3846Y19465D01*
G37*
G36*
G01X6851Y19456D02*
G01X7837Y19456D01*
G01X7837Y19447D01*
G01X6851Y19447D01*
G01X6851Y19456D01*
G37*
G36*
G01X4877Y19456D02*
G01X6806Y19456D01*
G01X6806Y19447D01*
G01X4877Y19447D01*
G01X4877Y19456D01*
G37*
G36*
G01X3846Y19456D02*
G01X4815Y19456D01*
G01X4815Y19447D01*
G01X3846Y19447D01*
G01X3846Y19456D01*
G37*
G36*
G01X3828Y19447D02*
G01X7846Y19447D01*
G01X7846Y19438D01*
G01X3828Y19438D01*
G01X3828Y19447D01*
G37*
G36*
G01X3828Y19438D02*
G01X7855Y19438D01*
G01X7855Y19429D01*
G01X3828Y19429D01*
G01X3828Y19438D01*
G37*
G36*
G01X3810Y19429D02*
G01X7864Y19429D01*
G01X7864Y19420D01*
G01X3810Y19420D01*
G01X3810Y19429D01*
G37*
G36*
G01X3801Y19420D02*
G01X7873Y19420D01*
G01X7873Y19411D01*
G01X3801Y19411D01*
G01X3801Y19420D01*
G37*
G36*
G01X3784Y19411D02*
G01X7882Y19411D01*
G01X7882Y19403D01*
G01X3784Y19403D01*
G01X3784Y19411D01*
G37*
G36*
G01X3792Y19403D02*
G01X7891Y19403D01*
G01X7891Y19394D01*
G01X3792Y19394D01*
G01X3792Y19403D01*
G37*
G36*
G01X3775Y19394D02*
G01X7900Y19394D01*
G01X7900Y19385D01*
G01X3775Y19385D01*
G01X3775Y19394D01*
G37*
G36*
G01X3766Y19385D02*
G01X7909Y19385D01*
G01X7909Y19376D01*
G01X3766Y19376D01*
G01X3766Y19385D01*
G37*
G36*
G01X3748Y19376D02*
G01X7917Y19376D01*
G01X7917Y19367D01*
G01X3748Y19367D01*
G01X3748Y19376D01*
G37*
G36*
G01X3748Y19367D02*
G01X7926Y19367D01*
G01X7926Y19358D01*
G01X3748Y19358D01*
G01X3748Y19367D01*
G37*
G36*
G01X3739Y19358D02*
G01X7935Y19358D01*
G01X7935Y19349D01*
G01X3739Y19349D01*
G01X3739Y19358D01*
G37*
G36*
G01X3739Y19349D02*
G01X7944Y19349D01*
G01X7944Y19340D01*
G01X3739Y19340D01*
G01X3739Y19349D01*
G37*
G36*
G01X3730Y19340D02*
G01X7935Y19340D01*
G01X7935Y19331D01*
G01X3730Y19331D01*
G01X3730Y19340D01*
G37*
G36*
G01X3739Y19331D02*
G01X7944Y19331D01*
G01X7944Y19323D01*
G01X3739Y19323D01*
G01X3739Y19331D01*
G37*
G36*
G01X3739Y19323D02*
G01X7935Y19323D01*
G01X7935Y19314D01*
G01X3739Y19314D01*
G01X3739Y19323D01*
G37*
G36*
G01X3748Y19314D02*
G01X7926Y19314D01*
G01X7926Y19305D01*
G01X3748Y19305D01*
G01X3748Y19314D01*
G37*
G36*
G01X3748Y19305D02*
G01X7926Y19305D01*
G01X7926Y19296D01*
G01X3748Y19296D01*
G01X3748Y19305D01*
G37*
G36*
G01X3757Y19296D02*
G01X7909Y19296D01*
G01X7909Y19287D01*
G01X3757Y19287D01*
G01X3757Y19296D01*
G37*
G36*
G01X3766Y19287D02*
G01X7909Y19287D01*
G01X7909Y19278D01*
G01X3766Y19278D01*
G01X3766Y19287D01*
G37*
G36*
G01X3775Y19278D02*
G01X7909Y19278D01*
G01X7909Y19269D01*
G01X3775Y19269D01*
G01X3775Y19278D01*
G37*
G36*
G01X3775Y19269D02*
G01X7900Y19269D01*
G01X7900Y19260D01*
G01X3775Y19260D01*
G01X3775Y19269D01*
G37*
G36*
G01X3792Y19260D02*
G01X7891Y19260D01*
G01X7891Y19251D01*
G01X3792Y19251D01*
G01X3792Y19260D01*
G37*
G36*
G01X3784Y19251D02*
G01X7882Y19251D01*
G01X7882Y19243D01*
G01X3784Y19243D01*
G01X3784Y19251D01*
G37*
G36*
G01X3792Y19243D02*
G01X7873Y19243D01*
G01X7873Y19234D01*
G01X3792Y19234D01*
G01X3792Y19243D01*
G37*
G36*
G01X3801Y19234D02*
G01X7873Y19234D01*
G01X7873Y19225D01*
G01X3801Y19225D01*
G01X3801Y19234D01*
G37*
G36*
G01X3810Y19225D02*
G01X7864Y19225D01*
G01X7864Y19216D01*
G01X3810Y19216D01*
G01X3810Y19225D01*
G37*
G36*
G01X3819Y19216D02*
G01X7864Y19216D01*
G01X7864Y19207D01*
G01X3819Y19207D01*
G01X3819Y19216D01*
G37*
G36*
G01X3828Y19207D02*
G01X7855Y19207D01*
G01X7855Y19198D01*
G01X3828Y19198D01*
G01X3828Y19207D01*
G37*
G36*
G01X3819Y19198D02*
G01X7846Y19198D01*
G01X7846Y19189D01*
G01X3819Y19189D01*
G01X3819Y19198D01*
G37*
G36*
G01X3837Y19189D02*
G01X7837Y19189D01*
G01X7837Y19180D01*
G01X3837Y19180D01*
G01X3837Y19189D01*
G37*
G36*
G01X3837Y19180D02*
G01X7837Y19180D01*
G01X7837Y19171D01*
G01X3837Y19171D01*
G01X3837Y19180D01*
G37*
G36*
G01X3846Y19171D02*
G01X7829Y19171D01*
G01X7829Y19163D01*
G01X3846Y19163D01*
G01X3846Y19171D01*
G37*
G36*
G01X3855Y19163D02*
G01X7829Y19163D01*
G01X7829Y19154D01*
G01X3855Y19154D01*
G01X3855Y19163D01*
G37*
G36*
G01X3864Y19154D02*
G01X7820Y19154D01*
G01X7820Y19145D01*
G01X3864Y19145D01*
G01X3864Y19154D01*
G37*
G36*
G01X3864Y19145D02*
G01X7811Y19145D01*
G01X7811Y19136D01*
G01X3864Y19136D01*
G01X3864Y19145D01*
G37*
G36*
G01X3872Y19136D02*
G01X7802Y19136D01*
G01X7802Y19127D01*
G01X3872Y19127D01*
G01X3872Y19136D01*
G37*
G36*
G01X3872Y19127D02*
G01X7811Y19127D01*
G01X7811Y19118D01*
G01X3872Y19118D01*
G01X3872Y19127D01*
G37*
G36*
G01X3881Y19118D02*
G01X7793Y19118D01*
G01X7793Y19109D01*
G01X3881Y19109D01*
G01X3881Y19118D01*
G37*
G36*
G01X3890Y19109D02*
G01X7793Y19109D01*
G01X7793Y19100D01*
G01X3890Y19100D01*
G01X3890Y19109D01*
G37*
G36*
G01X3899Y19100D02*
G01X7784Y19100D01*
G01X7784Y19091D01*
G01X3899Y19091D01*
G01X3899Y19100D01*
G37*
G36*
G01X3899Y19091D02*
G01X7775Y19091D01*
G01X7775Y19083D01*
G01X3899Y19083D01*
G01X3899Y19091D01*
G37*
G36*
G01X3908Y19083D02*
G01X7766Y19083D01*
G01X7766Y19074D01*
G01X3908Y19074D01*
G01X3908Y19083D01*
G37*
G36*
G01X3908Y19074D02*
G01X7766Y19074D01*
G01X7766Y19065D01*
G01X3908Y19065D01*
G01X3908Y19074D01*
G37*
G36*
G01X3917Y19065D02*
G01X7757Y19065D01*
G01X7757Y19056D01*
G01X3917Y19056D01*
G01X3917Y19065D01*
G37*
G36*
G01X3926Y19056D02*
G01X7757Y19056D01*
G01X7757Y19047D01*
G01X3926Y19047D01*
G01X3926Y19056D01*
G37*
G36*
G01X3935Y19047D02*
G01X7749Y19047D01*
G01X7749Y19038D01*
G01X3935Y19038D01*
G01X3935Y19047D01*
G37*
G36*
G01X3935Y19038D02*
G01X7740Y19038D01*
G01X7740Y19029D01*
G01X3935Y19029D01*
G01X3935Y19038D01*
G37*
G36*
G01X3944Y19029D02*
G01X7731Y19029D01*
G01X7731Y19020D01*
G01X3944Y19020D01*
G01X3944Y19029D01*
G37*
G36*
G01X3944Y19020D02*
G01X7731Y19020D01*
G01X7731Y19011D01*
G01X3944Y19011D01*
G01X3944Y19020D01*
G37*
G36*
G01X3953Y19011D02*
G01X7713Y19011D01*
G01X7713Y19003D01*
G01X3953Y19003D01*
G01X3953Y19011D01*
G37*
G36*
G01X3961Y19003D02*
G01X7722Y19003D01*
G01X7722Y18994D01*
G01X3961Y18994D01*
G01X3961Y19003D01*
G37*
G36*
G01X3970Y18994D02*
G01X7713Y18994D01*
G01X7713Y18985D01*
G01X3970Y18985D01*
G01X3970Y18994D01*
G37*
G36*
G01X3970Y18985D02*
G01X7704Y18985D01*
G01X7704Y18976D01*
G01X3970Y18976D01*
G01X3970Y18985D01*
G37*
G36*
G01X3979Y18976D02*
G01X7695Y18976D01*
G01X7695Y18967D01*
G01X3979Y18967D01*
G01X3979Y18976D01*
G37*
G36*
G01X3979Y18967D02*
G01X7686Y18967D01*
G01X7686Y18958D01*
G01X3979Y18958D01*
G01X3979Y18967D01*
G37*
G36*
G01X3988Y18958D02*
G01X7677Y18958D01*
G01X7677Y18949D01*
G01X3988Y18949D01*
G01X3988Y18958D01*
G37*
G36*
G01X3997Y18949D02*
G01X7686Y18949D01*
G01X7686Y18940D01*
G01X3997Y18940D01*
G01X3997Y18949D01*
G37*
G36*
G01X4006Y18940D02*
G01X7677Y18940D01*
G01X7677Y18931D01*
G01X4006Y18931D01*
G01X4006Y18940D01*
G37*
G36*
G01X4015Y18931D02*
G01X7669Y18931D01*
G01X7669Y18923D01*
G01X4015Y18923D01*
G01X4015Y18931D01*
G37*
G36*
G01X4015Y18923D02*
G01X7660Y18923D01*
G01X7660Y18914D01*
G01X4015Y18914D01*
G01X4015Y18923D01*
G37*
G36*
G01X4015Y18914D02*
G01X7651Y18914D01*
G01X7651Y18905D01*
G01X4015Y18905D01*
G01X4015Y18914D01*
G37*
G36*
G01X4024Y18905D02*
G01X7642Y18905D01*
G01X7642Y18896D01*
G01X4024Y18896D01*
G01X4024Y18905D01*
G37*
G36*
G01X4033Y18896D02*
G01X7642Y18896D01*
G01X7642Y18887D01*
G01X4033Y18887D01*
G01X4033Y18896D01*
G37*
G36*
G01X4041Y18887D02*
G01X7642Y18887D01*
G01X7642Y18878D01*
G01X4041Y18878D01*
G01X4041Y18887D01*
G37*
G36*
G01X4050Y18878D02*
G01X7633Y18878D01*
G01X7633Y18869D01*
G01X4050Y18869D01*
G01X4050Y18878D01*
G37*
G36*
G01X4059Y18869D02*
G01X7624Y18869D01*
G01X7624Y18860D01*
G01X4059Y18860D01*
G01X4059Y18869D01*
G37*
G36*
G01X4050Y18860D02*
G01X7615Y18860D01*
G01X7615Y18851D01*
G01X4050Y18851D01*
G01X4050Y18860D01*
G37*
G36*
G01X4059Y18851D02*
G01X7606Y18851D01*
G01X7606Y18842D01*
G01X4059Y18842D01*
G01X4059Y18851D01*
G37*
G36*
G01X4068Y18842D02*
G01X7606Y18842D01*
G01X7606Y18834D01*
G01X4068Y18834D01*
G01X4068Y18842D01*
G37*
G36*
G01X4077Y18834D02*
G01X7597Y18834D01*
G01X7597Y18825D01*
G01X4077Y18825D01*
G01X4077Y18834D01*
G37*
G36*
G01X4086Y18825D02*
G01X7597Y18825D01*
G01X7597Y18816D01*
G01X4086Y18816D01*
G01X4086Y18825D01*
G37*
G36*
G01X4095Y18816D02*
G01X7589Y18816D01*
G01X7589Y18807D01*
G01X4095Y18807D01*
G01X4095Y18816D01*
G37*
G36*
G01X4086Y18807D02*
G01X7580Y18807D01*
G01X7580Y18798D01*
G01X4086Y18798D01*
G01X4086Y18807D01*
G37*
G36*
G01X4104Y18798D02*
G01X7571Y18798D01*
G01X7571Y18789D01*
G01X4104Y18789D01*
G01X4104Y18798D01*
G37*
G36*
G01X4104Y18789D02*
G01X7571Y18789D01*
G01X7571Y18780D01*
G01X4104Y18780D01*
G01X4104Y18789D01*
G37*
G36*
G01X4113Y18780D02*
G01X7562Y18780D01*
G01X7562Y18771D01*
G01X4113Y18771D01*
G01X4113Y18780D01*
G37*
G36*
G01X4121Y18771D02*
G01X7562Y18771D01*
G01X7562Y18762D01*
G01X4121Y18762D01*
G01X4121Y18771D01*
G37*
G36*
G01X4130Y18762D02*
G01X7553Y18762D01*
G01X7553Y18754D01*
G01X4130Y18754D01*
G01X4130Y18762D01*
G37*
G36*
G01X4121Y18754D02*
G01X7553Y18754D01*
G01X7553Y18745D01*
G01X4121Y18745D01*
G01X4121Y18754D01*
G37*
G36*
G01X4130Y18745D02*
G01X7553Y18745D01*
G01X7553Y18736D01*
G01X4130Y18736D01*
G01X4130Y18745D01*
G37*
G36*
G01X4121Y18736D02*
G01X7553Y18736D01*
G01X7553Y18727D01*
G01X4121Y18727D01*
G01X4121Y18736D01*
G37*
G36*
G01X4130Y18727D02*
G01X7553Y18727D01*
G01X7553Y18718D01*
G01X4130Y18718D01*
G01X4130Y18727D01*
G37*
G36*
G01X4121Y18718D02*
G01X7562Y18718D01*
G01X7562Y18709D01*
G01X4121Y18709D01*
G01X4121Y18718D01*
G37*
G36*
G01X4113Y18709D02*
G01X7562Y18709D01*
G01X7562Y18700D01*
G01X4113Y18700D01*
G01X4113Y18709D01*
G37*
G36*
G01X4104Y18700D02*
G01X7562Y18700D01*
G01X7562Y18691D01*
G01X4104Y18691D01*
G01X4104Y18700D01*
G37*
G36*
G01X4113Y18691D02*
G01X7571Y18691D01*
G01X7571Y18682D01*
G01X4113Y18682D01*
G01X4113Y18691D01*
G37*
G36*
G01X4104Y18682D02*
G01X7580Y18682D01*
G01X7580Y18674D01*
G01X4104Y18674D01*
G01X4104Y18682D01*
G37*
G36*
G01X4104Y18674D02*
G01X7571Y18674D01*
G01X7571Y18665D01*
G01X4104Y18665D01*
G01X4104Y18674D01*
G37*
G36*
G01X4095Y18665D02*
G01X7580Y18665D01*
G01X7580Y18656D01*
G01X4095Y18656D01*
G01X4095Y18665D01*
G37*
G36*
G01X4095Y18656D02*
G01X7589Y18656D01*
G01X7589Y18647D01*
G01X4095Y18647D01*
G01X4095Y18656D01*
G37*
G36*
G01X4086Y18647D02*
G01X7589Y18647D01*
G01X7589Y18638D01*
G01X4086Y18638D01*
G01X4086Y18647D01*
G37*
G36*
G01X4086Y18638D02*
G01X7589Y18638D01*
G01X7589Y18629D01*
G01X4086Y18629D01*
G01X4086Y18638D01*
G37*
G36*
G01X4086Y18629D02*
G01X7597Y18629D01*
G01X7597Y18620D01*
G01X4086Y18620D01*
G01X4086Y18629D01*
G37*
G36*
G01X4077Y18620D02*
G01X7597Y18620D01*
G01X7597Y18611D01*
G01X4077Y18611D01*
G01X4077Y18620D01*
G37*
G36*
G01X4068Y18611D02*
G01X7606Y18611D01*
G01X7606Y18602D01*
G01X4068Y18602D01*
G01X4068Y18611D01*
G37*
G36*
G01X4068Y18602D02*
G01X7606Y18602D01*
G01X7606Y18594D01*
G01X4068Y18594D01*
G01X4068Y18602D01*
G37*
G36*
G01X4068Y18594D02*
G01X7615Y18594D01*
G01X7615Y18585D01*
G01X4068Y18585D01*
G01X4068Y18594D01*
G37*
G36*
G01X4059Y18585D02*
G01X7615Y18585D01*
G01X7615Y18576D01*
G01X4059Y18576D01*
G01X4059Y18585D01*
G37*
G36*
G01X4050Y18576D02*
G01X7615Y18576D01*
G01X7615Y18567D01*
G01X4050Y18567D01*
G01X4050Y18576D01*
G37*
G36*
G01X4059Y18567D02*
G01X7624Y18567D01*
G01X7624Y18558D01*
G01X4059Y18558D01*
G01X4059Y18567D01*
G37*
G36*
G01X4050Y18558D02*
G01X7633Y18558D01*
G01X7633Y18549D01*
G01X4050Y18549D01*
G01X4050Y18558D01*
G37*
G36*
G01X4050Y18549D02*
G01X7624Y18549D01*
G01X7624Y18540D01*
G01X4050Y18540D01*
G01X4050Y18549D01*
G37*
G36*
G01X4041Y18540D02*
G01X7633Y18540D01*
G01X7633Y18531D01*
G01X4041Y18531D01*
G01X4041Y18540D01*
G37*
G36*
G01X4041Y18531D02*
G01X7642Y18531D01*
G01X7642Y18522D01*
G01X4041Y18522D01*
G01X4041Y18531D01*
G37*
G36*
G01X4033Y18522D02*
G01X7651Y18522D01*
G01X7651Y18514D01*
G01X4033Y18514D01*
G01X4033Y18522D01*
G37*
G36*
G01X4033Y18514D02*
G01X7642Y18514D01*
G01X7642Y18505D01*
G01X4033Y18505D01*
G01X4033Y18514D01*
G37*
G36*
G01X4033Y18505D02*
G01X7651Y18505D01*
G01X7651Y18496D01*
G01X4033Y18496D01*
G01X4033Y18505D01*
G37*
G36*
G01X4024Y18496D02*
G01X7660Y18496D01*
G01X7660Y18487D01*
G01X4024Y18487D01*
G01X4024Y18496D01*
G37*
G36*
G01X4015Y18487D02*
G01X7660Y18487D01*
G01X7660Y18478D01*
G01X4015Y18478D01*
G01X4015Y18487D01*
G37*
G36*
G01X4024Y18478D02*
G01X7660Y18478D01*
G01X7660Y18469D01*
G01X4024Y18469D01*
G01X4024Y18478D01*
G37*
G36*
G01X5917Y18469D02*
G01X7669Y18469D01*
G01X7669Y18460D01*
G01X5917Y18460D01*
G01X5917Y18469D01*
G37*
G36*
G01X5899Y18469D02*
G01X5908Y18469D01*
G01X5908Y18460D01*
G01X5899Y18460D01*
G01X5899Y18469D01*
G37*
G36*
G01X5882Y18469D02*
G01X5891Y18469D01*
G01X5891Y18460D01*
G01X5882Y18460D01*
G01X5882Y18469D01*
G37*
G36*
G01X5864Y18469D02*
G01X5873Y18469D01*
G01X5873Y18460D01*
G01X5864Y18460D01*
G01X5864Y18469D01*
G37*
G36*
G01X5793Y18469D02*
G01X5802Y18469D01*
G01X5802Y18460D01*
G01X5793Y18460D01*
G01X5793Y18469D01*
G37*
G36*
G01X5775Y18469D02*
G01X5784Y18469D01*
G01X5784Y18460D01*
G01X5775Y18460D01*
G01X5775Y18469D01*
G37*
G36*
G01X5757Y18469D02*
G01X5766Y18469D01*
G01X5766Y18460D01*
G01X5757Y18460D01*
G01X5757Y18469D01*
G37*
G36*
G01X4015Y18469D02*
G01X5748Y18469D01*
G01X5748Y18460D01*
G01X4015Y18460D01*
G01X4015Y18469D01*
G37*
G36*
G01X5979Y18460D02*
G01X7669Y18460D01*
G01X7669Y18451D01*
G01X5979Y18451D01*
G01X5979Y18460D01*
G37*
G36*
G01X5962Y18460D02*
G01X5971Y18460D01*
G01X5971Y18451D01*
G01X5962Y18451D01*
G01X5962Y18460D01*
G37*
G36*
G01X5695Y18460D02*
G01X5704Y18460D01*
G01X5704Y18451D01*
G01X5695Y18451D01*
G01X5695Y18460D01*
G37*
G36*
G01X4006Y18460D02*
G01X5686Y18460D01*
G01X5686Y18451D01*
G01X4006Y18451D01*
G01X4006Y18460D01*
G37*
G36*
G01X6024Y18451D02*
G01X7677Y18451D01*
G01X7677Y18442D01*
G01X6024Y18442D01*
G01X6024Y18451D01*
G37*
G36*
G01X6006Y18451D02*
G01X6015Y18451D01*
G01X6015Y18442D01*
G01X6006Y18442D01*
G01X6006Y18451D01*
G37*
G36*
G01X5668Y18451D02*
G01X5677Y18451D01*
G01X5677Y18442D01*
G01X5668Y18442D01*
G01X5668Y18451D01*
G37*
G36*
G01X4006Y18451D02*
G01X5659Y18451D01*
G01X5659Y18442D01*
G01X4006Y18442D01*
G01X4006Y18451D01*
G37*
G36*
G01X6051Y18442D02*
G01X7677Y18442D01*
G01X7677Y18434D01*
G01X6051Y18434D01*
G01X6051Y18442D01*
G37*
G36*
G01X5624Y18442D02*
G01X5633Y18442D01*
G01X5633Y18434D01*
G01X5624Y18434D01*
G01X5624Y18442D01*
G37*
G36*
G01X4006Y18442D02*
G01X5615Y18442D01*
G01X5615Y18434D01*
G01X4006Y18434D01*
G01X4006Y18442D01*
G37*
G36*
G01X6077Y18434D02*
G01X7686Y18434D01*
G01X7686Y18425D01*
G01X6077Y18425D01*
G01X6077Y18434D01*
G37*
G36*
G01X3997Y18434D02*
G01X5606Y18434D01*
G01X5606Y18425D01*
G01X3997Y18425D01*
G01X3997Y18434D01*
G37*
G36*
G01X6104Y18425D02*
G01X7686Y18425D01*
G01X7686Y18416D01*
G01X6104Y18416D01*
G01X6104Y18425D01*
G37*
G36*
G01X3988Y18425D02*
G01X5579Y18425D01*
G01X5579Y18416D01*
G01X3988Y18416D01*
G01X3988Y18425D01*
G37*
G36*
G01X6113Y18416D02*
G01X7686Y18416D01*
G01X7686Y18407D01*
G01X6113Y18407D01*
G01X6113Y18416D01*
G37*
G36*
G01X5562Y18416D02*
G01X5570Y18416D01*
G01X5570Y18407D01*
G01X5562Y18407D01*
G01X5562Y18416D01*
G37*
G36*
G01X3988Y18416D02*
G01X5553Y18416D01*
G01X5553Y18407D01*
G01X3988Y18407D01*
G01X3988Y18416D01*
G37*
G36*
G01X6139Y18407D02*
G01X7695Y18407D01*
G01X7695Y18398D01*
G01X6139Y18398D01*
G01X6139Y18407D01*
G37*
G36*
G01X3988Y18407D02*
G01X5526Y18407D01*
G01X5526Y18398D01*
G01X3988Y18398D01*
G01X3988Y18407D01*
G37*
G36*
G01X6157Y18398D02*
G01X7704Y18398D01*
G01X7704Y18389D01*
G01X6157Y18389D01*
G01X6157Y18398D01*
G37*
G36*
G01X3979Y18398D02*
G01X5517Y18398D01*
G01X5517Y18389D01*
G01X3979Y18389D01*
G01X3979Y18398D01*
G37*
G36*
G01X6175Y18389D02*
G01X7695Y18389D01*
G01X7695Y18380D01*
G01X6175Y18380D01*
G01X6175Y18389D01*
G37*
G36*
G01X3979Y18389D02*
G01X5490Y18389D01*
G01X5490Y18380D01*
G01X3979Y18380D01*
G01X3979Y18389D01*
G37*
G36*
G01X6184Y18380D02*
G01X7704Y18380D01*
G01X7704Y18371D01*
G01X6184Y18371D01*
G01X6184Y18380D01*
G37*
G36*
G01X3970Y18380D02*
G01X5482Y18380D01*
G01X5482Y18371D01*
G01X3970Y18371D01*
G01X3970Y18380D01*
G37*
G36*
G01X6211Y18371D02*
G01X7713Y18371D01*
G01X7713Y18362D01*
G01X6211Y18362D01*
G01X6211Y18371D01*
G37*
G36*
G01X3970Y18371D02*
G01X5473Y18371D01*
G01X5473Y18362D01*
G01X3970Y18362D01*
G01X3970Y18371D01*
G37*
G36*
G01X6219Y18362D02*
G01X7713Y18362D01*
G01X7713Y18354D01*
G01X6219Y18354D01*
G01X6219Y18362D01*
G37*
G36*
G01X3961Y18362D02*
G01X5446Y18362D01*
G01X5446Y18354D01*
G01X3961Y18354D01*
G01X3961Y18362D01*
G37*
G36*
G01X6246Y18354D02*
G01X7713Y18354D01*
G01X7713Y18345D01*
G01X6246Y18345D01*
G01X6246Y18354D01*
G37*
G36*
G01X3970Y18354D02*
G01X5437Y18354D01*
G01X5437Y18345D01*
G01X3970Y18345D01*
G01X3970Y18354D01*
G37*
G36*
G01X6255Y18345D02*
G01X7722Y18345D01*
G01X7722Y18336D01*
G01X6255Y18336D01*
G01X6255Y18345D01*
G37*
G36*
G01X3961Y18345D02*
G01X5428Y18345D01*
G01X5428Y18336D01*
G01X3961Y18336D01*
G01X3961Y18345D01*
G37*
G36*
G01X6264Y18336D02*
G01X7722Y18336D01*
G01X7722Y18327D01*
G01X6264Y18327D01*
G01X6264Y18336D01*
G37*
G36*
G01X3953Y18336D02*
G01X5410Y18336D01*
G01X5410Y18327D01*
G01X3953Y18327D01*
G01X3953Y18336D01*
G37*
G36*
G01X6273Y18327D02*
G01X7722Y18327D01*
G01X7722Y18318D01*
G01X6273Y18318D01*
G01X6273Y18327D01*
G37*
G36*
G01X3953Y18327D02*
G01X5402Y18327D01*
G01X5402Y18318D01*
G01X3953Y18318D01*
G01X3953Y18327D01*
G37*
G36*
G01X6282Y18318D02*
G01X7731Y18318D01*
G01X7731Y18309D01*
G01X6282Y18309D01*
G01X6282Y18318D01*
G37*
G36*
G01X3953Y18318D02*
G01X5384Y18318D01*
G01X5384Y18309D01*
G01X3953Y18309D01*
G01X3953Y18318D01*
G37*
G36*
G01X6291Y18309D02*
G01X7740Y18309D01*
G01X7740Y18300D01*
G01X6291Y18300D01*
G01X6291Y18309D01*
G37*
G36*
G01X3944Y18309D02*
G01X5375Y18309D01*
G01X5375Y18300D01*
G01X3944Y18300D01*
G01X3944Y18309D01*
G37*
G36*
G01X6317Y18300D02*
G01X7740Y18300D01*
G01X7740Y18291D01*
G01X6317Y18291D01*
G01X6317Y18300D01*
G37*
G36*
G01X3935Y18300D02*
G01X5366Y18300D01*
G01X5366Y18291D01*
G01X3935Y18291D01*
G01X3935Y18300D01*
G37*
G36*
G01X6317Y18291D02*
G01X7740Y18291D01*
G01X7740Y18282D01*
G01X6317Y18282D01*
G01X6317Y18291D01*
G37*
G36*
G01X3935Y18291D02*
G01X5357Y18291D01*
G01X5357Y18282D01*
G01X3935Y18282D01*
G01X3935Y18291D01*
G37*
G36*
G01X6335Y18282D02*
G01X7749Y18282D01*
G01X7749Y18274D01*
G01X6335Y18274D01*
G01X6335Y18282D01*
G37*
G36*
G01X3935Y18282D02*
G01X5348Y18282D01*
G01X5348Y18274D01*
G01X3935Y18274D01*
G01X3935Y18282D01*
G37*
G36*
G01X6335Y18274D02*
G01X7749Y18274D01*
G01X7749Y18265D01*
G01X6335Y18265D01*
G01X6335Y18274D01*
G37*
G36*
G01X3926Y18274D02*
G01X5339Y18274D01*
G01X5339Y18265D01*
G01X3926Y18265D01*
G01X3926Y18274D01*
G37*
G36*
G01X6353Y18265D02*
G01X7749Y18265D01*
G01X7749Y18256D01*
G01X6353Y18256D01*
G01X6353Y18265D01*
G37*
G36*
G01X3926Y18265D02*
G01X5330Y18265D01*
G01X5330Y18256D01*
G01X3926Y18256D01*
G01X3926Y18265D01*
G37*
G36*
G01X6362Y18256D02*
G01X7757Y18256D01*
G01X7757Y18247D01*
G01X6362Y18247D01*
G01X6362Y18256D01*
G37*
G36*
G01X3926Y18256D02*
G01X5322Y18256D01*
G01X5322Y18247D01*
G01X3926Y18247D01*
G01X3926Y18256D01*
G37*
G36*
G01X6371Y18247D02*
G01X7766Y18247D01*
G01X7766Y18238D01*
G01X6371Y18238D01*
G01X6371Y18247D01*
G37*
G36*
G01X3917Y18247D02*
G01X5313Y18247D01*
G01X5313Y18238D01*
G01X3917Y18238D01*
G01X3917Y18247D01*
G37*
G36*
G01X6379Y18238D02*
G01X7775Y18238D01*
G01X7775Y18229D01*
G01X6379Y18229D01*
G01X6379Y18238D01*
G37*
G36*
G01X3899Y18238D02*
G01X5304Y18238D01*
G01X5304Y18229D01*
G01X3899Y18229D01*
G01X3899Y18238D01*
G37*
G36*
G01X7793Y18229D02*
G01X7802Y18229D01*
G01X7802Y18220D01*
G01X7793Y18220D01*
G01X7793Y18229D01*
G37*
G36*
G01X6388Y18229D02*
G01X7784Y18229D01*
G01X7784Y18220D01*
G01X6388Y18220D01*
G01X6388Y18229D01*
G37*
G36*
G01X3881Y18229D02*
G01X5295Y18229D01*
G01X5295Y18220D01*
G01X3881Y18220D01*
G01X3881Y18229D01*
G37*
G36*
G01X7855Y18220D02*
G01X7864Y18220D01*
G01X7864Y18211D01*
G01X7855Y18211D01*
G01X7855Y18220D01*
G37*
G36*
G01X6388Y18220D02*
G01X7846Y18220D01*
G01X7846Y18211D01*
G01X6388Y18211D01*
G01X6388Y18220D01*
G37*
G36*
G01X3837Y18220D02*
G01X5286Y18220D01*
G01X5286Y18211D01*
G01X3837Y18211D01*
G01X3837Y18220D01*
G37*
G36*
G01X3819Y18220D02*
G01X3828Y18220D01*
G01X3828Y18211D01*
G01X3819Y18211D01*
G01X3819Y18220D01*
G37*
G36*
G01X7900Y18211D02*
G01X7909Y18211D01*
G01X7909Y18202D01*
G01X7900Y18202D01*
G01X7900Y18211D01*
G37*
G36*
G01X6397Y18211D02*
G01X7891Y18211D01*
G01X7891Y18202D01*
G01X6397Y18202D01*
G01X6397Y18211D01*
G37*
G36*
G01X3792Y18211D02*
G01X5277Y18211D01*
G01X5277Y18202D01*
G01X3792Y18202D01*
G01X3792Y18211D01*
G37*
G36*
G01X3775Y18211D02*
G01X3784Y18211D01*
G01X3784Y18202D01*
G01X3775Y18202D01*
G01X3775Y18211D01*
G37*
G36*
G01X6397Y18202D02*
G01X7953Y18202D01*
G01X7953Y18194D01*
G01X6397Y18194D01*
G01X6397Y18202D01*
G37*
G36*
G01X3730Y18202D02*
G01X5268Y18202D01*
G01X5268Y18194D01*
G01X3730Y18194D01*
G01X3730Y18202D01*
G37*
G36*
G01X3712Y18202D02*
G01X3721Y18202D01*
G01X3721Y18194D01*
G01X3712Y18194D01*
G01X3712Y18202D01*
G37*
G36*
G01X7989Y18194D02*
G01X7997Y18194D01*
G01X7997Y18185D01*
G01X7989Y18185D01*
G01X7989Y18194D01*
G37*
G36*
G01X6415Y18194D02*
G01X7980Y18194D01*
G01X7980Y18185D01*
G01X6415Y18185D01*
G01X6415Y18194D01*
G37*
G36*
G01X3704Y18194D02*
G01X5259Y18194D01*
G01X5259Y18185D01*
G01X3704Y18185D01*
G01X3704Y18194D01*
G37*
G36*
G01X3686Y18194D02*
G01X3695Y18194D01*
G01X3695Y18185D01*
G01X3686Y18185D01*
G01X3686Y18194D01*
G37*
G36*
G01X8051Y18185D02*
G01X8060Y18185D01*
G01X8060Y18176D01*
G01X8051Y18176D01*
G01X8051Y18185D01*
G37*
G36*
G01X6415Y18185D02*
G01X8042Y18185D01*
G01X8042Y18176D01*
G01X6415Y18176D01*
G01X6415Y18185D01*
G37*
G36*
G01X3641Y18185D02*
G01X5259Y18185D01*
G01X5259Y18176D01*
G01X3641Y18176D01*
G01X3641Y18185D01*
G37*
G36*
G01X3624Y18185D02*
G01X3632Y18185D01*
G01X3632Y18176D01*
G01X3624Y18176D01*
G01X3624Y18185D01*
G37*
G36*
G01X8077Y18176D02*
G01X8086Y18176D01*
G01X8086Y18167D01*
G01X8077Y18167D01*
G01X8077Y18176D01*
G37*
G36*
G01X6424Y18176D02*
G01X8069Y18176D01*
G01X8069Y18167D01*
G01X6424Y18167D01*
G01X6424Y18176D01*
G37*
G36*
G01X3597Y18176D02*
G01X5250Y18176D01*
G01X5250Y18167D01*
G01X3597Y18167D01*
G01X3597Y18176D01*
G37*
G36*
G01X3579Y18176D02*
G01X3588Y18176D01*
G01X3588Y18167D01*
G01X3579Y18167D01*
G01X3579Y18176D01*
G37*
G36*
G01X8140Y18167D02*
G01X8149Y18167D01*
G01X8149Y18158D01*
G01X8140Y18158D01*
G01X8140Y18167D01*
G37*
G36*
G01X6433Y18167D02*
G01X8131Y18167D01*
G01X8131Y18158D01*
G01X6433Y18158D01*
G01X6433Y18167D01*
G37*
G36*
G01X3535Y18167D02*
G01X5250Y18167D01*
G01X5250Y18158D01*
G01X3535Y18158D01*
G01X3535Y18167D01*
G37*
G36*
G01X3517Y18167D02*
G01X3526Y18167D01*
G01X3526Y18158D01*
G01X3517Y18158D01*
G01X3517Y18167D01*
G37*
G36*
G01X6442Y18158D02*
G01X8175Y18158D01*
G01X8175Y18149D01*
G01X6442Y18149D01*
G01X6442Y18158D01*
G37*
G36*
G01X3508Y18158D02*
G01X5242Y18158D01*
G01X5242Y18149D01*
G01X3508Y18149D01*
G01X3508Y18158D01*
G37*
G36*
G01X3490Y18158D02*
G01X3499Y18158D01*
G01X3499Y18149D01*
G01X3490Y18149D01*
G01X3490Y18158D01*
G37*
G36*
G01X8229Y18149D02*
G01X8237Y18149D01*
G01X8237Y18140D01*
G01X8229Y18140D01*
G01X8229Y18149D01*
G37*
G36*
G01X6451Y18149D02*
G01X8220Y18149D01*
G01X8220Y18140D01*
G01X6451Y18140D01*
G01X6451Y18149D01*
G37*
G36*
G01X3446Y18149D02*
G01X5233Y18149D01*
G01X5233Y18140D01*
G01X3446Y18140D01*
G01X3446Y18149D01*
G37*
G36*
G01X3428Y18149D02*
G01X3437Y18149D01*
G01X3437Y18140D01*
G01X3428Y18140D01*
G01X3428Y18149D01*
G37*
G36*
G01X8273Y18140D02*
G01X8282Y18140D01*
G01X8282Y18131D01*
G01X8273Y18131D01*
G01X8273Y18140D01*
G37*
G36*
G01X6451Y18140D02*
G01X8264Y18140D01*
G01X8264Y18131D01*
G01X6451Y18131D01*
G01X6451Y18140D01*
G37*
G36*
G01X3401Y18140D02*
G01X5224Y18140D01*
G01X5224Y18131D01*
G01X3401Y18131D01*
G01X3401Y18140D01*
G37*
G36*
G01X8335Y18131D02*
G01X8344Y18131D01*
G01X8344Y18122D01*
G01X8335Y18122D01*
G01X8335Y18131D01*
G37*
G36*
G01X6451Y18131D02*
G01X8326Y18131D01*
G01X8326Y18122D01*
G01X6451Y18122D01*
G01X6451Y18131D01*
G37*
G36*
G01X3357Y18131D02*
G01X5215Y18131D01*
G01X5215Y18122D01*
G01X3357Y18122D01*
G01X3357Y18131D01*
G37*
G36*
G01X3339Y18131D02*
G01X3348Y18131D01*
G01X3348Y18122D01*
G01X3339Y18122D01*
G01X3339Y18131D01*
G37*
G36*
G01X6459Y18122D02*
G01X8371Y18122D01*
G01X8371Y18114D01*
G01X6459Y18114D01*
G01X6459Y18122D01*
G37*
G36*
G01X3312Y18122D02*
G01X5206Y18122D01*
G01X5206Y18114D01*
G01X3312Y18114D01*
G01X3312Y18122D01*
G37*
G36*
G01X8424Y18114D02*
G01X8433Y18114D01*
G01X8433Y18105D01*
G01X8424Y18105D01*
G01X8424Y18114D01*
G37*
G36*
G01X6468Y18114D02*
G01X8415Y18114D01*
G01X8415Y18105D01*
G01X6468Y18105D01*
G01X6468Y18114D01*
G37*
G36*
G01X3250Y18114D02*
G01X5215Y18114D01*
G01X5215Y18105D01*
G01X3250Y18105D01*
G01X3250Y18114D01*
G37*
G36*
G01X6477Y18105D02*
G01X8442Y18105D01*
G01X8442Y18096D01*
G01X6477Y18096D01*
G01X6477Y18105D01*
G37*
G36*
G01X3224Y18105D02*
G01X5206Y18105D01*
G01X5206Y18096D01*
G01X3224Y18096D01*
G01X3224Y18105D01*
G37*
G36*
G01X6468Y18096D02*
G01X8460Y18096D01*
G01X8460Y18087D01*
G01X6468Y18087D01*
G01X6468Y18096D01*
G37*
G36*
G01X3215Y18096D02*
G01X5197Y18096D01*
G01X5197Y18087D01*
G01X3215Y18087D01*
G01X3215Y18096D01*
G37*
G36*
G01X6486Y18087D02*
G01X8460Y18087D01*
G01X8460Y18078D01*
G01X6486Y18078D01*
G01X6486Y18087D01*
G37*
G36*
G01X3215Y18087D02*
G01X5188Y18087D01*
G01X5188Y18078D01*
G01X3215Y18078D01*
G01X3215Y18087D01*
G37*
G36*
G01X6486Y18078D02*
G01X8469Y18078D01*
G01X8469Y18069D01*
G01X6486Y18069D01*
G01X6486Y18078D01*
G37*
G36*
G01X3215Y18078D02*
G01X5197Y18078D01*
G01X5197Y18069D01*
G01X3215Y18069D01*
G01X3215Y18078D01*
G37*
G36*
G01X6495Y18069D02*
G01X8460Y18069D01*
G01X8460Y18060D01*
G01X6495Y18060D01*
G01X6495Y18069D01*
G37*
G36*
G01X3215Y18069D02*
G01X5188Y18069D01*
G01X5188Y18060D01*
G01X3215Y18060D01*
G01X3215Y18069D01*
G37*
G36*
G01X6495Y18060D02*
G01X8469Y18060D01*
G01X8469Y18051D01*
G01X6495Y18051D01*
G01X6495Y18060D01*
G37*
G36*
G01X3215Y18060D02*
G01X5179Y18060D01*
G01X5179Y18051D01*
G01X3215Y18051D01*
G01X3215Y18060D01*
G37*
G36*
G01X6504Y18051D02*
G01X8460Y18051D01*
G01X8460Y18042D01*
G01X6504Y18042D01*
G01X6504Y18051D01*
G37*
G36*
G01X3215Y18051D02*
G01X5170Y18051D01*
G01X5170Y18042D01*
G01X3215Y18042D01*
G01X3215Y18051D01*
G37*
G36*
G01X6504Y18042D02*
G01X8469Y18042D01*
G01X8469Y18034D01*
G01X6504Y18034D01*
G01X6504Y18042D01*
G37*
G36*
G01X3215Y18042D02*
G01X5179Y18042D01*
G01X5179Y18034D01*
G01X3215Y18034D01*
G01X3215Y18042D01*
G37*
G36*
G01X6513Y18034D02*
G01X8460Y18034D01*
G01X8460Y18025D01*
G01X6513Y18025D01*
G01X6513Y18034D01*
G37*
G36*
G01X3215Y18034D02*
G01X5170Y18034D01*
G01X5170Y18025D01*
G01X3215Y18025D01*
G01X3215Y18034D01*
G37*
G36*
G01X6504Y18025D02*
G01X8469Y18025D01*
G01X8469Y18016D01*
G01X6504Y18016D01*
G01X6504Y18025D01*
G37*
G36*
G01X3215Y18025D02*
G01X5162Y18025D01*
G01X5162Y18016D01*
G01X3215Y18016D01*
G01X3215Y18025D01*
G37*
G36*
G01X6513Y18016D02*
G01X8460Y18016D01*
G01X8460Y18007D01*
G01X6513Y18007D01*
G01X6513Y18016D01*
G37*
G36*
G01X3215Y18016D02*
G01X5153Y18016D01*
G01X5153Y18007D01*
G01X3215Y18007D01*
G01X3215Y18016D01*
G37*
G36*
G01X6522Y18007D02*
G01X8469Y18007D01*
G01X8469Y17998D01*
G01X6522Y17998D01*
G01X6522Y18007D01*
G37*
G36*
G01X3215Y18007D02*
G01X5162Y18007D01*
G01X5162Y17998D01*
G01X3215Y17998D01*
G01X3215Y18007D01*
G37*
G36*
G01X6531Y17998D02*
G01X8460Y17998D01*
G01X8460Y17989D01*
G01X6531Y17989D01*
G01X6531Y17998D01*
G37*
G36*
G01X3215Y17998D02*
G01X5153Y17998D01*
G01X5153Y17989D01*
G01X3215Y17989D01*
G01X3215Y17998D01*
G37*
G36*
G01X6522Y17989D02*
G01X8469Y17989D01*
G01X8469Y17980D01*
G01X6522Y17980D01*
G01X6522Y17989D01*
G37*
G36*
G01X3215Y17989D02*
G01X5153Y17989D01*
G01X5153Y17980D01*
G01X3215Y17980D01*
G01X3215Y17989D01*
G37*
G36*
G01X6531Y17980D02*
G01X8460Y17980D01*
G01X8460Y17971D01*
G01X6531Y17971D01*
G01X6531Y17980D01*
G37*
G36*
G01X3215Y17980D02*
G01X5144Y17980D01*
G01X5144Y17971D01*
G01X3215Y17971D01*
G01X3215Y17980D01*
G37*
G36*
G01X6531Y17971D02*
G01X8469Y17971D01*
G01X8469Y17962D01*
G01X6531Y17962D01*
G01X6531Y17971D01*
G37*
G36*
G01X3215Y17971D02*
G01X5144Y17971D01*
G01X5144Y17962D01*
G01X3215Y17962D01*
G01X3215Y17971D01*
G37*
G36*
G01X6531Y17962D02*
G01X8460Y17962D01*
G01X8460Y17953D01*
G01X6531Y17953D01*
G01X6531Y17962D01*
G37*
G36*
G01X3215Y17962D02*
G01X5135Y17962D01*
G01X5135Y17953D01*
G01X3215Y17953D01*
G01X3215Y17962D01*
G37*
G36*
G01X6539Y17953D02*
G01X8469Y17953D01*
G01X8469Y17945D01*
G01X6539Y17945D01*
G01X6539Y17953D01*
G37*
G36*
G01X3215Y17953D02*
G01X5144Y17953D01*
G01X5144Y17945D01*
G01X3215Y17945D01*
G01X3215Y17953D01*
G37*
G36*
G01X6548Y17945D02*
G01X8460Y17945D01*
G01X8460Y17936D01*
G01X6548Y17936D01*
G01X6548Y17945D01*
G37*
G36*
G01X3215Y17945D02*
G01X5135Y17945D01*
G01X5135Y17936D01*
G01X3215Y17936D01*
G01X3215Y17945D01*
G37*
G36*
G01X6539Y17936D02*
G01X8469Y17936D01*
G01X8469Y17927D01*
G01X6539Y17927D01*
G01X6539Y17936D01*
G37*
G36*
G01X3215Y17936D02*
G01X5135Y17936D01*
G01X5135Y17927D01*
G01X3215Y17927D01*
G01X3215Y17936D01*
G37*
G36*
G01X6548Y17927D02*
G01X8460Y17927D01*
G01X8460Y17918D01*
G01X6548Y17918D01*
G01X6548Y17927D01*
G37*
G36*
G01X3215Y17927D02*
G01X5135Y17927D01*
G01X5135Y17918D01*
G01X3215Y17918D01*
G01X3215Y17927D01*
G37*
G36*
G01X6548Y17918D02*
G01X8469Y17918D01*
G01X8469Y17909D01*
G01X6548Y17909D01*
G01X6548Y17918D01*
G37*
G36*
G01X3215Y17918D02*
G01X5126Y17918D01*
G01X5126Y17909D01*
G01X3215Y17909D01*
G01X3215Y17918D01*
G37*
G36*
G01X6548Y17909D02*
G01X8460Y17909D01*
G01X8460Y17900D01*
G01X6548Y17900D01*
G01X6548Y17909D01*
G37*
G36*
G01X3215Y17909D02*
G01X5126Y17909D01*
G01X5126Y17900D01*
G01X3215Y17900D01*
G01X3215Y17909D01*
G37*
G36*
G01X6557Y17900D02*
G01X8469Y17900D01*
G01X8469Y17891D01*
G01X6557Y17891D01*
G01X6557Y17900D01*
G37*
G36*
G01X3215Y17900D02*
G01X5126Y17900D01*
G01X5126Y17891D01*
G01X3215Y17891D01*
G01X3215Y17900D01*
G37*
G36*
G01X6557Y17891D02*
G01X8460Y17891D01*
G01X8460Y17882D01*
G01X6557Y17882D01*
G01X6557Y17891D01*
G37*
G36*
G01X3215Y17891D02*
G01X5117Y17891D01*
G01X5117Y17882D01*
G01X3215Y17882D01*
G01X3215Y17891D01*
G37*
G36*
G01X6557Y17882D02*
G01X8469Y17882D01*
G01X8469Y17873D01*
G01X6557Y17873D01*
G01X6557Y17882D01*
G37*
G36*
G01X3215Y17882D02*
G01X5126Y17882D01*
G01X5126Y17873D01*
G01X3215Y17873D01*
G01X3215Y17882D01*
G37*
G36*
G01X6557Y17873D02*
G01X8460Y17873D01*
G01X8460Y17865D01*
G01X6557Y17865D01*
G01X6557Y17873D01*
G37*
G36*
G01X3215Y17873D02*
G01X5117Y17873D01*
G01X5117Y17865D01*
G01X3215Y17865D01*
G01X3215Y17873D01*
G37*
G36*
G01X6557Y17865D02*
G01X8469Y17865D01*
G01X8469Y17856D01*
G01X6557Y17856D01*
G01X6557Y17865D01*
G37*
G36*
G01X3215Y17865D02*
G01X5117Y17865D01*
G01X5117Y17856D01*
G01X3215Y17856D01*
G01X3215Y17865D01*
G37*
G36*
G01X6566Y17856D02*
G01X8460Y17856D01*
G01X8460Y17847D01*
G01X6566Y17847D01*
G01X6566Y17856D01*
G37*
G36*
G01X3215Y17856D02*
G01X5117Y17856D01*
G01X5117Y17847D01*
G01X3215Y17847D01*
G01X3215Y17856D01*
G37*
G36*
G01X6557Y17847D02*
G01X8469Y17847D01*
G01X8469Y17838D01*
G01X6557Y17838D01*
G01X6557Y17847D01*
G37*
G36*
G01X3215Y17847D02*
G01X5117Y17847D01*
G01X5117Y17838D01*
G01X3215Y17838D01*
G01X3215Y17847D01*
G37*
G36*
G01X6566Y17838D02*
G01X8460Y17838D01*
G01X8460Y17829D01*
G01X6566Y17829D01*
G01X6566Y17838D01*
G37*
G36*
G01X3215Y17838D02*
G01X5117Y17838D01*
G01X5117Y17829D01*
G01X3215Y17829D01*
G01X3215Y17838D01*
G37*
G36*
G01X6557Y17829D02*
G01X8469Y17829D01*
G01X8469Y17820D01*
G01X6557Y17820D01*
G01X6557Y17829D01*
G37*
G36*
G01X3215Y17829D02*
G01X5108Y17829D01*
G01X5108Y17820D01*
G01X3215Y17820D01*
G01X3215Y17829D01*
G37*
G36*
G01X6566Y17820D02*
G01X8460Y17820D01*
G01X8460Y17811D01*
G01X6566Y17811D01*
G01X6566Y17820D01*
G37*
G36*
G01X3215Y17820D02*
G01X5108Y17820D01*
G01X5108Y17811D01*
G01X3215Y17811D01*
G01X3215Y17820D01*
G37*
G36*
G01X6566Y17811D02*
G01X8469Y17811D01*
G01X8469Y17802D01*
G01X6566Y17802D01*
G01X6566Y17811D01*
G37*
G36*
G01X3215Y17811D02*
G01X5108Y17811D01*
G01X5108Y17802D01*
G01X3215Y17802D01*
G01X3215Y17811D01*
G37*
G36*
G01X6566Y17802D02*
G01X8460Y17802D01*
G01X8460Y17793D01*
G01X6566Y17793D01*
G01X6566Y17802D01*
G37*
G36*
G01X3215Y17802D02*
G01X5108Y17802D01*
G01X5108Y17793D01*
G01X3215Y17793D01*
G01X3215Y17802D01*
G37*
G36*
G01X6566Y17793D02*
G01X8469Y17793D01*
G01X8469Y17785D01*
G01X6566Y17785D01*
G01X6566Y17793D01*
G37*
G36*
G01X3215Y17793D02*
G01X5108Y17793D01*
G01X5108Y17785D01*
G01X3215Y17785D01*
G01X3215Y17793D01*
G37*
G36*
G01X6566Y17785D02*
G01X8460Y17785D01*
G01X8460Y17776D01*
G01X6566Y17776D01*
G01X6566Y17785D01*
G37*
G36*
G01X3215Y17785D02*
G01X5108Y17785D01*
G01X5108Y17776D01*
G01X3215Y17776D01*
G01X3215Y17785D01*
G37*
G36*
G01X6566Y17776D02*
G01X8469Y17776D01*
G01X8469Y17767D01*
G01X6566Y17767D01*
G01X6566Y17776D01*
G37*
G36*
G01X3215Y17776D02*
G01X5108Y17776D01*
G01X5108Y17767D01*
G01X3215Y17767D01*
G01X3215Y17776D01*
G37*
G36*
G01X6566Y17767D02*
G01X8460Y17767D01*
G01X8460Y17758D01*
G01X6566Y17758D01*
G01X6566Y17767D01*
G37*
G36*
G01X3215Y17767D02*
G01X5108Y17767D01*
G01X5108Y17758D01*
G01X3215Y17758D01*
G01X3215Y17767D01*
G37*
G36*
G01X6575Y17758D02*
G01X8469Y17758D01*
G01X8469Y17749D01*
G01X6575Y17749D01*
G01X6575Y17758D01*
G37*
G36*
G01X3215Y17758D02*
G01X5108Y17758D01*
G01X5108Y17749D01*
G01X3215Y17749D01*
G01X3215Y17758D01*
G37*
G36*
G01X6566Y17749D02*
G01X8460Y17749D01*
G01X8460Y17740D01*
G01X6566Y17740D01*
G01X6566Y17749D01*
G37*
G36*
G01X3215Y17749D02*
G01X5099Y17749D01*
G01X5099Y17740D01*
G01X3215Y17740D01*
G01X3215Y17749D01*
G37*
G36*
G01X6575Y17740D02*
G01X8469Y17740D01*
G01X8469Y17731D01*
G01X6575Y17731D01*
G01X6575Y17740D01*
G37*
G36*
G01X3215Y17740D02*
G01X5108Y17740D01*
G01X5108Y17731D01*
G01X3215Y17731D01*
G01X3215Y17740D01*
G37*
G36*
G01X6566Y17731D02*
G01X8460Y17731D01*
G01X8460Y17722D01*
G01X6566Y17722D01*
G01X6566Y17731D01*
G37*
G36*
G01X3215Y17731D02*
G01X5099Y17731D01*
G01X5099Y17722D01*
G01X3215Y17722D01*
G01X3215Y17731D01*
G37*
G36*
G01X6566Y17722D02*
G01X8469Y17722D01*
G01X8469Y17713D01*
G01X6566Y17713D01*
G01X6566Y17722D01*
G37*
G36*
G01X3215Y17722D02*
G01X5108Y17722D01*
G01X5108Y17713D01*
G01X3215Y17713D01*
G01X3215Y17722D01*
G37*
G36*
G01X6566Y17713D02*
G01X8460Y17713D01*
G01X8460Y17705D01*
G01X6566Y17705D01*
G01X6566Y17713D01*
G37*
G36*
G01X3215Y17713D02*
G01X5108Y17713D01*
G01X5108Y17705D01*
G01X3215Y17705D01*
G01X3215Y17713D01*
G37*
G36*
G01X6566Y17705D02*
G01X8469Y17705D01*
G01X8469Y17696D01*
G01X6566Y17696D01*
G01X6566Y17705D01*
G37*
G36*
G01X3215Y17705D02*
G01X5108Y17705D01*
G01X5108Y17696D01*
G01X3215Y17696D01*
G01X3215Y17705D01*
G37*
G36*
G01X6566Y17696D02*
G01X8460Y17696D01*
G01X8460Y17687D01*
G01X6566Y17687D01*
G01X6566Y17696D01*
G37*
G36*
G01X3215Y17696D02*
G01X5108Y17696D01*
G01X5108Y17687D01*
G01X3215Y17687D01*
G01X3215Y17696D01*
G37*
G36*
G01X6566Y17687D02*
G01X8469Y17687D01*
G01X8469Y17678D01*
G01X6566Y17678D01*
G01X6566Y17687D01*
G37*
G36*
G01X3215Y17687D02*
G01X5108Y17687D01*
G01X5108Y17678D01*
G01X3215Y17678D01*
G01X3215Y17687D01*
G37*
G36*
G01X6566Y17678D02*
G01X8460Y17678D01*
G01X8460Y17669D01*
G01X6566Y17669D01*
G01X6566Y17678D01*
G37*
G36*
G01X3215Y17678D02*
G01X5108Y17678D01*
G01X5108Y17669D01*
G01X3215Y17669D01*
G01X3215Y17678D01*
G37*
G36*
G01X6566Y17669D02*
G01X8469Y17669D01*
G01X8469Y17660D01*
G01X6566Y17660D01*
G01X6566Y17669D01*
G37*
G36*
G01X3215Y17669D02*
G01X5108Y17669D01*
G01X5108Y17660D01*
G01X3215Y17660D01*
G01X3215Y17669D01*
G37*
G36*
G01X6566Y17660D02*
G01X8460Y17660D01*
G01X8460Y17651D01*
G01X6566Y17651D01*
G01X6566Y17660D01*
G37*
G36*
G01X3215Y17660D02*
G01X5108Y17660D01*
G01X5108Y17651D01*
G01X3215Y17651D01*
G01X3215Y17660D01*
G37*
G36*
G01X6557Y17651D02*
G01X8469Y17651D01*
G01X8469Y17642D01*
G01X6557Y17642D01*
G01X6557Y17651D01*
G37*
G36*
G01X3215Y17651D02*
G01X5108Y17651D01*
G01X5108Y17642D01*
G01X3215Y17642D01*
G01X3215Y17651D01*
G37*
G36*
G01X6566Y17642D02*
G01X8460Y17642D01*
G01X8460Y17633D01*
G01X6566Y17633D01*
G01X6566Y17642D01*
G37*
G36*
G01X3215Y17642D02*
G01X5117Y17642D01*
G01X5117Y17633D01*
G01X3215Y17633D01*
G01X3215Y17642D01*
G37*
G36*
G01X6557Y17633D02*
G01X8469Y17633D01*
G01X8469Y17625D01*
G01X6557Y17625D01*
G01X6557Y17633D01*
G37*
G36*
G01X3215Y17633D02*
G01X5117Y17633D01*
G01X5117Y17625D01*
G01X3215Y17625D01*
G01X3215Y17633D01*
G37*
G36*
G01X6566Y17625D02*
G01X8460Y17625D01*
G01X8460Y17616D01*
G01X6566Y17616D01*
G01X6566Y17625D01*
G37*
G36*
G01X3215Y17625D02*
G01X5117Y17625D01*
G01X5117Y17616D01*
G01X3215Y17616D01*
G01X3215Y17625D01*
G37*
G36*
G01X6557Y17616D02*
G01X8469Y17616D01*
G01X8469Y17607D01*
G01X6557Y17607D01*
G01X6557Y17616D01*
G37*
G36*
G01X3215Y17616D02*
G01X5117Y17616D01*
G01X5117Y17607D01*
G01X3215Y17607D01*
G01X3215Y17616D01*
G37*
G36*
G01X6557Y17607D02*
G01X8460Y17607D01*
G01X8460Y17598D01*
G01X6557Y17598D01*
G01X6557Y17607D01*
G37*
G36*
G01X3215Y17607D02*
G01X5117Y17607D01*
G01X5117Y17598D01*
G01X3215Y17598D01*
G01X3215Y17607D01*
G37*
G36*
G01X6557Y17598D02*
G01X8469Y17598D01*
G01X8469Y17589D01*
G01X6557Y17589D01*
G01X6557Y17598D01*
G37*
G36*
G01X3215Y17598D02*
G01X5126Y17598D01*
G01X5126Y17589D01*
G01X3215Y17589D01*
G01X3215Y17598D01*
G37*
G36*
G01X6557Y17589D02*
G01X8460Y17589D01*
G01X8460Y17580D01*
G01X6557Y17580D01*
G01X6557Y17589D01*
G37*
G36*
G01X3215Y17589D02*
G01X5117Y17589D01*
G01X5117Y17580D01*
G01X3215Y17580D01*
G01X3215Y17589D01*
G37*
G36*
G01X6557Y17580D02*
G01X8469Y17580D01*
G01X8469Y17571D01*
G01X6557Y17571D01*
G01X6557Y17580D01*
G37*
G36*
G01X3215Y17580D02*
G01X5126Y17580D01*
G01X5126Y17571D01*
G01X3215Y17571D01*
G01X3215Y17580D01*
G37*
G36*
G01X6548Y17571D02*
G01X8460Y17571D01*
G01X8460Y17562D01*
G01X6548Y17562D01*
G01X6548Y17571D01*
G37*
G36*
G01X3215Y17571D02*
G01X5126Y17571D01*
G01X5126Y17562D01*
G01X3215Y17562D01*
G01X3215Y17571D01*
G37*
G36*
G01X6548Y17562D02*
G01X8469Y17562D01*
G01X8469Y17553D01*
G01X6548Y17553D01*
G01X6548Y17562D01*
G37*
G36*
G01X3215Y17562D02*
G01X5126Y17562D01*
G01X5126Y17553D01*
G01X3215Y17553D01*
G01X3215Y17562D01*
G37*
G36*
G01X6548Y17553D02*
G01X8460Y17553D01*
G01X8460Y17545D01*
G01X6548Y17545D01*
G01X6548Y17553D01*
G37*
G36*
G01X3215Y17553D02*
G01X5135Y17553D01*
G01X5135Y17545D01*
G01X3215Y17545D01*
G01X3215Y17553D01*
G37*
G36*
G01X6539Y17545D02*
G01X8469Y17545D01*
G01X8469Y17536D01*
G01X6539Y17536D01*
G01X6539Y17545D01*
G37*
G36*
G01X3215Y17545D02*
G01X5135Y17545D01*
G01X5135Y17536D01*
G01X3215Y17536D01*
G01X3215Y17545D01*
G37*
G36*
G01X6548Y17536D02*
G01X8460Y17536D01*
G01X8460Y17527D01*
G01X6548Y17527D01*
G01X6548Y17536D01*
G37*
G36*
G01X3215Y17536D02*
G01X5135Y17536D01*
G01X5135Y17527D01*
G01X3215Y17527D01*
G01X3215Y17536D01*
G37*
G36*
G01X6539Y17527D02*
G01X8469Y17527D01*
G01X8469Y17518D01*
G01X6539Y17518D01*
G01X6539Y17527D01*
G37*
G36*
G01X3215Y17527D02*
G01X5144Y17527D01*
G01X5144Y17518D01*
G01X3215Y17518D01*
G01X3215Y17527D01*
G37*
G36*
G01X6531Y17518D02*
G01X8460Y17518D01*
G01X8460Y17509D01*
G01X6531Y17509D01*
G01X6531Y17518D01*
G37*
G36*
G01X3215Y17518D02*
G01X5135Y17518D01*
G01X5135Y17509D01*
G01X3215Y17509D01*
G01X3215Y17518D01*
G37*
G36*
G01X6531Y17509D02*
G01X8469Y17509D01*
G01X8469Y17500D01*
G01X6531Y17500D01*
G01X6531Y17509D01*
G37*
G36*
G01X3215Y17509D02*
G01X5144Y17509D01*
G01X5144Y17500D01*
G01X3215Y17500D01*
G01X3215Y17509D01*
G37*
G36*
G01X6531Y17500D02*
G01X8460Y17500D01*
G01X8460Y17491D01*
G01X6531Y17491D01*
G01X6531Y17500D01*
G37*
G36*
G01X3215Y17500D02*
G01X5153Y17500D01*
G01X5153Y17491D01*
G01X3215Y17491D01*
G01X3215Y17500D01*
G37*
G36*
G01X6522Y17491D02*
G01X8469Y17491D01*
G01X8469Y17482D01*
G01X6522Y17482D01*
G01X6522Y17491D01*
G37*
G36*
G01X3215Y17491D02*
G01X5153Y17491D01*
G01X5153Y17482D01*
G01X3215Y17482D01*
G01X3215Y17491D01*
G37*
G36*
G01X6531Y17482D02*
G01X8460Y17482D01*
G01X8460Y17473D01*
G01X6531Y17473D01*
G01X6531Y17482D01*
G37*
G36*
G01X3215Y17482D02*
G01X5153Y17482D01*
G01X5153Y17473D01*
G01X3215Y17473D01*
G01X3215Y17482D01*
G37*
G36*
G01X6522Y17473D02*
G01X8469Y17473D01*
G01X8469Y17465D01*
G01X6522Y17465D01*
G01X6522Y17473D01*
G37*
G36*
G01X3215Y17473D02*
G01X5162Y17473D01*
G01X5162Y17465D01*
G01X3215Y17465D01*
G01X3215Y17473D01*
G37*
G36*
G01X6513Y17465D02*
G01X8460Y17465D01*
G01X8460Y17456D01*
G01X6513Y17456D01*
G01X6513Y17465D01*
G37*
G36*
G01X3215Y17465D02*
G01X5162Y17465D01*
G01X5162Y17456D01*
G01X3215Y17456D01*
G01X3215Y17465D01*
G37*
G36*
G01X6504Y17456D02*
G01X8469Y17456D01*
G01X8469Y17447D01*
G01X6504Y17447D01*
G01X6504Y17456D01*
G37*
G36*
G01X3215Y17456D02*
G01X5162Y17456D01*
G01X5162Y17447D01*
G01X3215Y17447D01*
G01X3215Y17456D01*
G37*
G36*
G01X6513Y17447D02*
G01X8460Y17447D01*
G01X8460Y17438D01*
G01X6513Y17438D01*
G01X6513Y17447D01*
G37*
G36*
G01X3215Y17447D02*
G01X5170Y17447D01*
G01X5170Y17438D01*
G01X3215Y17438D01*
G01X3215Y17447D01*
G37*
G36*
G01X6504Y17438D02*
G01X8469Y17438D01*
G01X8469Y17429D01*
G01X6504Y17429D01*
G01X6504Y17438D01*
G37*
G36*
G01X3215Y17438D02*
G01X5179Y17438D01*
G01X5179Y17429D01*
G01X3215Y17429D01*
G01X3215Y17438D01*
G37*
G36*
G01X6504Y17429D02*
G01X8460Y17429D01*
G01X8460Y17420D01*
G01X6504Y17420D01*
G01X6504Y17429D01*
G37*
G36*
G01X3215Y17429D02*
G01X5170Y17429D01*
G01X5170Y17420D01*
G01X3215Y17420D01*
G01X3215Y17429D01*
G37*
G36*
G01X6495Y17420D02*
G01X8469Y17420D01*
G01X8469Y17411D01*
G01X6495Y17411D01*
G01X6495Y17420D01*
G37*
G36*
G01X3215Y17420D02*
G01X5179Y17420D01*
G01X5179Y17411D01*
G01X3215Y17411D01*
G01X3215Y17420D01*
G37*
G36*
G01X6495Y17411D02*
G01X8460Y17411D01*
G01X8460Y17402D01*
G01X6495Y17402D01*
G01X6495Y17411D01*
G37*
G36*
G01X3215Y17411D02*
G01X5188Y17411D01*
G01X5188Y17402D01*
G01X3215Y17402D01*
G01X3215Y17411D01*
G37*
G36*
G01X6486Y17402D02*
G01X8469Y17402D01*
G01X8469Y17393D01*
G01X6486Y17393D01*
G01X6486Y17402D01*
G37*
G36*
G01X3215Y17402D02*
G01X5188Y17402D01*
G01X5188Y17393D01*
G01X3215Y17393D01*
G01X3215Y17402D01*
G37*
G36*
G01X6486Y17393D02*
G01X8460Y17393D01*
G01X8460Y17385D01*
G01X6486Y17385D01*
G01X6486Y17393D01*
G37*
G36*
G01X3224Y17393D02*
G01X5188Y17393D01*
G01X5188Y17385D01*
G01X3224Y17385D01*
G01X3224Y17393D01*
G37*
G36*
G01X6468Y17385D02*
G01X8451Y17385D01*
G01X8451Y17376D01*
G01X6468Y17376D01*
G01X6468Y17385D01*
G37*
G36*
G01X3224Y17385D02*
G01X5197Y17385D01*
G01X5197Y17376D01*
G01X3224Y17376D01*
G01X3224Y17385D01*
G37*
G36*
G01X8415Y17376D02*
G01X8424Y17376D01*
G01X8424Y17367D01*
G01X8415Y17367D01*
G01X8415Y17376D01*
G37*
G36*
G01X6477Y17376D02*
G01X8406Y17376D01*
G01X8406Y17367D01*
G01X6477Y17367D01*
G01X6477Y17376D01*
G37*
G36*
G01X3259Y17376D02*
G01X5206Y17376D01*
G01X5206Y17367D01*
G01X3259Y17367D01*
G01X3259Y17376D01*
G37*
G36*
G01X8389Y17367D02*
G01X8398Y17367D01*
G01X8398Y17358D01*
G01X8389Y17358D01*
G01X8389Y17367D01*
G37*
G36*
G01X6468Y17367D02*
G01X8380Y17367D01*
G01X8380Y17358D01*
G01X6468Y17358D01*
G01X6468Y17367D01*
G37*
G36*
G01X3304Y17367D02*
G01X5215Y17367D01*
G01X5215Y17358D01*
G01X3304Y17358D01*
G01X3304Y17367D01*
G37*
G36*
G01X3286Y17367D02*
G01X3295Y17367D01*
G01X3295Y17358D01*
G01X3286Y17358D01*
G01X3286Y17367D01*
G37*
G36*
G01X8326Y17358D02*
G01X8335Y17358D01*
G01X8335Y17349D01*
G01X8326Y17349D01*
G01X8326Y17358D01*
G37*
G36*
G01X6459Y17358D02*
G01X8317Y17358D01*
G01X8317Y17349D01*
G01X6459Y17349D01*
G01X6459Y17358D01*
G37*
G36*
G01X3366Y17358D02*
G01X5215Y17358D01*
G01X5215Y17349D01*
G01X3366Y17349D01*
G01X3366Y17358D01*
G37*
G36*
G01X3348Y17358D02*
G01X3357Y17358D01*
G01X3357Y17349D01*
G01X3348Y17349D01*
G01X3348Y17358D01*
G37*
G36*
G01X8282Y17349D02*
G01X8291Y17349D01*
G01X8291Y17340D01*
G01X8282Y17340D01*
G01X8282Y17349D01*
G37*
G36*
G01X6451Y17349D02*
G01X8273Y17349D01*
G01X8273Y17340D01*
G01X6451Y17340D01*
G01X6451Y17349D01*
G37*
G36*
G01X3392Y17349D02*
G01X5224Y17349D01*
G01X5224Y17340D01*
G01X3392Y17340D01*
G01X3392Y17349D01*
G37*
G36*
G01X3375Y17349D02*
G01X3384Y17349D01*
G01X3384Y17340D01*
G01X3375Y17340D01*
G01X3375Y17349D01*
G37*
G36*
G01X6459Y17340D02*
G01X8229Y17340D01*
G01X8229Y17331D01*
G01X6459Y17331D01*
G01X6459Y17340D01*
G37*
G36*
G01X3455Y17340D02*
G01X5224Y17340D01*
G01X5224Y17331D01*
G01X3455Y17331D01*
G01X3455Y17340D01*
G37*
G36*
G01X3437Y17340D02*
G01X3446Y17340D01*
G01X3446Y17331D01*
G01X3437Y17331D01*
G01X3437Y17340D01*
G37*
G36*
G01X8193Y17331D02*
G01X8202Y17331D01*
G01X8202Y17322D01*
G01X8193Y17322D01*
G01X8193Y17331D01*
G37*
G36*
G01X6442Y17331D02*
G01X8184Y17331D01*
G01X8184Y17322D01*
G01X6442Y17322D01*
G01X6442Y17331D01*
G37*
G36*
G01X3499Y17331D02*
G01X5233Y17331D01*
G01X5233Y17322D01*
G01X3499Y17322D01*
G01X3499Y17331D01*
G37*
G36*
G01X3481Y17331D02*
G01X3490Y17331D01*
G01X3490Y17322D01*
G01X3481Y17322D01*
G01X3481Y17331D01*
G37*
G36*
G01X8131Y17322D02*
G01X8140Y17322D01*
G01X8140Y17313D01*
G01X8131Y17313D01*
G01X8131Y17322D01*
G37*
G36*
G01X6442Y17322D02*
G01X8122Y17322D01*
G01X8122Y17313D01*
G01X6442Y17313D01*
G01X6442Y17322D01*
G37*
G36*
G01X3561Y17322D02*
G01X5242Y17322D01*
G01X5242Y17313D01*
G01X3561Y17313D01*
G01X3561Y17322D01*
G37*
G36*
G01X3544Y17322D02*
G01X3552Y17322D01*
G01X3552Y17313D01*
G01X3544Y17313D01*
G01X3544Y17322D01*
G37*
G36*
G01X8104Y17313D02*
G01X8113Y17313D01*
G01X8113Y17305D01*
G01X8104Y17305D01*
G01X8104Y17313D01*
G37*
G36*
G01X6433Y17313D02*
G01X8095Y17313D01*
G01X8095Y17305D01*
G01X6433Y17305D01*
G01X6433Y17313D01*
G37*
G36*
G01X3588Y17313D02*
G01X5250Y17313D01*
G01X5250Y17305D01*
G01X3588Y17305D01*
G01X3588Y17313D01*
G37*
G36*
G01X3570Y17313D02*
G01X3579Y17313D01*
G01X3579Y17305D01*
G01X3570Y17305D01*
G01X3570Y17313D01*
G37*
G36*
G01X6424Y17305D02*
G01X8033Y17305D01*
G01X8033Y17296D01*
G01X6424Y17296D01*
G01X6424Y17305D01*
G37*
G36*
G01X3650Y17305D02*
G01X5250Y17305D01*
G01X5250Y17296D01*
G01X3650Y17296D01*
G01X3650Y17305D01*
G37*
G36*
G01X3632Y17305D02*
G01X3641Y17305D01*
G01X3641Y17296D01*
G01X3632Y17296D01*
G01X3632Y17305D01*
G37*
G36*
G01X7997Y17296D02*
G01X8006Y17296D01*
G01X8006Y17287D01*
G01X7997Y17287D01*
G01X7997Y17296D01*
G37*
G36*
G01X6415Y17296D02*
G01X7989Y17296D01*
G01X7989Y17287D01*
G01X6415Y17287D01*
G01X6415Y17296D01*
G37*
G36*
G01X3677Y17296D02*
G01X5259Y17296D01*
G01X5259Y17287D01*
G01X3677Y17287D01*
G01X3677Y17296D01*
G37*
G36*
G01X3659Y17296D02*
G01X3668Y17296D01*
G01X3668Y17287D01*
G01X3659Y17287D01*
G01X3659Y17296D01*
G37*
G36*
G01X6406Y17287D02*
G01X7944Y17287D01*
G01X7944Y17278D01*
G01X6406Y17278D01*
G01X6406Y17287D01*
G37*
G36*
G01X3739Y17287D02*
G01X5259Y17287D01*
G01X5259Y17278D01*
G01X3739Y17278D01*
G01X3739Y17287D01*
G37*
G36*
G01X3721Y17287D02*
G01X3730Y17287D01*
G01X3730Y17278D01*
G01X3721Y17278D01*
G01X3721Y17287D01*
G37*
G36*
G01X7909Y17278D02*
G01X7917Y17278D01*
G01X7917Y17269D01*
G01X7909Y17269D01*
G01X7909Y17278D01*
G37*
G36*
G01X6397Y17278D02*
G01X7900Y17278D01*
G01X7900Y17269D01*
G01X6397Y17269D01*
G01X6397Y17278D01*
G37*
G36*
G01X3784Y17278D02*
G01X5268Y17278D01*
G01X5268Y17269D01*
G01X3784Y17269D01*
G01X3784Y17278D01*
G37*
G36*
G01X3766Y17278D02*
G01X3775Y17278D01*
G01X3775Y17269D01*
G01X3766Y17269D01*
G01X3766Y17278D01*
G37*
G36*
G01X7846Y17269D02*
G01X7855Y17269D01*
G01X7855Y17260D01*
G01X7846Y17260D01*
G01X7846Y17269D01*
G37*
G36*
G01X6397Y17269D02*
G01X7837Y17269D01*
G01X7837Y17260D01*
G01X6397Y17260D01*
G01X6397Y17269D01*
G37*
G36*
G01X3846Y17269D02*
G01X5277Y17269D01*
G01X5277Y17260D01*
G01X3846Y17260D01*
G01X3846Y17269D01*
G37*
G36*
G01X3828Y17269D02*
G01X3837Y17269D01*
G01X3837Y17260D01*
G01X3828Y17260D01*
G01X3828Y17269D01*
G37*
G36*
G01X6388Y17260D02*
G01X7811Y17260D01*
G01X7811Y17251D01*
G01X6388Y17251D01*
G01X6388Y17260D01*
G37*
G36*
G01X3872Y17260D02*
G01X5286Y17260D01*
G01X5286Y17251D01*
G01X3872Y17251D01*
G01X3872Y17260D01*
G37*
G36*
G01X3855Y17260D02*
G01X3864Y17260D01*
G01X3864Y17251D01*
G01X3855Y17251D01*
G01X3855Y17260D01*
G37*
G36*
G01X6388Y17251D02*
G01X7784Y17251D01*
G01X7784Y17242D01*
G01X6388Y17242D01*
G01X6388Y17251D01*
G37*
G36*
G01X3890Y17251D02*
G01X5295Y17251D01*
G01X5295Y17242D01*
G01X3890Y17242D01*
G01X3890Y17251D01*
G37*
G36*
G01X6379Y17242D02*
G01X7775Y17242D01*
G01X7775Y17233D01*
G01X6379Y17233D01*
G01X6379Y17242D01*
G37*
G36*
G01X3899Y17242D02*
G01X5304Y17242D01*
G01X5304Y17233D01*
G01X3899Y17233D01*
G01X3899Y17242D01*
G37*
G36*
G01X6371Y17233D02*
G01X7766Y17233D01*
G01X7766Y17225D01*
G01X6371Y17225D01*
G01X6371Y17233D01*
G37*
G36*
G01X3908Y17233D02*
G01X5313Y17233D01*
G01X5313Y17225D01*
G01X3908Y17225D01*
G01X3908Y17233D01*
G37*
G36*
G01X6353Y17225D02*
G01X7766Y17225D01*
G01X7766Y17216D01*
G01X6353Y17216D01*
G01X6353Y17225D01*
G37*
G36*
G01X3908Y17225D02*
G01X5322Y17225D01*
G01X5322Y17216D01*
G01X3908Y17216D01*
G01X3908Y17225D01*
G37*
G36*
G01X6353Y17216D02*
G01X7766Y17216D01*
G01X7766Y17207D01*
G01X6353Y17207D01*
G01X6353Y17216D01*
G37*
G36*
G01X3917Y17216D02*
G01X5330Y17216D01*
G01X5330Y17207D01*
G01X3917Y17207D01*
G01X3917Y17216D01*
G37*
G36*
G01X6335Y17207D02*
G01X7757Y17207D01*
G01X7757Y17198D01*
G01X6335Y17198D01*
G01X6335Y17207D01*
G37*
G36*
G01X3917Y17207D02*
G01X5339Y17207D01*
G01X5339Y17198D01*
G01X3917Y17198D01*
G01X3917Y17207D01*
G37*
G36*
G01X6335Y17198D02*
G01X7757Y17198D01*
G01X7757Y17189D01*
G01X6335Y17189D01*
G01X6335Y17198D01*
G37*
G36*
G01X3917Y17198D02*
G01X5348Y17198D01*
G01X5348Y17189D01*
G01X3917Y17189D01*
G01X3917Y17198D01*
G37*
G36*
G01X6317Y17189D02*
G01X7757Y17189D01*
G01X7757Y17180D01*
G01X6317Y17180D01*
G01X6317Y17189D01*
G37*
G36*
G01X3926Y17189D02*
G01X5357Y17189D01*
G01X5357Y17180D01*
G01X3926Y17180D01*
G01X3926Y17189D01*
G37*
G36*
G01X6308Y17180D02*
G01X7749Y17180D01*
G01X7749Y17171D01*
G01X6308Y17171D01*
G01X6308Y17180D01*
G37*
G36*
G01X3926Y17180D02*
G01X5366Y17180D01*
G01X5366Y17171D01*
G01X3926Y17171D01*
G01X3926Y17180D01*
G37*
G36*
G01X6291Y17171D02*
G01X7749Y17171D01*
G01X7749Y17162D01*
G01X6291Y17162D01*
G01X6291Y17171D01*
G37*
G36*
G01X3926Y17171D02*
G01X5375Y17171D01*
G01X5375Y17162D01*
G01X3926Y17162D01*
G01X3926Y17171D01*
G37*
G36*
G01X6282Y17162D02*
G01X7749Y17162D01*
G01X7749Y17153D01*
G01X6282Y17153D01*
G01X6282Y17162D01*
G37*
G36*
G01X3935Y17162D02*
G01X5384Y17162D01*
G01X5384Y17153D01*
G01X3935Y17153D01*
G01X3935Y17162D01*
G37*
G36*
G01X6273Y17153D02*
G01X7740Y17153D01*
G01X7740Y17145D01*
G01X6273Y17145D01*
G01X6273Y17153D01*
G37*
G36*
G01X3935Y17153D02*
G01X5410Y17153D01*
G01X5410Y17145D01*
G01X3935Y17145D01*
G01X3935Y17153D01*
G37*
G36*
G01X6264Y17145D02*
G01X7731Y17145D01*
G01X7731Y17136D01*
G01X6264Y17136D01*
G01X6264Y17145D01*
G37*
G36*
G01X3944Y17145D02*
G01X5419Y17145D01*
G01X5419Y17136D01*
G01X3944Y17136D01*
G01X3944Y17145D01*
G37*
G36*
G01X6255Y17136D02*
G01X7740Y17136D01*
G01X7740Y17127D01*
G01X6255Y17127D01*
G01X6255Y17136D01*
G37*
G36*
G01X6237Y17136D02*
G01X6246Y17136D01*
G01X6246Y17127D01*
G01X6237Y17127D01*
G01X6237Y17136D01*
G37*
G36*
G01X3944Y17136D02*
G01X5428Y17136D01*
G01X5428Y17127D01*
G01X3944Y17127D01*
G01X3944Y17136D01*
G37*
G36*
G01X6246Y17127D02*
G01X7731Y17127D01*
G01X7731Y17118D01*
G01X6246Y17118D01*
G01X6246Y17127D01*
G37*
G36*
G01X3953Y17127D02*
G01X5437Y17127D01*
G01X5437Y17118D01*
G01X3953Y17118D01*
G01X3953Y17127D01*
G37*
G36*
G01X6219Y17118D02*
G01X7722Y17118D01*
G01X7722Y17109D01*
G01X6219Y17109D01*
G01X6219Y17118D01*
G37*
G36*
G01X3953Y17118D02*
G01X5455Y17118D01*
G01X5455Y17109D01*
G01X3953Y17109D01*
G01X3953Y17118D01*
G37*
G36*
G01X6211Y17109D02*
G01X7722Y17109D01*
G01X7722Y17100D01*
G01X6211Y17100D01*
G01X6211Y17109D01*
G37*
G36*
G01X3953Y17109D02*
G01X5455Y17109D01*
G01X5455Y17100D01*
G01X3953Y17100D01*
G01X3953Y17109D01*
G37*
G36*
G01X6202Y17100D02*
G01X7722Y17100D01*
G01X7722Y17091D01*
G01X6202Y17091D01*
G01X6202Y17100D01*
G37*
G36*
G01X3961Y17100D02*
G01X5482Y17100D01*
G01X5482Y17091D01*
G01X3961Y17091D01*
G01X3961Y17100D01*
G37*
G36*
G01X6193Y17091D02*
G01X7713Y17091D01*
G01X7713Y17082D01*
G01X6193Y17082D01*
G01X6193Y17091D01*
G37*
G36*
G01X3961Y17091D02*
G01X5490Y17091D01*
G01X5490Y17082D01*
G01X3961Y17082D01*
G01X3961Y17091D01*
G37*
G36*
G01X6166Y17082D02*
G01X7713Y17082D01*
G01X7713Y17073D01*
G01X6166Y17073D01*
G01X6166Y17082D01*
G37*
G36*
G01X3961Y17082D02*
G01X5499Y17082D01*
G01X5499Y17073D01*
G01X3961Y17073D01*
G01X3961Y17082D01*
G37*
G36*
G01X6157Y17073D02*
G01X7704Y17073D01*
G01X7704Y17064D01*
G01X6157Y17064D01*
G01X6157Y17073D01*
G37*
G36*
G01X3970Y17073D02*
G01X5517Y17073D01*
G01X5517Y17064D01*
G01X3970Y17064D01*
G01X3970Y17073D01*
G37*
G36*
G01X6148Y17064D02*
G01X7704Y17064D01*
G01X7704Y17056D01*
G01X6148Y17056D01*
G01X6148Y17064D01*
G37*
G36*
G01X3979Y17064D02*
G01X5535Y17064D01*
G01X5535Y17056D01*
G01X3979Y17056D01*
G01X3979Y17064D01*
G37*
G36*
G01X6139Y17056D02*
G01X7695Y17056D01*
G01X7695Y17047D01*
G01X6139Y17047D01*
G01X6139Y17056D01*
G37*
G36*
G01X3979Y17056D02*
G01X5544Y17056D01*
G01X5544Y17047D01*
G01X3979Y17047D01*
G01X3979Y17056D01*
G37*
G36*
G01X6131Y17047D02*
G01X7704Y17047D01*
G01X7704Y17038D01*
G01X6131Y17038D01*
G01X6131Y17047D01*
G37*
G36*
G01X3979Y17047D02*
G01X5553Y17047D01*
G01X5553Y17038D01*
G01X3979Y17038D01*
G01X3979Y17047D01*
G37*
G36*
G01X6122Y17038D02*
G01X7695Y17038D01*
G01X7695Y17029D01*
G01X6122Y17029D01*
G01X6122Y17038D01*
G37*
G36*
G01X3988Y17038D02*
G01X5553Y17038D01*
G01X5553Y17029D01*
G01X3988Y17029D01*
G01X3988Y17038D01*
G37*
G36*
G01X6122Y17029D02*
G01X7686Y17029D01*
G01X7686Y17020D01*
G01X6122Y17020D01*
G01X6122Y17029D01*
G37*
G36*
G01X3979Y17029D02*
G01X5553Y17029D01*
G01X5553Y17020D01*
G01X3979Y17020D01*
G01X3979Y17029D01*
G37*
G36*
G01X6122Y17020D02*
G01X7677Y17020D01*
G01X7677Y17011D01*
G01X6122Y17011D01*
G01X6122Y17020D01*
G37*
G36*
G01X3988Y17020D02*
G01X5544Y17020D01*
G01X5544Y17011D01*
G01X3988Y17011D01*
G01X3988Y17020D01*
G37*
G36*
G01X6131Y17011D02*
G01X7686Y17011D01*
G01X7686Y17002D01*
G01X6131Y17002D01*
G01X6131Y17011D01*
G37*
G36*
G01X3997Y17011D02*
G01X5553Y17011D01*
G01X5553Y17002D01*
G01X3997Y17002D01*
G01X3997Y17011D01*
G37*
G36*
G01X6139Y17002D02*
G01X7677Y17002D01*
G01X7677Y16993D01*
G01X6139Y16993D01*
G01X6139Y17002D01*
G37*
G36*
G01X4006Y17002D02*
G01X5544Y17002D01*
G01X5544Y16993D01*
G01X4006Y16993D01*
G01X4006Y17002D01*
G37*
G36*
G01X6131Y16993D02*
G01X7677Y16993D01*
G01X7677Y16984D01*
G01X6131Y16984D01*
G01X6131Y16993D01*
G37*
G36*
G01X3997Y16993D02*
G01X5535Y16993D01*
G01X5535Y16984D01*
G01X3997Y16984D01*
G01X3997Y16993D01*
G37*
G36*
G01X6139Y16984D02*
G01X7669Y16984D01*
G01X7669Y16976D01*
G01X6139Y16976D01*
G01X6139Y16984D01*
G37*
G36*
G01X4006Y16984D02*
G01X5535Y16984D01*
G01X5535Y16976D01*
G01X4006Y16976D01*
G01X4006Y16984D01*
G37*
G36*
G01X6148Y16976D02*
G01X7669Y16976D01*
G01X7669Y16967D01*
G01X6148Y16967D01*
G01X6148Y16976D01*
G37*
G36*
G01X4015Y16976D02*
G01X5535Y16976D01*
G01X5535Y16967D01*
G01X4015Y16967D01*
G01X4015Y16976D01*
G37*
G36*
G01X6148Y16967D02*
G01X7660Y16967D01*
G01X7660Y16958D01*
G01X6148Y16958D01*
G01X6148Y16967D01*
G37*
G36*
G01X4006Y16967D02*
G01X5526Y16967D01*
G01X5526Y16958D01*
G01X4006Y16958D01*
G01X4006Y16967D01*
G37*
G36*
G01X6148Y16958D02*
G01X7660Y16958D01*
G01X7660Y16949D01*
G01X6148Y16949D01*
G01X6148Y16958D01*
G37*
G36*
G01X4015Y16958D02*
G01X5526Y16958D01*
G01X5526Y16949D01*
G01X4015Y16949D01*
G01X4015Y16958D01*
G37*
G36*
G01X6157Y16949D02*
G01X7660Y16949D01*
G01X7660Y16940D01*
G01X6157Y16940D01*
G01X6157Y16949D01*
G37*
G36*
G01X4024Y16949D02*
G01X5517Y16949D01*
G01X5517Y16940D01*
G01X4024Y16940D01*
G01X4024Y16949D01*
G37*
G36*
G01X6157Y16940D02*
G01X7651Y16940D01*
G01X7651Y16931D01*
G01X6157Y16931D01*
G01X6157Y16940D01*
G37*
G36*
G01X4015Y16940D02*
G01X5517Y16940D01*
G01X5517Y16931D01*
G01X4015Y16931D01*
G01X4015Y16940D01*
G37*
G36*
G01X6157Y16931D02*
G01X7651Y16931D01*
G01X7651Y16922D01*
G01X6157Y16922D01*
G01X6157Y16931D01*
G37*
G36*
G01X4024Y16931D02*
G01X5508Y16931D01*
G01X5508Y16922D01*
G01X4024Y16922D01*
G01X4024Y16931D01*
G37*
G36*
G01X6166Y16922D02*
G01X7651Y16922D01*
G01X7651Y16913D01*
G01X6166Y16913D01*
G01X6166Y16922D01*
G37*
G36*
G01X4033Y16922D02*
G01X5517Y16922D01*
G01X5517Y16913D01*
G01X4033Y16913D01*
G01X4033Y16922D01*
G37*
G36*
G01X6175Y16913D02*
G01X7642Y16913D01*
G01X7642Y16904D01*
G01X6175Y16904D01*
G01X6175Y16913D01*
G37*
G36*
G01X4041Y16913D02*
G01X5508Y16913D01*
G01X5508Y16904D01*
G01X4041Y16904D01*
G01X4041Y16913D01*
G37*
G36*
G01X6166Y16904D02*
G01X7633Y16904D01*
G01X7633Y16896D01*
G01X6166Y16896D01*
G01X6166Y16904D01*
G37*
G36*
G01X4033Y16904D02*
G01X5499Y16904D01*
G01X5499Y16896D01*
G01X4033Y16896D01*
G01X4033Y16904D01*
G37*
G36*
G01X6175Y16896D02*
G01X7642Y16896D01*
G01X7642Y16887D01*
G01X6175Y16887D01*
G01X6175Y16896D01*
G37*
G36*
G01X4041Y16896D02*
G01X5499Y16896D01*
G01X5499Y16887D01*
G01X4041Y16887D01*
G01X4041Y16896D01*
G37*
G36*
G01X6184Y16887D02*
G01X7633Y16887D01*
G01X7633Y16878D01*
G01X6184Y16878D01*
G01X6184Y16887D01*
G37*
G36*
G01X4041Y16887D02*
G01X5499Y16887D01*
G01X5499Y16878D01*
G01X4041Y16878D01*
G01X4041Y16887D01*
G37*
G36*
G01X6193Y16878D02*
G01X7624Y16878D01*
G01X7624Y16869D01*
G01X6193Y16869D01*
G01X6193Y16878D01*
G37*
G36*
G01X4041Y16878D02*
G01X5490Y16878D01*
G01X5490Y16869D01*
G01X4041Y16869D01*
G01X4041Y16878D01*
G37*
G36*
G01X6184Y16869D02*
G01X7624Y16869D01*
G01X7624Y16860D01*
G01X6184Y16860D01*
G01X6184Y16869D01*
G37*
G36*
G01X4050Y16869D02*
G01X5490Y16869D01*
G01X5490Y16860D01*
G01X4050Y16860D01*
G01X4050Y16869D01*
G37*
G36*
G01X6193Y16860D02*
G01X7624Y16860D01*
G01X7624Y16851D01*
G01X6193Y16851D01*
G01X6193Y16860D01*
G37*
G36*
G01X4059Y16860D02*
G01X5490Y16860D01*
G01X5490Y16851D01*
G01X4059Y16851D01*
G01X4059Y16860D01*
G37*
G36*
G01X6193Y16851D02*
G01X7615Y16851D01*
G01X7615Y16842D01*
G01X6193Y16842D01*
G01X6193Y16851D01*
G37*
G36*
G01X4059Y16851D02*
G01X5482Y16851D01*
G01X5482Y16842D01*
G01X4059Y16842D01*
G01X4059Y16851D01*
G37*
G36*
G01X6202Y16842D02*
G01X7615Y16842D01*
G01X7615Y16833D01*
G01X6202Y16833D01*
G01X6202Y16842D01*
G37*
G36*
G01X4059Y16842D02*
G01X5473Y16842D01*
G01X5473Y16833D01*
G01X4059Y16833D01*
G01X4059Y16842D01*
G37*
G36*
G01X6202Y16833D02*
G01X7615Y16833D01*
G01X7615Y16824D01*
G01X6202Y16824D01*
G01X6202Y16833D01*
G37*
G36*
G01X4068Y16833D02*
G01X5473Y16833D01*
G01X5473Y16824D01*
G01X4068Y16824D01*
G01X4068Y16833D01*
G37*
G36*
G01X6211Y16824D02*
G01X7606Y16824D01*
G01X7606Y16816D01*
G01X6211Y16816D01*
G01X6211Y16824D01*
G37*
G36*
G01X4068Y16824D02*
G01X5473Y16824D01*
G01X5473Y16816D01*
G01X4068Y16816D01*
G01X4068Y16824D01*
G37*
G36*
G01X6211Y16816D02*
G01X7606Y16816D01*
G01X7606Y16807D01*
G01X6211Y16807D01*
G01X6211Y16816D01*
G37*
G36*
G01X4068Y16816D02*
G01X5464Y16816D01*
G01X5464Y16807D01*
G01X4068Y16807D01*
G01X4068Y16816D01*
G37*
G36*
G01X6211Y16807D02*
G01X7597Y16807D01*
G01X7597Y16798D01*
G01X6211Y16798D01*
G01X6211Y16807D01*
G37*
G36*
G01X4077Y16807D02*
G01X5464Y16807D01*
G01X5464Y16798D01*
G01X4077Y16798D01*
G01X4077Y16807D01*
G37*
G36*
G01X6219Y16798D02*
G01X7597Y16798D01*
G01X7597Y16789D01*
G01X6219Y16789D01*
G01X6219Y16798D01*
G37*
G36*
G01X4077Y16798D02*
G01X5464Y16798D01*
G01X5464Y16789D01*
G01X4077Y16789D01*
G01X4077Y16798D01*
G37*
G36*
G01X6228Y16789D02*
G01X7589Y16789D01*
G01X7589Y16780D01*
G01X6228Y16780D01*
G01X6228Y16789D01*
G37*
G36*
G01X4086Y16789D02*
G01X5455Y16789D01*
G01X5455Y16780D01*
G01X4086Y16780D01*
G01X4086Y16789D01*
G37*
G36*
G01X6219Y16780D02*
G01X7597Y16780D01*
G01X7597Y16771D01*
G01X6219Y16771D01*
G01X6219Y16780D01*
G37*
G36*
G01X4086Y16780D02*
G01X5455Y16780D01*
G01X5455Y16771D01*
G01X4086Y16771D01*
G01X4086Y16780D01*
G37*
G36*
G01X6228Y16771D02*
G01X7589Y16771D01*
G01X7589Y16762D01*
G01X6228Y16762D01*
G01X6228Y16771D01*
G37*
G36*
G01X4095Y16771D02*
G01X5446Y16771D01*
G01X5446Y16762D01*
G01X4095Y16762D01*
G01X4095Y16771D01*
G37*
G36*
G01X6237Y16762D02*
G01X7580Y16762D01*
G01X7580Y16753D01*
G01X6237Y16753D01*
G01X6237Y16762D01*
G37*
G36*
G01X4095Y16762D02*
G01X5446Y16762D01*
G01X5446Y16753D01*
G01X4095Y16753D01*
G01X4095Y16762D01*
G37*
G36*
G01X6237Y16753D02*
G01X7571Y16753D01*
G01X7571Y16744D01*
G01X6237Y16744D01*
G01X6237Y16753D01*
G37*
G36*
G01X4095Y16753D02*
G01X5437Y16753D01*
G01X5437Y16744D01*
G01X4095Y16744D01*
G01X4095Y16753D01*
G37*
G36*
G01X6237Y16744D02*
G01X7580Y16744D01*
G01X7580Y16736D01*
G01X6237Y16736D01*
G01X6237Y16744D01*
G37*
G36*
G01X4104Y16744D02*
G01X5437Y16744D01*
G01X5437Y16736D01*
G01X4104Y16736D01*
G01X4104Y16744D01*
G37*
G36*
G01X6246Y16736D02*
G01X7571Y16736D01*
G01X7571Y16727D01*
G01X6246Y16727D01*
G01X6246Y16736D01*
G37*
G36*
G01X4104Y16736D02*
G01X5437Y16736D01*
G01X5437Y16727D01*
G01X4104Y16727D01*
G01X4104Y16736D01*
G37*
G36*
G01X6246Y16727D02*
G01X7571Y16727D01*
G01X7571Y16718D01*
G01X6246Y16718D01*
G01X6246Y16727D01*
G37*
G36*
G01X4104Y16727D02*
G01X5428Y16727D01*
G01X5428Y16718D01*
G01X4104Y16718D01*
G01X4104Y16727D01*
G37*
G36*
G01X6246Y16718D02*
G01X7571Y16718D01*
G01X7571Y16709D01*
G01X6246Y16709D01*
G01X6246Y16718D01*
G37*
G36*
G01X4113Y16718D02*
G01X5419Y16718D01*
G01X5419Y16709D01*
G01X4113Y16709D01*
G01X4113Y16718D01*
G37*
G36*
G01X6255Y16709D02*
G01X7571Y16709D01*
G01X7571Y16700D01*
G01X6255Y16700D01*
G01X6255Y16709D01*
G37*
G36*
G01X4104Y16709D02*
G01X5428Y16709D01*
G01X5428Y16700D01*
G01X4104Y16700D01*
G01X4104Y16709D01*
G37*
G36*
G01X6264Y16700D02*
G01X7571Y16700D01*
G01X7571Y16691D01*
G01X6264Y16691D01*
G01X6264Y16700D01*
G37*
G36*
G01X4113Y16700D02*
G01X5419Y16700D01*
G01X5419Y16691D01*
G01X4113Y16691D01*
G01X4113Y16700D01*
G37*
G36*
G01X6264Y16691D02*
G01X7580Y16691D01*
G01X7580Y16682D01*
G01X6264Y16682D01*
G01X6264Y16691D01*
G37*
G36*
G01X4104Y16691D02*
G01X5410Y16691D01*
G01X5410Y16682D01*
G01X4104Y16682D01*
G01X4104Y16691D01*
G37*
G36*
G01X6264Y16682D02*
G01X7580Y16682D01*
G01X7580Y16673D01*
G01X6264Y16673D01*
G01X6264Y16682D01*
G37*
G36*
G01X4095Y16682D02*
G01X5410Y16682D01*
G01X5410Y16673D01*
G01X4095Y16673D01*
G01X4095Y16682D01*
G37*
G36*
G01X6273Y16673D02*
G01X7589Y16673D01*
G01X7589Y16664D01*
G01X6273Y16664D01*
G01X6273Y16673D01*
G37*
G36*
G01X4086Y16673D02*
G01X5410Y16673D01*
G01X5410Y16664D01*
G01X4086Y16664D01*
G01X4086Y16673D01*
G37*
G36*
G01X6273Y16664D02*
G01X7589Y16664D01*
G01X7589Y16656D01*
G01X6273Y16656D01*
G01X6273Y16664D01*
G37*
G36*
G01X4086Y16664D02*
G01X5402Y16664D01*
G01X5402Y16656D01*
G01X4086Y16656D01*
G01X4086Y16664D01*
G37*
G36*
G01X6273Y16656D02*
G01X7597Y16656D01*
G01X7597Y16647D01*
G01X6273Y16647D01*
G01X6273Y16656D01*
G37*
G36*
G01X4077Y16656D02*
G01X5402Y16656D01*
G01X5402Y16647D01*
G01X4077Y16647D01*
G01X4077Y16656D01*
G37*
G36*
G01X6282Y16647D02*
G01X7606Y16647D01*
G01X7606Y16638D01*
G01X6282Y16638D01*
G01X6282Y16647D01*
G37*
G36*
G01X4077Y16647D02*
G01X5393Y16647D01*
G01X5393Y16638D01*
G01X4077Y16638D01*
G01X4077Y16647D01*
G37*
G36*
G01X6282Y16638D02*
G01X7615Y16638D01*
G01X7615Y16629D01*
G01X6282Y16629D01*
G01X6282Y16638D01*
G37*
G36*
G01X4068Y16638D02*
G01X5393Y16638D01*
G01X5393Y16629D01*
G01X4068Y16629D01*
G01X4068Y16638D01*
G37*
G36*
G01X6291Y16629D02*
G01X7615Y16629D01*
G01X7615Y16620D01*
G01X6291Y16620D01*
G01X6291Y16629D01*
G37*
G36*
G01X4059Y16629D02*
G01X5384Y16629D01*
G01X5384Y16620D01*
G01X4059Y16620D01*
G01X4059Y16629D01*
G37*
G36*
G01X6291Y16620D02*
G01X7624Y16620D01*
G01X7624Y16611D01*
G01X6291Y16611D01*
G01X6291Y16620D01*
G37*
G36*
G01X4050Y16620D02*
G01X5393Y16620D01*
G01X5393Y16611D01*
G01X4050Y16611D01*
G01X4050Y16620D01*
G37*
G36*
G01X6299Y16611D02*
G01X7624Y16611D01*
G01X7624Y16602D01*
G01X6299Y16602D01*
G01X6299Y16611D01*
G37*
G36*
G01X4041Y16611D02*
G01X5384Y16611D01*
G01X5384Y16602D01*
G01X4041Y16602D01*
G01X4041Y16611D01*
G37*
G36*
G01X6291Y16602D02*
G01X7633Y16602D01*
G01X7633Y16593D01*
G01X6291Y16593D01*
G01X6291Y16602D01*
G37*
G36*
G01X4033Y16602D02*
G01X5375Y16602D01*
G01X5375Y16593D01*
G01X4033Y16593D01*
G01X4033Y16602D01*
G37*
G36*
G01X6299Y16593D02*
G01X7642Y16593D01*
G01X7642Y16584D01*
G01X6299Y16584D01*
G01X6299Y16593D01*
G37*
G36*
G01X4041Y16593D02*
G01X5366Y16593D01*
G01X5366Y16584D01*
G01X4041Y16584D01*
G01X4041Y16593D01*
G37*
G36*
G01X6308Y16584D02*
G01X7651Y16584D01*
G01X7651Y16576D01*
G01X6308Y16576D01*
G01X6308Y16584D01*
G37*
G36*
G01X4033Y16584D02*
G01X5375Y16584D01*
G01X5375Y16576D01*
G01X4033Y16576D01*
G01X4033Y16584D01*
G37*
G36*
G01X6317Y16576D02*
G01X7651Y16576D01*
G01X7651Y16567D01*
G01X6317Y16567D01*
G01X6317Y16576D01*
G37*
G36*
G01X4024Y16576D02*
G01X5366Y16576D01*
G01X5366Y16567D01*
G01X4024Y16567D01*
G01X4024Y16576D01*
G37*
G36*
G01X6308Y16567D02*
G01X7669Y16567D01*
G01X7669Y16558D01*
G01X6308Y16558D01*
G01X6308Y16567D01*
G37*
G36*
G01X4015Y16567D02*
G01X5366Y16567D01*
G01X5366Y16558D01*
G01X4015Y16558D01*
G01X4015Y16567D01*
G37*
G36*
G01X6317Y16558D02*
G01X7660Y16558D01*
G01X7660Y16549D01*
G01X6317Y16549D01*
G01X6317Y16558D01*
G37*
G36*
G01X4006Y16558D02*
G01X5357Y16558D01*
G01X5357Y16549D01*
G01X4006Y16549D01*
G01X4006Y16558D01*
G37*
G36*
G01X6326Y16549D02*
G01X7669Y16549D01*
G01X7669Y16540D01*
G01X6326Y16540D01*
G01X6326Y16549D01*
G37*
G36*
G01X3997Y16549D02*
G01X5357Y16549D01*
G01X5357Y16540D01*
G01X3997Y16540D01*
G01X3997Y16549D01*
G37*
G36*
G01X6326Y16540D02*
G01X7677Y16540D01*
G01X7677Y16531D01*
G01X6326Y16531D01*
G01X6326Y16540D01*
G37*
G36*
G01X3997Y16540D02*
G01X5348Y16540D01*
G01X5348Y16531D01*
G01X3997Y16531D01*
G01X3997Y16540D01*
G37*
G36*
G01X6326Y16531D02*
G01X7686Y16531D01*
G01X7686Y16522D01*
G01X6326Y16522D01*
G01X6326Y16531D01*
G37*
G36*
G01X3997Y16531D02*
G01X5348Y16531D01*
G01X5348Y16522D01*
G01X3997Y16522D01*
G01X3997Y16531D01*
G37*
G36*
G01X6335Y16522D02*
G01X7686Y16522D01*
G01X7686Y16513D01*
G01X6335Y16513D01*
G01X6335Y16522D01*
G37*
G36*
G01X3988Y16522D02*
G01X5348Y16522D01*
G01X5348Y16513D01*
G01X3988Y16513D01*
G01X3988Y16522D01*
G37*
G36*
G01X6335Y16513D02*
G01X7695Y16513D01*
G01X7695Y16504D01*
G01X6335Y16504D01*
G01X6335Y16513D01*
G37*
G36*
G01X3979Y16513D02*
G01X5339Y16513D01*
G01X5339Y16504D01*
G01X3979Y16504D01*
G01X3979Y16513D01*
G37*
G36*
G01X6335Y16504D02*
G01X7695Y16504D01*
G01X7695Y16496D01*
G01X6335Y16496D01*
G01X6335Y16504D01*
G37*
G36*
G01X3970Y16504D02*
G01X5339Y16504D01*
G01X5339Y16496D01*
G01X3970Y16496D01*
G01X3970Y16504D01*
G37*
G36*
G01X6344Y16496D02*
G01X7704Y16496D01*
G01X7704Y16487D01*
G01X6344Y16487D01*
G01X6344Y16496D01*
G37*
G36*
G01X3961Y16496D02*
G01X5339Y16496D01*
G01X5339Y16487D01*
G01X3961Y16487D01*
G01X3961Y16496D01*
G37*
G36*
G01X6353Y16487D02*
G01X7713Y16487D01*
G01X7713Y16478D01*
G01X6353Y16478D01*
G01X6353Y16487D01*
G37*
G36*
G01X3970Y16487D02*
G01X5330Y16487D01*
G01X5330Y16478D01*
G01X3970Y16478D01*
G01X3970Y16487D01*
G37*
G36*
G01X6344Y16478D02*
G01X7722Y16478D01*
G01X7722Y16469D01*
G01X6344Y16469D01*
G01X6344Y16478D01*
G37*
G36*
G01X3953Y16478D02*
G01X5322Y16478D01*
G01X5322Y16469D01*
G01X3953Y16469D01*
G01X3953Y16478D01*
G37*
G36*
G01X6353Y16469D02*
G01X7731Y16469D01*
G01X7731Y16460D01*
G01X6353Y16460D01*
G01X6353Y16469D01*
G37*
G36*
G01X3953Y16469D02*
G01X5322Y16469D01*
G01X5322Y16460D01*
G01X3953Y16460D01*
G01X3953Y16469D01*
G37*
G36*
G01X6362Y16460D02*
G01X7740Y16460D01*
G01X7740Y16451D01*
G01X6362Y16451D01*
G01X6362Y16460D01*
G37*
G36*
G01X3944Y16460D02*
G01X5322Y16460D01*
G01X5322Y16451D01*
G01X3944Y16451D01*
G01X3944Y16460D01*
G37*
G36*
G01X6371Y16451D02*
G01X7740Y16451D01*
G01X7740Y16442D01*
G01X6371Y16442D01*
G01X6371Y16451D01*
G37*
G36*
G01X3935Y16451D02*
G01X5313Y16451D01*
G01X5313Y16442D01*
G01X3935Y16442D01*
G01X3935Y16451D01*
G37*
G36*
G01X6362Y16442D02*
G01X7740Y16442D01*
G01X7740Y16433D01*
G01X6362Y16433D01*
G01X6362Y16442D01*
G37*
G36*
G01X3926Y16442D02*
G01X5313Y16442D01*
G01X5313Y16433D01*
G01X3926Y16433D01*
G01X3926Y16442D01*
G37*
G36*
G01X6371Y16433D02*
G01X7749Y16433D01*
G01X7749Y16424D01*
G01X6371Y16424D01*
G01X6371Y16433D01*
G37*
G36*
G01X3926Y16433D02*
G01X5313Y16433D01*
G01X5313Y16424D01*
G01X3926Y16424D01*
G01X3926Y16433D01*
G37*
G36*
G01X6371Y16424D02*
G01X7757Y16424D01*
G01X7757Y16416D01*
G01X6371Y16416D01*
G01X6371Y16424D01*
G37*
G36*
G01X3917Y16424D02*
G01X5304Y16424D01*
G01X5304Y16416D01*
G01X3917Y16416D01*
G01X3917Y16424D01*
G37*
G36*
G01X6371Y16416D02*
G01X7766Y16416D01*
G01X7766Y16407D01*
G01X6371Y16407D01*
G01X6371Y16416D01*
G37*
G36*
G01X3917Y16416D02*
G01X5295Y16416D01*
G01X5295Y16407D01*
G01X3917Y16407D01*
G01X3917Y16416D01*
G37*
G36*
G01X6379Y16407D02*
G01X7775Y16407D01*
G01X7775Y16398D01*
G01X6379Y16398D01*
G01X6379Y16407D01*
G37*
G36*
G01X3908Y16407D02*
G01X5304Y16407D01*
G01X5304Y16398D01*
G01X3908Y16398D01*
G01X3908Y16407D01*
G37*
G36*
G01X6388Y16398D02*
G01X7775Y16398D01*
G01X7775Y16389D01*
G01X6388Y16389D01*
G01X6388Y16398D01*
G37*
G36*
G01X3899Y16398D02*
G01X5295Y16398D01*
G01X5295Y16389D01*
G01X3899Y16389D01*
G01X3899Y16398D01*
G37*
G36*
G01X6388Y16389D02*
G01X7784Y16389D01*
G01X7784Y16380D01*
G01X6388Y16380D01*
G01X6388Y16389D01*
G37*
G36*
G01X3890Y16389D02*
G01X5286Y16389D01*
G01X5286Y16380D01*
G01X3890Y16380D01*
G01X3890Y16389D01*
G37*
G36*
G01X6388Y16380D02*
G01X7784Y16380D01*
G01X7784Y16371D01*
G01X6388Y16371D01*
G01X6388Y16380D01*
G37*
G36*
G01X3890Y16380D02*
G01X5286Y16380D01*
G01X5286Y16371D01*
G01X3890Y16371D01*
G01X3890Y16380D01*
G37*
G36*
G01X6397Y16371D02*
G01X7793Y16371D01*
G01X7793Y16362D01*
G01X6397Y16362D01*
G01X6397Y16371D01*
G37*
G36*
G01X3881Y16371D02*
G01X5286Y16371D01*
G01X5286Y16362D01*
G01X3881Y16362D01*
G01X3881Y16371D01*
G37*
G36*
G01X6397Y16362D02*
G01X7802Y16362D01*
G01X7802Y16353D01*
G01X6397Y16353D01*
G01X6397Y16362D01*
G37*
G36*
G01X3881Y16362D02*
G01X5277Y16362D01*
G01X5277Y16353D01*
G01X3881Y16353D01*
G01X3881Y16362D01*
G37*
G36*
G01X6397Y16353D02*
G01X7811Y16353D01*
G01X7811Y16344D01*
G01X6397Y16344D01*
G01X6397Y16353D01*
G37*
G36*
G01X3872Y16353D02*
G01X5277Y16353D01*
G01X5277Y16344D01*
G01X3872Y16344D01*
G01X3872Y16353D01*
G37*
G36*
G01X6406Y16344D02*
G01X7811Y16344D01*
G01X7811Y16336D01*
G01X6406Y16336D01*
G01X6406Y16344D01*
G37*
G36*
G01X3864Y16344D02*
G01X5277Y16344D01*
G01X5277Y16336D01*
G01X3864Y16336D01*
G01X3864Y16344D01*
G37*
G36*
G01X6406Y16336D02*
G01X7820Y16336D01*
G01X7820Y16327D01*
G01X6406Y16327D01*
G01X6406Y16336D01*
G37*
G36*
G01X3855Y16336D02*
G01X5268Y16336D01*
G01X5268Y16327D01*
G01X3855Y16327D01*
G01X3855Y16336D01*
G37*
G36*
G01X6415Y16327D02*
G01X7820Y16327D01*
G01X7820Y16318D01*
G01X6415Y16318D01*
G01X6415Y16327D01*
G37*
G36*
G01X3855Y16327D02*
G01X5259Y16327D01*
G01X5259Y16318D01*
G01X3855Y16318D01*
G01X3855Y16327D01*
G37*
G36*
G01X6415Y16318D02*
G01X7829Y16318D01*
G01X7829Y16309D01*
G01X6415Y16309D01*
G01X6415Y16318D01*
G37*
G36*
G01X3837Y16318D02*
G01X5268Y16318D01*
G01X5268Y16309D01*
G01X3837Y16309D01*
G01X3837Y16318D01*
G37*
G36*
G01X6424Y16309D02*
G01X7837Y16309D01*
G01X7837Y16300D01*
G01X6424Y16300D01*
G01X6424Y16309D01*
G37*
G36*
G01X3846Y16309D02*
G01X5259Y16309D01*
G01X5259Y16300D01*
G01X3846Y16300D01*
G01X3846Y16309D01*
G37*
G36*
G01X6424Y16300D02*
G01X7846Y16300D01*
G01X7846Y16291D01*
G01X6424Y16291D01*
G01X6424Y16300D01*
G37*
G36*
G01X3837Y16300D02*
G01X5250Y16300D01*
G01X5250Y16291D01*
G01X3837Y16291D01*
G01X3837Y16300D01*
G37*
G36*
G01X6424Y16291D02*
G01X7846Y16291D01*
G01X7846Y16282D01*
G01X6424Y16282D01*
G01X6424Y16291D01*
G37*
G36*
G01X3828Y16291D02*
G01X5242Y16291D01*
G01X5242Y16282D01*
G01X3828Y16282D01*
G01X3828Y16291D01*
G37*
G36*
G01X6433Y16282D02*
G01X7855Y16282D01*
G01X7855Y16273D01*
G01X6433Y16273D01*
G01X6433Y16282D01*
G37*
G36*
G01X3819Y16282D02*
G01X5250Y16282D01*
G01X5250Y16273D01*
G01X3819Y16273D01*
G01X3819Y16282D01*
G37*
G36*
G01X6442Y16273D02*
G01X7855Y16273D01*
G01X7855Y16264D01*
G01X6442Y16264D01*
G01X6442Y16273D01*
G37*
G36*
G01X3810Y16273D02*
G01X5242Y16273D01*
G01X5242Y16264D01*
G01X3810Y16264D01*
G01X3810Y16273D01*
G37*
G36*
G01X6433Y16264D02*
G01X7864Y16264D01*
G01X7864Y16256D01*
G01X6433Y16256D01*
G01X6433Y16264D01*
G37*
G36*
G01X3810Y16264D02*
G01X5242Y16264D01*
G01X5242Y16256D01*
G01X3810Y16256D01*
G01X3810Y16264D01*
G37*
G36*
G01X6442Y16256D02*
G01X7873Y16256D01*
G01X7873Y16247D01*
G01X6442Y16247D01*
G01X6442Y16256D01*
G37*
G36*
G01X3810Y16256D02*
G01X5233Y16256D01*
G01X5233Y16247D01*
G01X3810Y16247D01*
G01X3810Y16256D01*
G37*
G36*
G01X6451Y16247D02*
G01X7882Y16247D01*
G01X7882Y16238D01*
G01X6451Y16238D01*
G01X6451Y16247D01*
G37*
G36*
G01X3801Y16247D02*
G01X5233Y16247D01*
G01X5233Y16238D01*
G01X3801Y16238D01*
G01X3801Y16247D01*
G37*
G36*
G01X6451Y16238D02*
G01X7891Y16238D01*
G01X7891Y16229D01*
G01X6451Y16229D01*
G01X6451Y16238D01*
G37*
G36*
G01X3792Y16238D02*
G01X5224Y16238D01*
G01X5224Y16229D01*
G01X3792Y16229D01*
G01X3792Y16238D01*
G37*
G36*
G01X6451Y16229D02*
G01X7900Y16229D01*
G01X7900Y16220D01*
G01X6451Y16220D01*
G01X6451Y16229D01*
G37*
G36*
G01X3784Y16229D02*
G01X5224Y16229D01*
G01X5224Y16220D01*
G01X3784Y16220D01*
G01X3784Y16229D01*
G37*
G36*
G01X6459Y16220D02*
G01X7891Y16220D01*
G01X7891Y16211D01*
G01X6459Y16211D01*
G01X6459Y16220D01*
G37*
G36*
G01X3775Y16220D02*
G01X5224Y16220D01*
G01X5224Y16211D01*
G01X3775Y16211D01*
G01X3775Y16220D01*
G37*
G36*
G01X6459Y16211D02*
G01X7900Y16211D01*
G01X7900Y16202D01*
G01X6459Y16202D01*
G01X6459Y16211D01*
G37*
G36*
G01X3766Y16211D02*
G01X5215Y16211D01*
G01X5215Y16202D01*
G01X3766Y16202D01*
G01X3766Y16211D01*
G37*
G36*
G01X6468Y16202D02*
G01X7909Y16202D01*
G01X7909Y16193D01*
G01X6468Y16193D01*
G01X6468Y16202D01*
G37*
G36*
G01X3766Y16202D02*
G01X5206Y16202D01*
G01X5206Y16193D01*
G01X3766Y16193D01*
G01X3766Y16202D01*
G37*
G36*
G01X6468Y16193D02*
G01X7917Y16193D01*
G01X7917Y16184D01*
G01X6468Y16184D01*
G01X6468Y16193D01*
G37*
G36*
G01X3766Y16193D02*
G01X5215Y16193D01*
G01X5215Y16184D01*
G01X3766Y16184D01*
G01X3766Y16193D01*
G37*
G36*
G01X6477Y16184D02*
G01X7926Y16184D01*
G01X7926Y16175D01*
G01X6477Y16175D01*
G01X6477Y16184D01*
G37*
G36*
G01X3757Y16184D02*
G01X5206Y16184D01*
G01X5206Y16175D01*
G01X3757Y16175D01*
G01X3757Y16184D01*
G37*
G36*
G01X6468Y16175D02*
G01X7935Y16175D01*
G01X7935Y16167D01*
G01X6468Y16167D01*
G01X6468Y16175D01*
G37*
G36*
G01X3748Y16175D02*
G01X5197Y16175D01*
G01X5197Y16167D01*
G01X3748Y16167D01*
G01X3748Y16175D01*
G37*
G36*
G01X6477Y16167D02*
G01X7926Y16167D01*
G01X7926Y16158D01*
G01X6477Y16158D01*
G01X6477Y16167D01*
G37*
G36*
G01X3739Y16167D02*
G01X5197Y16167D01*
G01X5197Y16158D01*
G01X3739Y16158D01*
G01X3739Y16167D01*
G37*
G36*
G01X6486Y16158D02*
G01X7935Y16158D01*
G01X7935Y16149D01*
G01X6486Y16149D01*
G01X6486Y16158D01*
G37*
G36*
G01X3739Y16158D02*
G01X5197Y16158D01*
G01X5197Y16149D01*
G01X3739Y16149D01*
G01X3739Y16158D01*
G37*
G36*
G01X6495Y16149D02*
G01X7944Y16149D01*
G01X7944Y16140D01*
G01X6495Y16140D01*
G01X6495Y16149D01*
G37*
G36*
G01X3739Y16149D02*
G01X5188Y16149D01*
G01X5188Y16140D01*
G01X3739Y16140D01*
G01X3739Y16149D01*
G37*
G36*
G01X6486Y16140D02*
G01X7935Y16140D01*
G01X7935Y16131D01*
G01X6486Y16131D01*
G01X6486Y16140D01*
G37*
G36*
G01X3739Y16140D02*
G01X5188Y16140D01*
G01X5188Y16131D01*
G01X3739Y16131D01*
G01X3739Y16140D01*
G37*
G36*
G01X6495Y16131D02*
G01X7935Y16131D01*
G01X7935Y16122D01*
G01X6495Y16122D01*
G01X6495Y16131D01*
G37*
G36*
G01X3739Y16131D02*
G01X5179Y16131D01*
G01X5179Y16122D01*
G01X3739Y16122D01*
G01X3739Y16131D01*
G37*
G36*
G01X6504Y16122D02*
G01X7935Y16122D01*
G01X7935Y16113D01*
G01X6504Y16113D01*
G01X6504Y16122D01*
G37*
G36*
G01X3748Y16122D02*
G01X5179Y16122D01*
G01X5179Y16113D01*
G01X3748Y16113D01*
G01X3748Y16122D01*
G37*
G36*
G01X6504Y16113D02*
G01X7926Y16113D01*
G01X7926Y16104D01*
G01X6504Y16104D01*
G01X6504Y16113D01*
G37*
G36*
G01X3757Y16113D02*
G01X5170Y16113D01*
G01X5170Y16104D01*
G01X3757Y16104D01*
G01X3757Y16113D01*
G37*
G36*
G01X6504Y16104D02*
G01X7917Y16104D01*
G01X7917Y16095D01*
G01X6504Y16095D01*
G01X6504Y16104D01*
G37*
G36*
G01X3766Y16104D02*
G01X5179Y16104D01*
G01X5179Y16095D01*
G01X3766Y16095D01*
G01X3766Y16104D01*
G37*
G36*
G01X6513Y16095D02*
G01X7900Y16095D01*
G01X7900Y16087D01*
G01X6513Y16087D01*
G01X6513Y16095D01*
G37*
G36*
G01X3775Y16095D02*
G01X5170Y16095D01*
G01X5170Y16087D01*
G01X3775Y16087D01*
G01X3775Y16095D01*
G37*
G36*
G01X6513Y16087D02*
G01X7900Y16087D01*
G01X7900Y16078D01*
G01X6513Y16078D01*
G01X6513Y16087D01*
G37*
G36*
G01X3784Y16087D02*
G01X5162Y16087D01*
G01X5162Y16078D01*
G01X3784Y16078D01*
G01X3784Y16087D01*
G37*
G36*
G01X6513Y16078D02*
G01X7882Y16078D01*
G01X7882Y16069D01*
G01X6513Y16069D01*
G01X6513Y16078D01*
G37*
G36*
G01X3792Y16078D02*
G01X5162Y16078D01*
G01X5162Y16069D01*
G01X3792Y16069D01*
G01X3792Y16078D01*
G37*
G36*
G01X6522Y16069D02*
G01X7882Y16069D01*
G01X7882Y16060D01*
G01X6522Y16060D01*
G01X6522Y16069D01*
G37*
G36*
G01X3801Y16069D02*
G01X5162Y16069D01*
G01X5162Y16060D01*
G01X3801Y16060D01*
G01X3801Y16069D01*
G37*
G36*
G01X6531Y16060D02*
G01X7873Y16060D01*
G01X7873Y16051D01*
G01X6531Y16051D01*
G01X6531Y16060D01*
G37*
G36*
G01X3810Y16060D02*
G01X5153Y16060D01*
G01X5153Y16051D01*
G01X3810Y16051D01*
G01X3810Y16060D01*
G37*
G36*
G01X6522Y16051D02*
G01X7864Y16051D01*
G01X7864Y16042D01*
G01X6522Y16042D01*
G01X6522Y16051D01*
G37*
G36*
G01X3819Y16051D02*
G01X5153Y16051D01*
G01X5153Y16042D01*
G01X3819Y16042D01*
G01X3819Y16051D01*
G37*
G36*
G01X6531Y16042D02*
G01X7855Y16042D01*
G01X7855Y16033D01*
G01X6531Y16033D01*
G01X6531Y16042D01*
G37*
G36*
G01X3828Y16042D02*
G01X5153Y16042D01*
G01X5153Y16033D01*
G01X3828Y16033D01*
G01X3828Y16042D01*
G37*
G36*
G01X6539Y16033D02*
G01X7846Y16033D01*
G01X7846Y16024D01*
G01X6539Y16024D01*
G01X6539Y16033D01*
G37*
G36*
G01X3837Y16033D02*
G01X5144Y16033D01*
G01X5144Y16024D01*
G01X3837Y16024D01*
G01X3837Y16033D01*
G37*
G36*
G01X6539Y16024D02*
G01X7829Y16024D01*
G01X7829Y16015D01*
G01X6539Y16015D01*
G01X6539Y16024D01*
G37*
G36*
G01X3846Y16024D02*
G01X5135Y16024D01*
G01X5135Y16015D01*
G01X3846Y16015D01*
G01X3846Y16024D01*
G37*
G36*
G01X6539Y16015D02*
G01X7829Y16015D01*
G01X7829Y16007D01*
G01X6539Y16007D01*
G01X6539Y16015D01*
G37*
G36*
G01X3855Y16015D02*
G01X5135Y16015D01*
G01X5135Y16007D01*
G01X3855Y16007D01*
G01X3855Y16015D01*
G37*
G36*
G01X6886Y16007D02*
G01X7811Y16007D01*
G01X7811Y15998D01*
G01X6886Y15998D01*
G01X6886Y16007D01*
G37*
G36*
G01X6868Y16007D02*
G01X6877Y16007D01*
G01X6877Y15998D01*
G01X6868Y15998D01*
G01X6868Y16007D01*
G37*
G36*
G01X6548Y16007D02*
G01X6860Y16007D01*
G01X6860Y15998D01*
G01X6548Y15998D01*
G01X6548Y16007D01*
G37*
G36*
G01X4806Y16007D02*
G01X5135Y16007D01*
G01X5135Y15998D01*
G01X4806Y15998D01*
G01X4806Y16007D01*
G37*
G36*
G01X4788Y16007D02*
G01X4797Y16007D01*
G01X4797Y15998D01*
G01X4788Y15998D01*
G01X4788Y16007D01*
G37*
G36*
G01X3864Y16007D02*
G01X4779Y16007D01*
G01X4779Y15998D01*
G01X3864Y15998D01*
G01X3864Y16007D01*
G37*
G36*
G01X6904Y15998D02*
G01X7811Y15998D01*
G01X7811Y15989D01*
G01X6904Y15989D01*
G01X6904Y15998D01*
G37*
G36*
G01X6548Y15998D02*
G01X6851Y15998D01*
G01X6851Y15989D01*
G01X6548Y15989D01*
G01X6548Y15998D01*
G37*
G36*
G01X4833Y15998D02*
G01X5126Y15998D01*
G01X5126Y15989D01*
G01X4833Y15989D01*
G01X4833Y15998D01*
G37*
G36*
G01X4815Y15998D02*
G01X4824Y15998D01*
G01X4824Y15989D01*
G01X4815Y15989D01*
G01X4815Y15998D01*
G37*
G36*
G01X3872Y15998D02*
G01X4770Y15998D01*
G01X4770Y15989D01*
G01X3872Y15989D01*
G01X3872Y15998D01*
G37*
G36*
G01X6922Y15989D02*
G01X7802Y15989D01*
G01X7802Y15980D01*
G01X6922Y15980D01*
G01X6922Y15989D01*
G37*
G36*
G01X6548Y15989D02*
G01X6824Y15989D01*
G01X6824Y15980D01*
G01X6548Y15980D01*
G01X6548Y15989D01*
G37*
G36*
G01X4842Y15989D02*
G01X5126Y15989D01*
G01X5126Y15980D01*
G01X4842Y15980D01*
G01X4842Y15989D01*
G37*
G36*
G01X3881Y15989D02*
G01X4761Y15989D01*
G01X4761Y15980D01*
G01X3881Y15980D01*
G01X3881Y15989D01*
G37*
G36*
G01X6931Y15980D02*
G01X7793Y15980D01*
G01X7793Y15971D01*
G01X6931Y15971D01*
G01X6931Y15980D01*
G37*
G36*
G01X6557Y15980D02*
G01X6815Y15980D01*
G01X6815Y15971D01*
G01X6557Y15971D01*
G01X6557Y15980D01*
G37*
G36*
G01X4868Y15980D02*
G01X5126Y15980D01*
G01X5126Y15971D01*
G01X4868Y15971D01*
G01X4868Y15980D01*
G37*
G36*
G01X4850Y15980D02*
G01X4859Y15980D01*
G01X4859Y15971D01*
G01X4850Y15971D01*
G01X4850Y15980D01*
G37*
G36*
G01X3890Y15980D02*
G01X4753Y15980D01*
G01X4753Y15971D01*
G01X3890Y15971D01*
G01X3890Y15980D01*
G37*
G36*
G01X6940Y15971D02*
G01X7784Y15971D01*
G01X7784Y15962D01*
G01X6940Y15962D01*
G01X6940Y15971D01*
G37*
G36*
G01X6566Y15971D02*
G01X6797Y15971D01*
G01X6797Y15962D01*
G01X6566Y15962D01*
G01X6566Y15971D01*
G37*
G36*
G01X4877Y15971D02*
G01X5117Y15971D01*
G01X5117Y15962D01*
G01X4877Y15962D01*
G01X4877Y15971D01*
G37*
G36*
G01X3899Y15971D02*
G01X4726Y15971D01*
G01X4726Y15962D01*
G01X3899Y15962D01*
G01X3899Y15971D01*
G37*
G36*
G01X6948Y15962D02*
G01X7775Y15962D01*
G01X7775Y15953D01*
G01X6948Y15953D01*
G01X6948Y15962D01*
G37*
G36*
G01X6788Y15962D02*
G01X6797Y15962D01*
G01X6797Y15953D01*
G01X6788Y15953D01*
G01X6788Y15962D01*
G37*
G36*
G01X6566Y15962D02*
G01X6780Y15962D01*
G01X6780Y15953D01*
G01X6566Y15953D01*
G01X6566Y15962D01*
G37*
G36*
G01X4886Y15962D02*
G01X5117Y15962D01*
G01X5117Y15953D01*
G01X4886Y15953D01*
G01X4886Y15962D01*
G37*
G36*
G01X3908Y15962D02*
G01X4717Y15962D01*
G01X4717Y15953D01*
G01X3908Y15953D01*
G01X3908Y15962D01*
G37*
G36*
G01X6975Y15953D02*
G01X7757Y15953D01*
G01X7757Y15944D01*
G01X6975Y15944D01*
G01X6975Y15953D01*
G37*
G36*
G01X6566Y15953D02*
G01X6771Y15953D01*
G01X6771Y15944D01*
G01X6566Y15944D01*
G01X6566Y15953D01*
G37*
G36*
G01X4913Y15953D02*
G01X5108Y15953D01*
G01X5108Y15944D01*
G01X4913Y15944D01*
G01X4913Y15953D01*
G37*
G36*
G01X3917Y15953D02*
G01X4708Y15953D01*
G01X4708Y15944D01*
G01X3917Y15944D01*
G01X3917Y15953D01*
G37*
G36*
G01X6984Y15944D02*
G01X7757Y15944D01*
G01X7757Y15935D01*
G01X6984Y15935D01*
G01X6984Y15944D01*
G37*
G36*
G01X6575Y15944D02*
G01X6762Y15944D01*
G01X6762Y15935D01*
G01X6575Y15935D01*
G01X6575Y15944D01*
G37*
G36*
G01X4922Y15944D02*
G01X5108Y15944D01*
G01X5108Y15935D01*
G01X4922Y15935D01*
G01X4922Y15944D01*
G37*
G36*
G01X3926Y15944D02*
G01X4699Y15944D01*
G01X4699Y15935D01*
G01X3926Y15935D01*
G01X3926Y15944D01*
G37*
G36*
G01X6993Y15935D02*
G01X7740Y15935D01*
G01X7740Y15927D01*
G01X6993Y15927D01*
G01X6993Y15935D01*
G37*
G36*
G01X6575Y15935D02*
G01X6735Y15935D01*
G01X6735Y15927D01*
G01X6575Y15927D01*
G01X6575Y15935D01*
G37*
G36*
G01X4948Y15935D02*
G01X5099Y15935D01*
G01X5099Y15927D01*
G01X4948Y15927D01*
G01X4948Y15935D01*
G37*
G36*
G01X3935Y15935D02*
G01X4673Y15935D01*
G01X4673Y15927D01*
G01X3935Y15927D01*
G01X3935Y15935D01*
G37*
G36*
G01X7002Y15927D02*
G01X7740Y15927D01*
G01X7740Y15918D01*
G01X7002Y15918D01*
G01X7002Y15927D01*
G37*
G36*
G01X6575Y15927D02*
G01X6726Y15927D01*
G01X6726Y15918D01*
G01X6575Y15918D01*
G01X6575Y15927D01*
G37*
G36*
G01X4957Y15927D02*
G01X5099Y15927D01*
G01X5099Y15918D01*
G01X4957Y15918D01*
G01X4957Y15927D01*
G37*
G36*
G01X3944Y15927D02*
G01X4664Y15927D01*
G01X4664Y15918D01*
G01X3944Y15918D01*
G01X3944Y15927D01*
G37*
G36*
G01X7028Y15918D02*
G01X7731Y15918D01*
G01X7731Y15909D01*
G01X7028Y15909D01*
G01X7028Y15918D01*
G37*
G36*
G01X6584Y15918D02*
G01X6700Y15918D01*
G01X6700Y15909D01*
G01X6584Y15909D01*
G01X6584Y15918D01*
G37*
G36*
G01X4984Y15918D02*
G01X5099Y15918D01*
G01X5099Y15909D01*
G01X4984Y15909D01*
G01X4984Y15918D01*
G37*
G36*
G01X3953Y15918D02*
G01X4655Y15918D01*
G01X4655Y15909D01*
G01X3953Y15909D01*
G01X3953Y15918D01*
G37*
G36*
G01X7037Y15909D02*
G01X7722Y15909D01*
G01X7722Y15900D01*
G01X7037Y15900D01*
G01X7037Y15909D01*
G37*
G36*
G01X6584Y15909D02*
G01X6691Y15909D01*
G01X6691Y15900D01*
G01X6584Y15900D01*
G01X6584Y15909D01*
G37*
G36*
G01X4993Y15909D02*
G01X5090Y15909D01*
G01X5090Y15900D01*
G01X4993Y15900D01*
G01X4993Y15909D01*
G37*
G36*
G01X3961Y15909D02*
G01X4646Y15909D01*
G01X4646Y15900D01*
G01X3961Y15900D01*
G01X3961Y15909D01*
G37*
G36*
G01X7046Y15900D02*
G01X7713Y15900D01*
G01X7713Y15891D01*
G01X7046Y15891D01*
G01X7046Y15900D01*
G37*
G36*
G01X6593Y15900D02*
G01X6664Y15900D01*
G01X6664Y15891D01*
G01X6593Y15891D01*
G01X6593Y15900D01*
G37*
G36*
G01X5019Y15900D02*
G01X5082Y15900D01*
G01X5082Y15891D01*
G01X5019Y15891D01*
G01X5019Y15900D01*
G37*
G36*
G01X3970Y15900D02*
G01X4619Y15900D01*
G01X4619Y15891D01*
G01X3970Y15891D01*
G01X3970Y15900D01*
G37*
G36*
G01X7055Y15891D02*
G01X7704Y15891D01*
G01X7704Y15882D01*
G01X7055Y15882D01*
G01X7055Y15891D01*
G37*
G36*
G01X6593Y15891D02*
G01X6655Y15891D01*
G01X6655Y15882D01*
G01X6593Y15882D01*
G01X6593Y15891D01*
G37*
G36*
G01X5028Y15891D02*
G01X5090Y15891D01*
G01X5090Y15882D01*
G01X5028Y15882D01*
G01X5028Y15891D01*
G37*
G36*
G01X3979Y15891D02*
G01X4628Y15891D01*
G01X4628Y15882D01*
G01X3979Y15882D01*
G01X3979Y15891D01*
G37*
G36*
G01X7082Y15882D02*
G01X7686Y15882D01*
G01X7686Y15873D01*
G01X7082Y15873D01*
G01X7082Y15882D01*
G37*
G36*
G01X6602Y15882D02*
G01X6628Y15882D01*
G01X6628Y15873D01*
G01X6602Y15873D01*
G01X6602Y15882D01*
G37*
G36*
G01X5055Y15882D02*
G01X5073Y15882D01*
G01X5073Y15873D01*
G01X5055Y15873D01*
G01X5055Y15882D01*
G37*
G36*
G01X5037Y15882D02*
G01X5046Y15882D01*
G01X5046Y15873D01*
G01X5037Y15873D01*
G01X5037Y15882D01*
G37*
G36*
G01X3988Y15882D02*
G01X4601Y15882D01*
G01X4601Y15873D01*
G01X3988Y15873D01*
G01X3988Y15882D01*
G37*
G36*
G01X7091Y15873D02*
G01X7686Y15873D01*
G01X7686Y15864D01*
G01X7091Y15864D01*
G01X7091Y15873D01*
G37*
G36*
G01X3997Y15873D02*
G01X4593Y15873D01*
G01X4593Y15864D01*
G01X3997Y15864D01*
G01X3997Y15873D01*
G37*
G36*
G01X7100Y15864D02*
G01X7669Y15864D01*
G01X7669Y15855D01*
G01X7100Y15855D01*
G01X7100Y15864D01*
G37*
G36*
G01X4006Y15864D02*
G01X4584Y15864D01*
G01X4584Y15855D01*
G01X4006Y15855D01*
G01X4006Y15864D01*
G37*
G36*
G01X7108Y15855D02*
G01X7669Y15855D01*
G01X7669Y15847D01*
G01X7108Y15847D01*
G01X7108Y15855D01*
G37*
G36*
G01X4015Y15855D02*
G01X4575Y15855D01*
G01X4575Y15847D01*
G01X4015Y15847D01*
G01X4015Y15855D01*
G37*
G36*
G01X7135Y15847D02*
G01X7660Y15847D01*
G01X7660Y15838D01*
G01X7135Y15838D01*
G01X7135Y15847D01*
G37*
G36*
G01X4024Y15847D02*
G01X4548Y15847D01*
G01X4548Y15838D01*
G01X4024Y15838D01*
G01X4024Y15847D01*
G37*
G36*
G01X7144Y15838D02*
G01X7651Y15838D01*
G01X7651Y15829D01*
G01X7144Y15829D01*
G01X7144Y15838D01*
G37*
G36*
G01X4033Y15838D02*
G01X4539Y15838D01*
G01X4539Y15829D01*
G01X4033Y15829D01*
G01X4033Y15838D01*
G37*
G36*
G01X7153Y15829D02*
G01X7642Y15829D01*
G01X7642Y15820D01*
G01X7153Y15820D01*
G01X7153Y15829D01*
G37*
G36*
G01X4041Y15829D02*
G01X4530Y15829D01*
G01X4530Y15820D01*
G01X4041Y15820D01*
G01X4041Y15829D01*
G37*
G36*
G01X7162Y15820D02*
G01X7633Y15820D01*
G01X7633Y15811D01*
G01X7162Y15811D01*
G01X7162Y15820D01*
G37*
G36*
G01X4050Y15820D02*
G01X4521Y15820D01*
G01X4521Y15811D01*
G01X4050Y15811D01*
G01X4050Y15820D01*
G37*
G36*
G01X7188Y15811D02*
G01X7615Y15811D01*
G01X7615Y15802D01*
G01X7188Y15802D01*
G01X7188Y15811D01*
G37*
G36*
G01X4059Y15811D02*
G01X4495Y15811D01*
G01X4495Y15802D01*
G01X4059Y15802D01*
G01X4059Y15811D01*
G37*
G36*
G01X7197Y15802D02*
G01X7615Y15802D01*
G01X7615Y15793D01*
G01X7197Y15793D01*
G01X7197Y15802D01*
G37*
G36*
G01X4068Y15802D02*
G01X4486Y15802D01*
G01X4486Y15793D01*
G01X4068Y15793D01*
G01X4068Y15802D01*
G37*
G36*
G01X7206Y15793D02*
G01X7597Y15793D01*
G01X7597Y15784D01*
G01X7206Y15784D01*
G01X7206Y15793D01*
G37*
G36*
G01X4077Y15793D02*
G01X4477Y15793D01*
G01X4477Y15784D01*
G01X4077Y15784D01*
G01X4077Y15793D01*
G37*
G36*
G01X7215Y15784D02*
G01X7597Y15784D01*
G01X7597Y15775D01*
G01X7215Y15775D01*
G01X7215Y15784D01*
G37*
G36*
G01X4086Y15784D02*
G01X4468Y15784D01*
G01X4468Y15775D01*
G01X4086Y15775D01*
G01X4086Y15784D01*
G37*
G36*
G01X7224Y15775D02*
G01X7589Y15775D01*
G01X7589Y15767D01*
G01X7224Y15767D01*
G01X7224Y15775D01*
G37*
G36*
G01X4095Y15775D02*
G01X4441Y15775D01*
G01X4441Y15767D01*
G01X4095Y15767D01*
G01X4095Y15775D01*
G37*
G36*
G01X7233Y15767D02*
G01X7580Y15767D01*
G01X7580Y15758D01*
G01X7233Y15758D01*
G01X7233Y15767D01*
G37*
G36*
G01X4104Y15767D02*
G01X4433Y15767D01*
G01X4433Y15758D01*
G01X4104Y15758D01*
G01X4104Y15767D01*
G37*
G36*
G01X7260Y15758D02*
G01X7571Y15758D01*
G01X7571Y15749D01*
G01X7260Y15749D01*
G01X7260Y15758D01*
G37*
G36*
G01X4113Y15758D02*
G01X4424Y15758D01*
G01X4424Y15749D01*
G01X4113Y15749D01*
G01X4113Y15758D01*
G37*
G36*
G01X7268Y15749D02*
G01X7562Y15749D01*
G01X7562Y15740D01*
G01X7268Y15740D01*
G01X7268Y15749D01*
G37*
G36*
G01X4121Y15749D02*
G01X4415Y15749D01*
G01X4415Y15740D01*
G01X4121Y15740D01*
G01X4121Y15749D01*
G37*
G36*
G01X7277Y15740D02*
G01X7544Y15740D01*
G01X7544Y15731D01*
G01X7277Y15731D01*
G01X7277Y15740D01*
G37*
G36*
G01X4130Y15740D02*
G01X4388Y15740D01*
G01X4388Y15731D01*
G01X4130Y15731D01*
G01X4130Y15740D01*
G37*
G36*
G01X7286Y15731D02*
G01X7544Y15731D01*
G01X7544Y15722D01*
G01X7286Y15722D01*
G01X7286Y15731D01*
G37*
G36*
G01X4139Y15731D02*
G01X4379Y15731D01*
G01X4379Y15722D01*
G01X4139Y15722D01*
G01X4139Y15731D01*
G37*
G36*
G01X7313Y15722D02*
G01X7526Y15722D01*
G01X7526Y15713D01*
G01X7313Y15713D01*
G01X7313Y15722D01*
G37*
G36*
G01X4148Y15722D02*
G01X4370Y15722D01*
G01X4370Y15713D01*
G01X4148Y15713D01*
G01X4148Y15722D01*
G37*
G36*
G01X7322Y15713D02*
G01X7526Y15713D01*
G01X7526Y15704D01*
G01X7322Y15704D01*
G01X7322Y15713D01*
G37*
G36*
G01X4157Y15713D02*
G01X4361Y15713D01*
G01X4361Y15704D01*
G01X4157Y15704D01*
G01X4157Y15713D01*
G37*
G36*
G01X7331Y15704D02*
G01X7517Y15704D01*
G01X7517Y15695D01*
G01X7331Y15695D01*
G01X7331Y15704D01*
G37*
G36*
G01X4166Y15704D02*
G01X4344Y15704D01*
G01X4344Y15695D01*
G01X4166Y15695D01*
G01X4166Y15704D01*
G37*
M00*
M02*
