;Layer: Drill PTH
;EasyEDA v5.9.34, Sun, 20 Jan 2019 06:30:26 GMT
;4d0cf0336fcf4326954002bdc8c8e70b
;Gerber Generator version 0.2
M48
METRIC,LZ,000.000
;Holesize 1 = 0.305 METRIC
T01C0.305
;Holesize 2 = 0.752 METRIC
T02C0.752
;Holesize 3 = 0.811 METRIC
T03C0.811
;Holesize 4 = 0.915 METRIC
T04C0.915
%
G05
G90
T01
X+004572Y+005080
X+007874Y+004318
X+006604Y+004572
X+007112Y+012700
X+006350Y+010414
X+009906Y+008636
X+034290Y+005588
X+035052Y+004318
X+004572Y+008382
X+010160Y+006096
X+009906Y+006858
X+005080Y+006096
X+033782Y+007620
X+033020Y+010160
X+035306Y+016256
X+024384Y+015494
X+036322Y+007620
X+031750Y+013208
X+025908Y+016002
X+031496Y+015748
X+012192Y+002794
X+002032Y+004064
X+001270Y+010922
X+012446Y+015240
X+006604Y+006604
X+012446Y+001016
X+010414Y+007874
X+011176Y+011938
X+015494Y+015494
X+015748Y+012446
X+010160Y+009398
X+017272Y+012192
X+006350Y+009398
X+029464Y+010160
X+037846Y+006096
X+021590Y+012192
X+035052Y+014986
X+023114Y+019304
X+016256Y+002794
X+026416Y+005334
X+025654Y+004572
X+013208Y+018542
X+012954Y+009906
X+035306Y+013208
X+016256Y+005588
X+031496Y+014224
T02
X+035560Y+001016
X+014986Y+001016
X+017018Y+001016
T03
X+019050Y+019558
X+019050Y+017018
X+019050Y+014478
X+019050Y+011938
X+019050Y+009398
X+019050Y+006858
X+019050Y+004318
X+019050Y+001778
T04
X+024518Y+008484
X+022031Y+005867
X+024502Y+003383
M30
