G04 Layer: BottomSolderMaskLayer*
G04 EasyEDA v5.9.34, Sun, 20 Jan 2019 06:30:26 GMT*
G04 4d0cf0336fcf4326954002bdc8c8e70b*
G04 Gerber Generator version 0.2*
G04 Scale: 100 percent, Rotated: No, Reflected: No *
G04 Dimensions in millimeters *
G04 leading zeros omitted , absolute positions ,3 integer and 3 decimal *
%FSLAX33Y33*%
%MOMM*%
G90*
G71D02*

%ADD63C,1.723187*%
%ADD66C,1.727200*%
%ADD67R,1.453134X2.003298*%
%ADD72C,1.903222*%
%ADD73C,1.453134*%
%ADD74R,4.703191X2.703195*%
%ADD75R,3.703193X4.403192*%
%ADD76R,1.003198X1.863192*%
%ADD77R,0.965200X1.703197*%
%ADD78R,0.965200X1.653210*%
%ADD79R,2.003196X2.803195*%

%LPD*%
G54D63*
G01X19050Y19558D03*
G01X19050Y17018D03*
G01X19050Y14478D03*
G01X19050Y11938D03*
G01X19050Y9398D03*
G01X19050Y6858D03*
G01X19050Y4318D03*
G01X19050Y1778D03*
G54D66*
G01X24518Y8484D03*
G01X22031Y5867D03*
G01X24502Y3383D03*
G54D74*
G01X15544Y10322D03*
G54D75*
G01X36753Y10373D03*
G54D76*
G01X18288Y19740D03*
G01X17018Y19740D03*
G01X15748Y19740D03*
G01X14478Y19740D03*
G01X13208Y19740D03*
G54D77*
G01X10668Y2487D03*
G01X9398Y2487D03*
G01X8128Y2487D03*
G01X6858Y2487D03*
G01X5588Y2487D03*
G01X4318Y2487D03*
G01X3048Y2487D03*
G01X1778Y2487D03*
G54D78*
G01X1778Y709D03*
G01X3048Y709D03*
G01X4318Y709D03*
G01X5588Y709D03*
G01X6858Y709D03*
G01X8128Y709D03*
G01X9398Y709D03*
G01X10668Y709D03*
G54D79*
G01X37846Y18923D03*
G01X34843Y18923D03*
G54D67*
G01X13388Y3751D03*
G01X13388Y1151D03*
G54D72*
G01X37592Y1524D03*
G54D73*
G01X35560Y1016D03*
G01X14986Y1016D03*
G01X17018Y1016D03*
M00*
M02*
