G04 Layer: BottomSilkLayer*
G04 EasyEDA v5.9.34, Sun, 20 Jan 2019 06:30:26 GMT*
G04 4d0cf0336fcf4326954002bdc8c8e70b*
G04 Gerber Generator version 0.2*
G04 Scale: 100 percent, Rotated: No, Reflected: No *
G04 Dimensions in millimeters *
G04 leading zeros omitted , absolute positions ,3 integer and 3 decimal *
%FSLAX33Y33*%
%MOMM*%
G90*
G71D02*

%ADD10C,0.254000*%
%ADD12C,0.160000*%
%ADD49C,0.199898*%
%ADD51C,0.249936*%
%ADD53C,0.127000*%

%LPD*%
G54D12*
G01X20066Y18542D02*
G01X20066Y17780D01*
G01X20066Y889D02*
G01X20066Y127D01*
G01X20066Y20193D02*
G01X20066Y19685D01*
G01X20066Y16256D02*
G01X20066Y15494D01*
G01X20066Y13716D02*
G01X20066Y12954D01*
G01X20066Y11176D02*
G01X20066Y10414D01*
G01X20066Y8636D02*
G01X20066Y7874D01*
G01X20066Y6096D02*
G01X20066Y5334D01*
G01X20066Y3556D02*
G01X20066Y2794D01*
G54D10*
G01X16078Y2445D02*
G01X32131Y2445D01*
G01X33353Y3666D01*
G01X36876Y3666D01*
G01X36876Y4484D01*
G01X36876Y6023D01*
G01X36322Y6023D01*
G01X36322Y4911D01*
G01X34310Y4911D01*
G01X34310Y15731D01*
G01X36322Y15731D01*
G01X36322Y14619D01*
G01X36876Y14619D01*
G01X36876Y16158D01*
G01X36876Y16524D01*
G01X36876Y17006D01*
G01X33701Y17006D01*
G01X32563Y18144D01*
G01X16078Y18144D01*
G01X19939Y10296D02*
G01X18364Y10296D01*
G01X33350Y9686D02*
G01X33350Y11109D01*
G01X33985Y10372D02*
G01X32690Y10372D01*
G54D12*
G01X12192Y2427D02*
G01X12192Y20428D01*
G01X193Y20428D01*
G01X193Y2427D01*
G01X12192Y2427D01*
G54D10*
G01X10033Y13730D02*
G01X10033Y18810D01*
G01X8763Y18810D01*
G01X8763Y16905D01*
G01X8128Y16905D01*
G01X8128Y18810D01*
G01X7493Y18810D01*
G01X7493Y16905D01*
G01X6858Y16905D01*
G01X6858Y18810D01*
G01X3683Y18810D01*
G01X10033Y5475D02*
G01X2413Y5475D01*
G01X2413Y13095D01*
G01X10033Y13095D01*
G01X10033Y5475D01*
G54D49*
G01X36322Y17780D02*
G01X36322Y19939D01*
G01X14088Y2451D02*
G01X12688Y2451D01*
G54D53*
G01X32551Y17491D02*
G01X32551Y16763D01*
G01X32551Y17491D02*
G01X32308Y17491D01*
G01X32204Y17456D01*
G01X32135Y17387D01*
G01X32100Y17318D01*
G01X32066Y17214D01*
G01X32066Y17041D01*
G01X32100Y16937D01*
G01X32135Y16867D01*
G01X32204Y16798D01*
G01X32308Y16763D01*
G01X32551Y16763D01*
G01X31837Y17041D02*
G01X31421Y17041D01*
G01X31421Y17110D01*
G01X31456Y17179D01*
G01X31491Y17214D01*
G01X31560Y17248D01*
G01X31664Y17248D01*
G01X31733Y17214D01*
G01X31802Y17144D01*
G01X31837Y17041D01*
G01X31837Y16971D01*
G01X31802Y16867D01*
G01X31733Y16798D01*
G01X31664Y16763D01*
G01X31560Y16763D01*
G01X31491Y16798D01*
G01X31421Y16867D01*
G01X30812Y17144D02*
G01X30847Y17214D01*
G01X30950Y17248D01*
G01X31054Y17248D01*
G01X31158Y17214D01*
G01X31193Y17144D01*
G01X31158Y17075D01*
G01X31089Y17041D01*
G01X30916Y17006D01*
G01X30847Y16971D01*
G01X30812Y16902D01*
G01X30812Y16867D01*
G01X30847Y16798D01*
G01X30950Y16763D01*
G01X31054Y16763D01*
G01X31158Y16798D01*
G01X31193Y16867D01*
G01X30168Y17248D02*
G01X30168Y16694D01*
G01X30202Y16590D01*
G01X30237Y16556D01*
G01X30306Y16521D01*
G01X30410Y16521D01*
G01X30479Y16556D01*
G01X30168Y17144D02*
G01X30237Y17214D01*
G01X30306Y17248D01*
G01X30410Y17248D01*
G01X30479Y17214D01*
G01X30549Y17144D01*
G01X30583Y17041D01*
G01X30583Y16971D01*
G01X30549Y16867D01*
G01X30479Y16798D01*
G01X30410Y16763D01*
G01X30306Y16763D01*
G01X30237Y16798D01*
G01X30168Y16867D01*
G01X29939Y17491D02*
G01X29904Y17456D01*
G01X29870Y17491D01*
G01X29904Y17525D01*
G01X29939Y17491D01*
G01X29904Y17248D02*
G01X29904Y16763D01*
G01X29641Y17248D02*
G01X29641Y16763D01*
G01X29641Y17110D02*
G01X29537Y17214D01*
G01X29468Y17248D01*
G01X29364Y17248D01*
G01X29295Y17214D01*
G01X29260Y17110D01*
G01X29260Y16763D01*
G01X28997Y17179D02*
G01X29032Y17144D01*
G01X28997Y17110D01*
G01X28962Y17144D01*
G01X28997Y17179D01*
G01X28997Y16937D02*
G01X29032Y16902D01*
G01X28997Y16867D01*
G01X28962Y16902D01*
G01X28997Y16937D01*
G01X28734Y17491D02*
G01X28734Y16763D01*
G01X28249Y17491D02*
G01X28249Y16763D01*
G01X28734Y17144D02*
G01X28249Y17144D01*
G01X28020Y17248D02*
G01X28020Y16902D01*
G01X27986Y16798D01*
G01X27916Y16763D01*
G01X27812Y16763D01*
G01X27743Y16798D01*
G01X27639Y16902D01*
G01X27639Y17248D02*
G01X27639Y16763D01*
G01X27411Y17041D02*
G01X26995Y17041D01*
G01X26995Y17110D01*
G01X27030Y17179D01*
G01X27064Y17214D01*
G01X27133Y17248D01*
G01X27237Y17248D01*
G01X27307Y17214D01*
G01X27376Y17144D01*
G01X27411Y17041D01*
G01X27411Y16971D01*
G01X27376Y16867D01*
G01X27307Y16798D01*
G01X27237Y16763D01*
G01X27133Y16763D01*
G01X27064Y16798D01*
G01X26995Y16867D01*
G01X26766Y17248D02*
G01X26385Y16763D01*
G01X26385Y17248D02*
G01X26766Y16763D01*
G01X26157Y17075D02*
G01X25533Y17075D01*
G01X25305Y17075D02*
G01X24681Y17075D01*
G01X24453Y17248D02*
G01X24245Y16763D01*
G01X24037Y17248D02*
G01X24245Y16763D01*
G01X23808Y17352D02*
G01X23739Y17387D01*
G01X23635Y17491D01*
G01X23635Y16763D01*
G01X23372Y16937D02*
G01X23407Y16902D01*
G01X23372Y16867D01*
G01X23337Y16902D01*
G01X23372Y16937D01*
G01X22936Y17491D02*
G01X23039Y17456D01*
G01X23074Y17387D01*
G01X23074Y17318D01*
G01X23039Y17248D01*
G01X22970Y17214D01*
G01X22832Y17179D01*
G01X22728Y17144D01*
G01X22658Y17075D01*
G01X22624Y17006D01*
G01X22624Y16902D01*
G01X22658Y16833D01*
G01X22693Y16798D01*
G01X22797Y16763D01*
G01X22936Y16763D01*
G01X23039Y16798D01*
G01X23074Y16833D01*
G01X23109Y16902D01*
G01X23109Y17006D01*
G01X23074Y17075D01*
G01X23005Y17144D01*
G01X22901Y17179D01*
G01X22762Y17214D01*
G01X22693Y17248D01*
G01X22658Y17318D01*
G01X22658Y17387D01*
G01X22693Y17456D01*
G01X22797Y17491D01*
G01X22936Y17491D01*
G54D10*
G01X17514Y4063D02*
G01X17514Y3300D01*
G01X17514Y4063D02*
G01X17259Y4063D01*
G01X17150Y4027D01*
G01X17077Y3954D01*
G01X17041Y3882D01*
G01X17005Y3773D01*
G01X17005Y3591D01*
G01X17041Y3482D01*
G01X17077Y3409D01*
G01X17150Y3336D01*
G01X17259Y3300D01*
G01X17514Y3300D01*
G01X16728Y3882D02*
G01X16728Y3918D01*
G01X16692Y3991D01*
G01X16655Y4027D01*
G01X16583Y4063D01*
G01X16437Y4063D01*
G01X16365Y4027D01*
G01X16328Y3991D01*
G01X16292Y3918D01*
G01X16292Y3845D01*
G01X16328Y3773D01*
G01X16401Y3663D01*
G01X16765Y3300D01*
G01X16256Y3300D01*
G01X15990Y5333D02*
G01X15990Y4570D01*
G01X15990Y5333D02*
G01X15735Y5333D01*
G01X15626Y5297D01*
G01X15553Y5224D01*
G01X15517Y5152D01*
G01X15481Y5043D01*
G01X15481Y4861D01*
G01X15517Y4752D01*
G01X15553Y4679D01*
G01X15626Y4606D01*
G01X15735Y4570D01*
G01X15990Y4570D01*
G01X15168Y5333D02*
G01X14768Y5333D01*
G01X14986Y5043D01*
G01X14877Y5043D01*
G01X14804Y5006D01*
G01X14768Y4970D01*
G01X14731Y4861D01*
G01X14731Y4788D01*
G01X14768Y4679D01*
G01X14841Y4606D01*
G01X14950Y4570D01*
G01X15059Y4570D01*
G01X15168Y4606D01*
G01X15204Y4643D01*
G01X15241Y4715D01*
G54D53*
G01X6581Y6832D02*
G01X6096Y6832D01*
G01X6443Y6832D02*
G01X6548Y6936D01*
G01X6581Y7005D01*
G01X6581Y7109D01*
G01X6548Y7177D01*
G01X6443Y7213D01*
G01X6096Y7213D01*
G01X6824Y7441D02*
G01X6096Y7441D01*
G01X6824Y7441D02*
G01X6824Y7754D01*
G01X6789Y7858D01*
G01X6753Y7891D01*
G01X6685Y7927D01*
G01X6616Y7927D01*
G01X6548Y7891D01*
G01X6512Y7858D01*
G01X6477Y7754D01*
G01X6477Y7441D01*
G01X6477Y7683D02*
G01X6096Y7927D01*
G01X6824Y8155D02*
G01X6096Y8155D01*
G01X6824Y8155D02*
G01X6824Y8605D01*
G01X6477Y8155D02*
G01X6477Y8432D01*
G01X6649Y8869D02*
G01X6685Y8869D01*
G01X6753Y8902D01*
G01X6789Y8938D01*
G01X6824Y9006D01*
G01X6824Y9146D01*
G01X6789Y9214D01*
G01X6753Y9250D01*
G01X6685Y9283D01*
G01X6616Y9283D01*
G01X6548Y9250D01*
G01X6443Y9181D01*
G01X6096Y8833D01*
G01X6096Y9319D01*
G01X6824Y9893D02*
G01X6339Y9547D01*
G01X6339Y10068D01*
G01X6824Y9893D02*
G01X6096Y9893D01*
G01X6824Y10296D02*
G01X6096Y10296D01*
G01X6096Y10296D02*
G01X6096Y10711D01*
G01X6824Y11147D02*
G01X6789Y11043D01*
G01X6685Y10975D01*
G01X6512Y10939D01*
G01X6408Y10939D01*
G01X6235Y10975D01*
G01X6131Y11043D01*
G01X6096Y11147D01*
G01X6096Y11216D01*
G01X6131Y11320D01*
G01X6235Y11391D01*
G01X6408Y11424D01*
G01X6512Y11424D01*
G01X6685Y11391D01*
G01X6789Y11320D01*
G01X6824Y11216D01*
G01X6824Y11147D01*
G01X6685Y11653D02*
G01X6720Y11721D01*
G01X6824Y11826D01*
G01X6096Y11826D01*
G54D51*
G75*
G01X11430Y254D02*
G03X11348Y284I0J125D01*
G01*
G75*
G01X11430Y1016D02*
G03X11348Y1046I0J125D01*
G01*
G75*
G01X18288Y18542D02*
G03X18206Y18572I0J125D01*
G01*
G75*
G01X14488Y1639D02*
G03X14406Y1669I0J125D01*
G01*
G54D10*
G75*
G01X16079Y2446D02*
G02X16079Y18146I7850J7850D01*
G01*
G54D51*
G75*
G01X38735Y17145D02*
G02X38705Y17227I-125J0D01*
G01*
G75*
G01X14363Y952D02*
G02X14394Y870I125J0D01*
G01*
M00*
M02*
